<mxfile host="app.diagrams.net" modified="2024-04-22T00:39:21.043Z" agent="Mozilla/5.0 (Macintosh; Intel Mac OS X 10_15_7) AppleWebKit/537.36 (KHTML, like Gecko) Chrome/122.0.0.0 Safari/537.36" etag="CUwHY5JwKoqA-t_TByay" version="24.2.5" type="device">
  <diagram name="Page-1" id="46LNJsdxcswZFe82ko74">
    <mxGraphModel dx="1134" dy="1610" grid="1" gridSize="10" guides="1" tooltips="1" connect="1" arrows="1" fold="1" page="1" pageScale="1" pageWidth="1100" pageHeight="850" math="0" shadow="0">
      <root>
        <mxCell id="0" />
        <mxCell id="1" parent="0" />
        <mxCell id="aLhHGZbvKz11yxVPuM4n-1" value="AWS Cloud" style="points=[[0,0],[0.25,0],[0.5,0],[0.75,0],[1,0],[1,0.25],[1,0.5],[1,0.75],[1,1],[0.75,1],[0.5,1],[0.25,1],[0,1],[0,0.75],[0,0.5],[0,0.25]];outlineConnect=0;gradientColor=none;html=1;whiteSpace=wrap;fontSize=12;fontStyle=0;container=1;pointerEvents=0;collapsible=0;recursiveResize=0;shape=mxgraph.aws4.group;grIcon=mxgraph.aws4.group_aws_cloud_alt;strokeColor=#232F3E;fillColor=none;verticalAlign=top;align=left;spacingLeft=30;fontColor=#232F3E;dashed=0;" vertex="1" parent="1">
          <mxGeometry x="120" y="160" width="880" height="560" as="geometry" />
        </mxCell>
        <mxCell id="aLhHGZbvKz11yxVPuM4n-24" value="&lt;font color=&quot;#000000&quot;&gt;Virtual Private Cloud (VPC)&lt;/font&gt;" style="points=[[0,0],[0.25,0],[0.5,0],[0.75,0],[1,0],[1,0.25],[1,0.5],[1,0.75],[1,1],[0.75,1],[0.5,1],[0.25,1],[0,1],[0,0.75],[0,0.5],[0,0.25]];outlineConnect=0;gradientColor=none;html=1;whiteSpace=wrap;fontSize=12;fontStyle=0;container=0;pointerEvents=0;collapsible=0;recursiveResize=0;shape=mxgraph.aws4.group;grIcon=mxgraph.aws4.group_vpc2;strokeColor=#8C4FFF;fillColor=none;verticalAlign=top;align=left;spacingLeft=30;fontColor=#AAB7B8;dashed=0;" vertex="1" parent="aLhHGZbvKz11yxVPuM4n-1">
          <mxGeometry x="200" y="50" width="380" height="450" as="geometry" />
        </mxCell>
        <mxCell id="aLhHGZbvKz11yxVPuM4n-54" value="Private subnet" style="points=[[0,0],[0.25,0],[0.5,0],[0.75,0],[1,0],[1,0.25],[1,0.5],[1,0.75],[1,1],[0.75,1],[0.5,1],[0.25,1],[0,1],[0,0.75],[0,0.5],[0,0.25]];outlineConnect=0;gradientColor=none;html=1;whiteSpace=wrap;fontSize=12;fontStyle=0;container=1;pointerEvents=0;collapsible=0;recursiveResize=0;shape=mxgraph.aws4.group;grIcon=mxgraph.aws4.group_security_group;grStroke=0;strokeColor=#00A4A6;fillColor=#E6F6F7;verticalAlign=top;align=left;spacingLeft=30;fontColor=#147EBA;dashed=0;" vertex="1" parent="aLhHGZbvKz11yxVPuM4n-1">
          <mxGeometry x="370" y="360" width="200" height="120" as="geometry" />
        </mxCell>
        <mxCell id="aLhHGZbvKz11yxVPuM4n-51" value="Availability Zone B" style="fillColor=none;strokeColor=#147EBA;dashed=1;verticalAlign=top;fontStyle=0;fontColor=#147EBA;whiteSpace=wrap;html=1;" vertex="1" parent="aLhHGZbvKz11yxVPuM4n-1">
          <mxGeometry x="190" y="330" width="400" height="180" as="geometry" />
        </mxCell>
        <mxCell id="aLhHGZbvKz11yxVPuM4n-13" value="Amazon ECR" style="sketch=0;points=[[0,0,0],[0.25,0,0],[0.5,0,0],[0.75,0,0],[1,0,0],[0,1,0],[0.25,1,0],[0.5,1,0],[0.75,1,0],[1,1,0],[0,0.25,0],[0,0.5,0],[0,0.75,0],[1,0.25,0],[1,0.5,0],[1,0.75,0]];outlineConnect=0;fontColor=#232F3E;fillColor=#ED7100;strokeColor=#ffffff;dashed=0;verticalLabelPosition=bottom;verticalAlign=top;align=center;html=1;fontSize=12;fontStyle=0;aspect=fixed;shape=mxgraph.aws4.resourceIcon;resIcon=mxgraph.aws4.ecr;" vertex="1" parent="aLhHGZbvKz11yxVPuM4n-1">
          <mxGeometry x="120" y="95" width="40" height="40" as="geometry" />
        </mxCell>
        <mxCell id="aLhHGZbvKz11yxVPuM4n-19" value="" style="edgeStyle=orthogonalEdgeStyle;rounded=0;orthogonalLoop=1;jettySize=auto;html=1;" edge="1" parent="aLhHGZbvKz11yxVPuM4n-1" source="aLhHGZbvKz11yxVPuM4n-15" target="aLhHGZbvKz11yxVPuM4n-18">
          <mxGeometry relative="1" as="geometry" />
        </mxCell>
        <mxCell id="aLhHGZbvKz11yxVPuM4n-15" value="Amazon Route 53" style="sketch=0;points=[[0,0,0],[0.25,0,0],[0.5,0,0],[0.75,0,0],[1,0,0],[0,1,0],[0.25,1,0],[0.5,1,0],[0.75,1,0],[1,1,0],[0,0.25,0],[0,0.5,0],[0,0.75,0],[1,0.25,0],[1,0.5,0],[1,0.75,0]];outlineConnect=0;fontColor=#232F3E;fillColor=#8C4FFF;strokeColor=#ffffff;dashed=0;verticalLabelPosition=bottom;verticalAlign=top;align=center;html=1;fontSize=12;fontStyle=0;aspect=fixed;shape=mxgraph.aws4.resourceIcon;resIcon=mxgraph.aws4.route_53;" vertex="1" parent="aLhHGZbvKz11yxVPuM4n-1">
          <mxGeometry x="40" y="200" width="40" height="40" as="geometry" />
        </mxCell>
        <mxCell id="aLhHGZbvKz11yxVPuM4n-21" value="" style="edgeStyle=orthogonalEdgeStyle;rounded=0;orthogonalLoop=1;jettySize=auto;html=1;" edge="1" parent="aLhHGZbvKz11yxVPuM4n-1" source="aLhHGZbvKz11yxVPuM4n-18" target="aLhHGZbvKz11yxVPuM4n-20">
          <mxGeometry relative="1" as="geometry" />
        </mxCell>
        <mxCell id="aLhHGZbvKz11yxVPuM4n-18" value="Amazon Cognito" style="sketch=0;points=[[0,0,0],[0.25,0,0],[0.5,0,0],[0.75,0,0],[1,0,0],[0,1,0],[0.25,1,0],[0.5,1,0],[0.75,1,0],[1,1,0],[0,0.25,0],[0,0.5,0],[0,0.75,0],[1,0.25,0],[1,0.5,0],[1,0.75,0]];outlineConnect=0;fontColor=#232F3E;fillColor=#DD344C;strokeColor=#ffffff;dashed=0;verticalLabelPosition=bottom;verticalAlign=top;align=center;html=1;fontSize=12;fontStyle=0;aspect=fixed;shape=mxgraph.aws4.resourceIcon;resIcon=mxgraph.aws4.cognito;" vertex="1" parent="aLhHGZbvKz11yxVPuM4n-1">
          <mxGeometry x="40" y="280" width="40" height="40" as="geometry" />
        </mxCell>
        <mxCell id="aLhHGZbvKz11yxVPuM4n-26" value="AWS Lambda&lt;div&gt;PostConfirmationConfirmSignUpTriggerEvent&lt;/div&gt;" style="sketch=0;points=[[0,0,0],[0.25,0,0],[0.5,0,0],[0.75,0,0],[1,0,0],[0,1,0],[0.25,1,0],[0.5,1,0],[0.75,1,0],[1,1,0],[0,0.25,0],[0,0.5,0],[0,0.75,0],[1,0.25,0],[1,0.5,0],[1,0.75,0]];outlineConnect=0;fontColor=#232F3E;fillColor=#ED7100;strokeColor=#ffffff;dashed=0;verticalLabelPosition=bottom;verticalAlign=top;align=center;html=1;fontSize=12;fontStyle=0;aspect=fixed;shape=mxgraph.aws4.resourceIcon;resIcon=mxgraph.aws4.lambda;" vertex="1" parent="aLhHGZbvKz11yxVPuM4n-1">
          <mxGeometry x="640" y="480" width="40" height="40" as="geometry" />
        </mxCell>
        <mxCell id="aLhHGZbvKz11yxVPuM4n-56" value="AWS Fargate" style="sketch=0;points=[[0,0,0],[0.25,0,0],[0.5,0,0],[0.75,0,0],[1,0,0],[0,1,0],[0.25,1,0],[0.5,1,0],[0.75,1,0],[1,1,0],[0,0.25,0],[0,0.5,0],[0,0.75,0],[1,0.25,0],[1,0.5,0],[1,0.75,0]];outlineConnect=0;fontColor=#232F3E;fillColor=#ED7100;strokeColor=#ffffff;dashed=0;verticalLabelPosition=bottom;verticalAlign=top;align=center;html=1;fontSize=12;fontStyle=0;aspect=fixed;shape=mxgraph.aws4.resourceIcon;resIcon=mxgraph.aws4.fargate;" vertex="1" parent="aLhHGZbvKz11yxVPuM4n-1">
          <mxGeometry x="490" y="400" width="40" height="40" as="geometry" />
        </mxCell>
        <mxCell id="aLhHGZbvKz11yxVPuM4n-42" value="Availability Zone A" style="fillColor=none;strokeColor=#147EBA;dashed=1;verticalAlign=top;fontStyle=0;fontColor=#147EBA;whiteSpace=wrap;html=1;" vertex="1" parent="aLhHGZbvKz11yxVPuM4n-1">
          <mxGeometry x="190" y="90" width="400" height="180" as="geometry" />
        </mxCell>
        <mxCell id="aLhHGZbvKz11yxVPuM4n-43" value="Public subnet" style="points=[[0,0],[0.25,0],[0.5,0],[0.75,0],[1,0],[1,0.25],[1,0.5],[1,0.75],[1,1],[0.75,1],[0.5,1],[0.25,1],[0,1],[0,0.75],[0,0.5],[0,0.25]];outlineConnect=0;gradientColor=none;html=1;whiteSpace=wrap;fontSize=12;fontStyle=0;container=1;pointerEvents=0;collapsible=0;recursiveResize=0;shape=mxgraph.aws4.group;grIcon=mxgraph.aws4.group_security_group;grStroke=0;strokeColor=#7AA116;fillColor=#F2F6E8;verticalAlign=top;align=left;spacingLeft=30;fontColor=#248814;dashed=0;" vertex="1" parent="aLhHGZbvKz11yxVPuM4n-1">
          <mxGeometry x="210" y="120" width="120" height="120" as="geometry" />
        </mxCell>
        <mxCell id="aLhHGZbvKz11yxVPuM4n-44" value="NAT Gateway" style="sketch=0;outlineConnect=0;fontColor=#232F3E;gradientColor=none;fillColor=#8C4FFF;strokeColor=none;dashed=0;verticalLabelPosition=bottom;verticalAlign=top;align=center;html=1;fontSize=12;fontStyle=0;aspect=fixed;pointerEvents=1;shape=mxgraph.aws4.nat_gateway;" vertex="1" parent="aLhHGZbvKz11yxVPuM4n-43">
          <mxGeometry x="40" y="40" width="40" height="40" as="geometry" />
        </mxCell>
        <mxCell id="aLhHGZbvKz11yxVPuM4n-45" value="Private subnet" style="points=[[0,0],[0.25,0],[0.5,0],[0.75,0],[1,0],[1,0.25],[1,0.5],[1,0.75],[1,1],[0.75,1],[0.5,1],[0.25,1],[0,1],[0,0.75],[0,0.5],[0,0.25]];outlineConnect=0;gradientColor=none;html=1;whiteSpace=wrap;fontSize=12;fontStyle=0;container=1;pointerEvents=0;collapsible=0;recursiveResize=0;shape=mxgraph.aws4.group;grIcon=mxgraph.aws4.group_security_group;grStroke=0;strokeColor=#00A4A6;fillColor=#E6F6F7;verticalAlign=top;align=left;spacingLeft=30;fontColor=#147EBA;dashed=0;" vertex="1" parent="aLhHGZbvKz11yxVPuM4n-1">
          <mxGeometry x="370" y="120" width="200" height="120" as="geometry" />
        </mxCell>
        <mxCell id="aLhHGZbvKz11yxVPuM4n-46" value="Amazon ECS" style="sketch=0;points=[[0,0,0],[0.25,0,0],[0.5,0,0],[0.75,0,0],[1,0,0],[0,1,0],[0.25,1,0],[0.5,1,0],[0.75,1,0],[1,1,0],[0,0.25,0],[0,0.5,0],[0,0.75,0],[1,0.25,0],[1,0.5,0],[1,0.75,0]];outlineConnect=0;fontColor=#232F3E;fillColor=#ED7100;strokeColor=#ffffff;dashed=0;verticalLabelPosition=bottom;verticalAlign=top;align=center;html=1;fontSize=12;fontStyle=0;aspect=fixed;shape=mxgraph.aws4.resourceIcon;resIcon=mxgraph.aws4.ecs;" vertex="1" parent="aLhHGZbvKz11yxVPuM4n-1">
          <mxGeometry x="410" y="160" width="40" height="40" as="geometry" />
        </mxCell>
        <mxCell id="aLhHGZbvKz11yxVPuM4n-47" value="AWS Fargate" style="sketch=0;points=[[0,0,0],[0.25,0,0],[0.5,0,0],[0.75,0,0],[1,0,0],[0,1,0],[0.25,1,0],[0.5,1,0],[0.75,1,0],[1,1,0],[0,0.25,0],[0,0.5,0],[0,0.75,0],[1,0.25,0],[1,0.5,0],[1,0.75,0]];outlineConnect=0;fontColor=#232F3E;fillColor=#ED7100;strokeColor=#ffffff;dashed=0;verticalLabelPosition=bottom;verticalAlign=top;align=center;html=1;fontSize=12;fontStyle=0;aspect=fixed;shape=mxgraph.aws4.resourceIcon;resIcon=mxgraph.aws4.fargate;" vertex="1" parent="aLhHGZbvKz11yxVPuM4n-1">
          <mxGeometry x="490" y="160" width="40" height="40" as="geometry" />
        </mxCell>
        <mxCell id="aLhHGZbvKz11yxVPuM4n-80" style="edgeStyle=orthogonalEdgeStyle;rounded=0;orthogonalLoop=1;jettySize=auto;html=1;" edge="1" parent="aLhHGZbvKz11yxVPuM4n-1" source="aLhHGZbvKz11yxVPuM4n-57" target="aLhHGZbvKz11yxVPuM4n-40">
          <mxGeometry relative="1" as="geometry" />
        </mxCell>
        <mxCell id="aLhHGZbvKz11yxVPuM4n-57" value="" style="points=[[0,0],[0.25,0],[0.5,0],[0.75,0],[1,0],[1,0.25],[1,0.5],[1,0.75],[1,1],[0.75,1],[0.5,1],[0.25,1],[0,1],[0,0.75],[0,0.5],[0,0.25]];outlineConnect=0;gradientColor=none;html=1;whiteSpace=wrap;fontSize=12;fontStyle=0;container=0;pointerEvents=0;collapsible=0;recursiveResize=0;shape=mxgraph.aws4.groupCenter;grIcon=mxgraph.aws4.group_auto_scaling_group;grStroke=1;strokeColor=#D86613;fillColor=none;verticalAlign=top;align=center;fontColor=#D86613;dashed=1;spacingTop=25;direction=south;" vertex="1" parent="aLhHGZbvKz11yxVPuM4n-1">
          <mxGeometry x="370" y="120" width="200" height="360" as="geometry" />
        </mxCell>
        <mxCell id="aLhHGZbvKz11yxVPuM4n-52" value="Public subnet" style="points=[[0,0],[0.25,0],[0.5,0],[0.75,0],[1,0],[1,0.25],[1,0.5],[1,0.75],[1,1],[0.75,1],[0.5,1],[0.25,1],[0,1],[0,0.75],[0,0.5],[0,0.25]];outlineConnect=0;gradientColor=none;html=1;whiteSpace=wrap;fontSize=12;fontStyle=0;container=0;pointerEvents=0;collapsible=0;recursiveResize=0;shape=mxgraph.aws4.group;grIcon=mxgraph.aws4.group_security_group;grStroke=0;strokeColor=#7AA116;fillColor=#F2F6E8;verticalAlign=top;align=left;spacingLeft=30;fontColor=#248814;dashed=0;" vertex="1" parent="aLhHGZbvKz11yxVPuM4n-1">
          <mxGeometry x="210" y="360" width="120" height="120" as="geometry" />
        </mxCell>
        <mxCell id="aLhHGZbvKz11yxVPuM4n-53" value="NAT Gateway" style="sketch=0;outlineConnect=0;fontColor=#232F3E;gradientColor=none;fillColor=#8C4FFF;strokeColor=none;dashed=0;verticalLabelPosition=bottom;verticalAlign=top;align=center;html=1;fontSize=12;fontStyle=0;aspect=fixed;pointerEvents=1;shape=mxgraph.aws4.nat_gateway;" vertex="1" parent="aLhHGZbvKz11yxVPuM4n-1">
          <mxGeometry x="250" y="400" width="40" height="40" as="geometry" />
        </mxCell>
        <mxCell id="aLhHGZbvKz11yxVPuM4n-61" value="&lt;span style=&quot;color: rgb(216, 102, 19);&quot;&gt;Auto Scaling Group&lt;/span&gt;" style="text;html=1;align=center;verticalAlign=middle;whiteSpace=wrap;rounded=0;" vertex="1" parent="aLhHGZbvKz11yxVPuM4n-1">
          <mxGeometry x="410" y="285" width="120" height="30" as="geometry" />
        </mxCell>
        <mxCell id="aLhHGZbvKz11yxVPuM4n-55" value="Amazon ECS" style="sketch=0;points=[[0,0,0],[0.25,0,0],[0.5,0,0],[0.75,0,0],[1,0,0],[0,1,0],[0.25,1,0],[0.5,1,0],[0.75,1,0],[1,1,0],[0,0.25,0],[0,0.5,0],[0,0.75,0],[1,0.25,0],[1,0.5,0],[1,0.75,0]];outlineConnect=0;fontColor=#232F3E;fillColor=#ED7100;strokeColor=#ffffff;dashed=0;verticalLabelPosition=bottom;verticalAlign=top;align=center;html=1;fontSize=12;fontStyle=0;aspect=fixed;shape=mxgraph.aws4.resourceIcon;resIcon=mxgraph.aws4.ecs;" vertex="1" parent="aLhHGZbvKz11yxVPuM4n-1">
          <mxGeometry x="410" y="400" width="40" height="40" as="geometry" />
        </mxCell>
        <mxCell id="aLhHGZbvKz11yxVPuM4n-67" style="edgeStyle=orthogonalEdgeStyle;rounded=0;orthogonalLoop=1;jettySize=auto;html=1;entryX=0;entryY=0.5;entryDx=0;entryDy=0;" edge="1" parent="aLhHGZbvKz11yxVPuM4n-1" source="aLhHGZbvKz11yxVPuM4n-20" target="aLhHGZbvKz11yxVPuM4n-42">
          <mxGeometry relative="1" as="geometry">
            <mxPoint x="187" y="170" as="targetPoint" />
            <Array as="points">
              <mxPoint x="140" y="180" />
            </Array>
          </mxGeometry>
        </mxCell>
        <mxCell id="aLhHGZbvKz11yxVPuM4n-20" value="Application&lt;div&gt;Load&lt;/div&gt;&lt;div&gt;Balancer&lt;/div&gt;" style="sketch=0;outlineConnect=0;fontColor=#232F3E;gradientColor=none;fillColor=#8C4FFF;strokeColor=none;dashed=0;verticalLabelPosition=bottom;verticalAlign=top;align=center;html=1;fontSize=12;fontStyle=0;aspect=fixed;pointerEvents=1;shape=mxgraph.aws4.application_load_balancer;" vertex="1" parent="aLhHGZbvKz11yxVPuM4n-1">
          <mxGeometry x="120" y="280" width="40" height="40" as="geometry" />
        </mxCell>
        <mxCell id="aLhHGZbvKz11yxVPuM4n-40" value="Amazon CloudWatch" style="sketch=0;points=[[0,0,0],[0.25,0,0],[0.5,0,0],[0.75,0,0],[1,0,0],[0,1,0],[0.25,1,0],[0.5,1,0],[0.75,1,0],[1,1,0],[0,0.25,0],[0,0.5,0],[0,0.75,0],[1,0.25,0],[1,0.5,0],[1,0.75,0]];points=[[0,0,0],[0.25,0,0],[0.5,0,0],[0.75,0,0],[1,0,0],[0,1,0],[0.25,1,0],[0.5,1,0],[0.75,1,0],[1,1,0],[0,0.25,0],[0,0.5,0],[0,0.75,0],[1,0.25,0],[1,0.5,0],[1,0.75,0]];outlineConnect=0;fontColor=#232F3E;fillColor=#E7157B;strokeColor=#ffffff;dashed=0;verticalLabelPosition=bottom;verticalAlign=top;align=center;html=1;fontSize=12;fontStyle=0;aspect=fixed;shape=mxgraph.aws4.resourceIcon;resIcon=mxgraph.aws4.cloudwatch_2;" vertex="1" parent="aLhHGZbvKz11yxVPuM4n-1">
          <mxGeometry x="720" y="280" width="40" height="40" as="geometry" />
        </mxCell>
        <mxCell id="aLhHGZbvKz11yxVPuM4n-70" style="edgeStyle=orthogonalEdgeStyle;rounded=0;orthogonalLoop=1;jettySize=auto;html=1;entryX=0;entryY=0.5;entryDx=0;entryDy=0;entryPerimeter=0;" edge="1" parent="aLhHGZbvKz11yxVPuM4n-1" source="aLhHGZbvKz11yxVPuM4n-18" target="aLhHGZbvKz11yxVPuM4n-26">
          <mxGeometry relative="1" as="geometry">
            <Array as="points">
              <mxPoint x="60" y="535" />
              <mxPoint x="620" y="535" />
              <mxPoint x="620" y="500" />
            </Array>
          </mxGeometry>
        </mxCell>
        <mxCell id="aLhHGZbvKz11yxVPuM4n-88" value="" style="edgeStyle=orthogonalEdgeStyle;rounded=0;orthogonalLoop=1;jettySize=auto;html=1;" edge="1" parent="aLhHGZbvKz11yxVPuM4n-1" source="aLhHGZbvKz11yxVPuM4n-71" target="aLhHGZbvKz11yxVPuM4n-72">
          <mxGeometry relative="1" as="geometry" />
        </mxCell>
        <mxCell id="aLhHGZbvKz11yxVPuM4n-71" value="AWS Lambda&lt;div&gt;Contact Form&lt;/div&gt;" style="sketch=0;points=[[0,0,0],[0.25,0,0],[0.5,0,0],[0.75,0,0],[1,0,0],[0,1,0],[0.25,1,0],[0.5,1,0],[0.75,1,0],[1,1,0],[0,0.25,0],[0,0.5,0],[0,0.75,0],[1,0.25,0],[1,0.5,0],[1,0.75,0]];outlineConnect=0;fontColor=#232F3E;fillColor=#ED7100;strokeColor=#ffffff;dashed=0;verticalLabelPosition=bottom;verticalAlign=top;align=center;html=1;fontSize=12;fontStyle=0;aspect=fixed;shape=mxgraph.aws4.resourceIcon;resIcon=mxgraph.aws4.lambda;" vertex="1" parent="aLhHGZbvKz11yxVPuM4n-1">
          <mxGeometry x="720" y="40" width="40" height="40" as="geometry" />
        </mxCell>
        <mxCell id="aLhHGZbvKz11yxVPuM4n-72" value="Amazon SES" style="sketch=0;points=[[0,0,0],[0.25,0,0],[0.5,0,0],[0.75,0,0],[1,0,0],[0,1,0],[0.25,1,0],[0.5,1,0],[0.75,1,0],[1,1,0],[0,0.25,0],[0,0.5,0],[0,0.75,0],[1,0.25,0],[1,0.5,0],[1,0.75,0]];outlineConnect=0;fontColor=#232F3E;gradientColor=#4D72F3;gradientDirection=north;fillColor=#3334B9;strokeColor=#ffffff;dashed=0;verticalLabelPosition=bottom;verticalAlign=top;align=center;html=1;fontSize=12;fontStyle=0;aspect=fixed;shape=mxgraph.aws4.resourceIcon;resIcon=mxgraph.aws4.simple_email_service;" vertex="1" parent="aLhHGZbvKz11yxVPuM4n-1">
          <mxGeometry x="800" y="40" width="40" height="40" as="geometry" />
        </mxCell>
        <mxCell id="aLhHGZbvKz11yxVPuM4n-28" value="DynamoDB&lt;div&gt;UsersTable&lt;br&gt;&lt;/div&gt;" style="sketch=0;points=[[0,0,0],[0.25,0,0],[0.5,0,0],[0.75,0,0],[1,0,0],[0,1,0],[0.25,1,0],[0.5,1,0],[0.75,1,0],[1,1,0],[0,0.25,0],[0,0.5,0],[0,0.75,0],[1,0.25,0],[1,0.5,0],[1,0.75,0]];outlineConnect=0;fontColor=#232F3E;fillColor=#C925D1;strokeColor=#ffffff;dashed=0;verticalLabelPosition=bottom;verticalAlign=top;align=center;html=1;fontSize=12;fontStyle=0;aspect=fixed;shape=mxgraph.aws4.resourceIcon;resIcon=mxgraph.aws4.dynamodb;" vertex="1" parent="aLhHGZbvKz11yxVPuM4n-1">
          <mxGeometry x="720" y="440" width="40" height="40" as="geometry" />
        </mxCell>
        <mxCell id="aLhHGZbvKz11yxVPuM4n-30" value="DynamoDB&lt;div&gt;QueriesTable&lt;/div&gt;" style="sketch=0;points=[[0,0,0],[0.25,0,0],[0.5,0,0],[0.75,0,0],[1,0,0],[0,1,0],[0.25,1,0],[0.5,1,0],[0.75,1,0],[1,1,0],[0,0.25,0],[0,0.5,0],[0,0.75,0],[1,0.25,0],[1,0.5,0],[1,0.75,0]];outlineConnect=0;fontColor=#232F3E;fillColor=#C925D1;strokeColor=#ffffff;dashed=0;verticalLabelPosition=bottom;verticalAlign=top;align=center;html=1;fontSize=12;fontStyle=0;aspect=fixed;shape=mxgraph.aws4.resourceIcon;resIcon=mxgraph.aws4.dynamodb;" vertex="1" parent="aLhHGZbvKz11yxVPuM4n-1">
          <mxGeometry x="720" y="200" width="40" height="40" as="geometry" />
        </mxCell>
        <mxCell id="aLhHGZbvKz11yxVPuM4n-29" value="DynamoDB&lt;div&gt;ChatsTable&lt;br&gt;&lt;/div&gt;" style="sketch=0;points=[[0,0,0],[0.25,0,0],[0.5,0,0],[0.75,0,0],[1,0,0],[0,1,0],[0.25,1,0],[0.5,1,0],[0.75,1,0],[1,1,0],[0,0.25,0],[0,0.5,0],[0,0.75,0],[1,0.25,0],[1,0.5,0],[1,0.75,0]];outlineConnect=0;fontColor=#232F3E;fillColor=#C925D1;strokeColor=#ffffff;dashed=0;verticalLabelPosition=bottom;verticalAlign=top;align=center;html=1;fontSize=12;fontStyle=0;aspect=fixed;shape=mxgraph.aws4.resourceIcon;resIcon=mxgraph.aws4.dynamodb;" vertex="1" parent="aLhHGZbvKz11yxVPuM4n-1">
          <mxGeometry x="720" y="120" width="40" height="40" as="geometry" />
        </mxCell>
        <mxCell id="aLhHGZbvKz11yxVPuM4n-74" style="edgeStyle=orthogonalEdgeStyle;rounded=0;orthogonalLoop=1;jettySize=auto;html=1;entryX=0;entryY=0.5;entryDx=0;entryDy=0;entryPerimeter=0;" edge="1" parent="aLhHGZbvKz11yxVPuM4n-1" target="aLhHGZbvKz11yxVPuM4n-46">
          <mxGeometry relative="1" as="geometry">
            <mxPoint x="160" y="115" as="sourcePoint" />
            <Array as="points">
              <mxPoint x="160" y="115" />
              <mxPoint x="350" y="115" />
              <mxPoint x="350" y="180" />
            </Array>
          </mxGeometry>
        </mxCell>
        <mxCell id="aLhHGZbvKz11yxVPuM4n-75" style="edgeStyle=orthogonalEdgeStyle;rounded=0;orthogonalLoop=1;jettySize=auto;html=1;entryX=0;entryY=0.5;entryDx=0;entryDy=0;entryPerimeter=0;exitX=1;exitY=0.5;exitDx=0;exitDy=0;exitPerimeter=0;" edge="1" parent="aLhHGZbvKz11yxVPuM4n-1" source="aLhHGZbvKz11yxVPuM4n-13" target="aLhHGZbvKz11yxVPuM4n-55">
          <mxGeometry relative="1" as="geometry">
            <Array as="points">
              <mxPoint x="160" y="115" />
              <mxPoint x="350" y="115" />
              <mxPoint x="350" y="420" />
            </Array>
          </mxGeometry>
        </mxCell>
        <mxCell id="aLhHGZbvKz11yxVPuM4n-78" style="edgeStyle=orthogonalEdgeStyle;rounded=0;orthogonalLoop=1;jettySize=auto;html=1;entryX=0;entryY=0.5;entryDx=0;entryDy=0;entryPerimeter=0;" edge="1" parent="aLhHGZbvKz11yxVPuM4n-1" source="aLhHGZbvKz11yxVPuM4n-57" target="aLhHGZbvKz11yxVPuM4n-29">
          <mxGeometry relative="1" as="geometry" />
        </mxCell>
        <mxCell id="aLhHGZbvKz11yxVPuM4n-79" style="edgeStyle=orthogonalEdgeStyle;rounded=0;orthogonalLoop=1;jettySize=auto;html=1;entryX=0;entryY=0.75;entryDx=0;entryDy=0;entryPerimeter=0;" edge="1" parent="aLhHGZbvKz11yxVPuM4n-1" source="aLhHGZbvKz11yxVPuM4n-57" target="aLhHGZbvKz11yxVPuM4n-30">
          <mxGeometry relative="1" as="geometry" />
        </mxCell>
        <mxCell id="aLhHGZbvKz11yxVPuM4n-82" style="edgeStyle=orthogonalEdgeStyle;rounded=0;orthogonalLoop=1;jettySize=auto;html=1;entryX=0;entryY=0.5;entryDx=0;entryDy=0;entryPerimeter=0;" edge="1" parent="aLhHGZbvKz11yxVPuM4n-1" source="aLhHGZbvKz11yxVPuM4n-57" target="aLhHGZbvKz11yxVPuM4n-28">
          <mxGeometry relative="1" as="geometry" />
        </mxCell>
        <mxCell id="aLhHGZbvKz11yxVPuM4n-83" style="edgeStyle=orthogonalEdgeStyle;rounded=0;orthogonalLoop=1;jettySize=auto;html=1;entryX=1;entryY=0.5;entryDx=0;entryDy=0;entryPerimeter=0;" edge="1" parent="aLhHGZbvKz11yxVPuM4n-1" source="aLhHGZbvKz11yxVPuM4n-26" target="aLhHGZbvKz11yxVPuM4n-28">
          <mxGeometry relative="1" as="geometry" />
        </mxCell>
        <mxCell id="aLhHGZbvKz11yxVPuM4n-85" style="edgeStyle=orthogonalEdgeStyle;rounded=0;orthogonalLoop=1;jettySize=auto;html=1;entryX=1;entryY=0.5;entryDx=0;entryDy=0;entryPerimeter=0;" edge="1" parent="aLhHGZbvKz11yxVPuM4n-1" source="aLhHGZbvKz11yxVPuM4n-26" target="aLhHGZbvKz11yxVPuM4n-40">
          <mxGeometry relative="1" as="geometry" />
        </mxCell>
        <mxCell id="aLhHGZbvKz11yxVPuM4n-92" value="" style="edgeStyle=orthogonalEdgeStyle;rounded=0;orthogonalLoop=1;jettySize=auto;html=1;" edge="1" parent="aLhHGZbvKz11yxVPuM4n-1" source="aLhHGZbvKz11yxVPuM4n-90" target="aLhHGZbvKz11yxVPuM4n-71">
          <mxGeometry relative="1" as="geometry" />
        </mxCell>
        <mxCell id="aLhHGZbvKz11yxVPuM4n-90" value="Amazon API&lt;div&gt;Gateway&lt;/div&gt;" style="sketch=0;points=[[0,0,0],[0.25,0,0],[0.5,0,0],[0.75,0,0],[1,0,0],[0,1,0],[0.25,1,0],[0.5,1,0],[0.75,1,0],[1,1,0],[0,0.25,0],[0,0.5,0],[0,0.75,0],[1,0.25,0],[1,0.5,0],[1,0.75,0]];outlineConnect=0;fontColor=#232F3E;fillColor=#E7157B;strokeColor=#ffffff;dashed=0;verticalLabelPosition=bottom;verticalAlign=top;align=center;html=1;fontSize=12;fontStyle=0;aspect=fixed;shape=mxgraph.aws4.resourceIcon;resIcon=mxgraph.aws4.api_gateway;" vertex="1" parent="aLhHGZbvKz11yxVPuM4n-1">
          <mxGeometry x="640" y="40" width="40" height="40" as="geometry" />
        </mxCell>
        <mxCell id="aLhHGZbvKz11yxVPuM4n-91" style="edgeStyle=orthogonalEdgeStyle;rounded=0;orthogonalLoop=1;jettySize=auto;html=1;entryX=0;entryY=0.5;entryDx=0;entryDy=0;entryPerimeter=0;" edge="1" parent="aLhHGZbvKz11yxVPuM4n-1" source="aLhHGZbvKz11yxVPuM4n-57" target="aLhHGZbvKz11yxVPuM4n-90">
          <mxGeometry relative="1" as="geometry" />
        </mxCell>
        <mxCell id="aLhHGZbvKz11yxVPuM4n-69" style="edgeStyle=orthogonalEdgeStyle;rounded=0;orthogonalLoop=1;jettySize=auto;html=1;entryX=0;entryY=0.5;entryDx=0;entryDy=0;" edge="1" parent="aLhHGZbvKz11yxVPuM4n-1" source="aLhHGZbvKz11yxVPuM4n-20" target="aLhHGZbvKz11yxVPuM4n-51">
          <mxGeometry relative="1" as="geometry">
            <Array as="points">
              <mxPoint x="140" y="420" />
            </Array>
          </mxGeometry>
        </mxCell>
        <mxCell id="aLhHGZbvKz11yxVPuM4n-12" value="" style="edgeStyle=orthogonalEdgeStyle;rounded=0;orthogonalLoop=1;jettySize=auto;html=1;" edge="1" parent="1" source="aLhHGZbvKz11yxVPuM4n-5" target="aLhHGZbvKz11yxVPuM4n-8">
          <mxGeometry relative="1" as="geometry" />
        </mxCell>
        <mxCell id="aLhHGZbvKz11yxVPuM4n-5" value="Developers" style="sketch=0;outlineConnect=0;fontColor=#232F3E;gradientColor=none;fillColor=#232F3D;strokeColor=none;dashed=0;verticalLabelPosition=bottom;verticalAlign=top;align=center;html=1;fontSize=12;fontStyle=0;aspect=fixed;pointerEvents=1;shape=mxgraph.aws4.users;" vertex="1" parent="1">
          <mxGeometry x="40" y="40" width="40" height="40" as="geometry" />
        </mxCell>
        <mxCell id="aLhHGZbvKz11yxVPuM4n-6" value="CI/CD" style="fillColor=none;strokeColor=#5A6C86;dashed=1;verticalAlign=top;fontStyle=0;fontColor=#5A6C86;whiteSpace=wrap;html=1;" vertex="1" parent="1">
          <mxGeometry x="120" y="10" width="200" height="120" as="geometry" />
        </mxCell>
        <mxCell id="aLhHGZbvKz11yxVPuM4n-11" value="" style="edgeStyle=orthogonalEdgeStyle;rounded=0;orthogonalLoop=1;jettySize=auto;html=1;" edge="1" parent="1" source="aLhHGZbvKz11yxVPuM4n-8" target="aLhHGZbvKz11yxVPuM4n-10">
          <mxGeometry relative="1" as="geometry" />
        </mxCell>
        <mxCell id="aLhHGZbvKz11yxVPuM4n-8" value="GitHub&lt;div&gt;Repository&lt;/div&gt;" style="shape=image;html=1;verticalAlign=top;verticalLabelPosition=bottom;labelBackgroundColor=#ffffff;imageAspect=0;aspect=fixed;image=https://cdn4.iconfinder.com/data/icons/ionicons/512/icon-social-github-128.png" vertex="1" parent="1">
          <mxGeometry x="160" y="40" width="40" height="40" as="geometry" />
        </mxCell>
        <mxCell id="aLhHGZbvKz11yxVPuM4n-14" value="" style="edgeStyle=orthogonalEdgeStyle;rounded=0;orthogonalLoop=1;jettySize=auto;html=1;" edge="1" parent="1" source="aLhHGZbvKz11yxVPuM4n-10" target="aLhHGZbvKz11yxVPuM4n-13">
          <mxGeometry relative="1" as="geometry" />
        </mxCell>
        <mxCell id="aLhHGZbvKz11yxVPuM4n-10" value="GitHub&#xa;Actions" style="shape=image;verticalLabelPosition=bottom;labelBackgroundColor=default;verticalAlign=top;aspect=fixed;imageAspect=0;image=data:image/png,iVBORw0KGgoAAAANSUhEUgAACAAAAAgACAMAAACFeSMCAAAABGdBTUEAALGPC/xhBQAAACBjSFJNAAB6JgAAgIQAAPoAAACA6AAAdTAAAOpgAAA6mAAAF3CculE8AAAAB3RJTUUH5QEfDygPefm67gAAAwBQTFRFAAAAAAAAAAAAAAAAAAAAAAAAAAAAAAAAAAAAAAAAAAAAAAAAAAAAAAAAAAAAAAAAAAAAAAAAAAAAAAAAAAAAAAAAAAAAAAAAAAAAAAAAAAAAAAAAAAAAAAAAAAAAAAAAAAAAAAAAAAAAAAAAAAAAAAAAAAAAAAAAAAAAAAAAAAAAAAAAAAAAAAAAAAAAAAAAAAAAAAAAAAAAAAAAAAAAAAAAAAAAAAAAAAAAAAAAAAAAAAAAAAAAAAAAAAAAAAAAAAAAAAAAAAAAAAAAAAAAAAAAAAAAAAAAAAAAAAAAAAAAAAAAAAAAAAAAAAAAAAAAAAAAAAAAAAAAAAAAAAAAAAAAAAAAAAAAAAAAAAAAAAAAAAAAAAAAAAAAAAAAAAAAAAAAAAAAAAAAAAAAAAAAAAAAAAAAAAAAAAAAAAAAAAAAAAAAAAAAAAAAAAAAAAAAAAAAAAAAAAAAAAAAAAAAAAAAAAAAAAAAAAAAAAAAAAAAAAAAAAAAAAAAAAAAAAAAAAAAAAAAAAAAAAAAAAAAAAAAAAAAAAAAAAAAAAAAAAAAAAAAAAAAAAAAAAAAAAAAAAAAAAAAAAAAAAAAAAAAAAAAAAAAAAAAAAAAAAAAAAAAAAAAAAAAAAAAAAAAAAAAAAAAAAAAAAAAAAAAAAAAAAAAAAAAAAAAAAAAAAAAAAAAAAAAAAAAAAAAAAAAAAAAAAAAAAAAAAAAAAAAAAAAAAAAAAAAAAAAAAAAAAAAAAAAAAAAAAAAAAAAAAAAAAAAAAAAAAAAAAAAAAAAAAAAAAAAAAAAAAAAAAAAAAAAAAAAAAAAAAAAAAAAAAAAAAAAAAAAAAAAAAAAAAAAAAAAAAAAAAAAAAAAAAAAAAAAAAAAAAAAAAAAAAAAAAAAAAAAAAAAAAAAAAAAAAAAAAAAAAAAAAAAAAAAAAAAAAAAAAAAAAAAAAAAAAAAAAAAAAAAAAAAAAAAAAAAAAAAAAAAAAAAAAAAAAAAAAAAAAAAAAAAAAAAAAAAAAAAAAAAAAAAszD0iAAAAP90Uk5TAAECAwQFBgcICQoLDA0ODxAREhMUFRYXGBkaGxwdHh8gISIjJCUmJygpKissLS4vMDEyMzQ1Njc4OTo7PD0+P0BBQkNERUZHSElKS0xNTk9QUVJTVFVWV1hZWltcXV5fYGFiY2RlZmdoaWprbG1ub3BxcnN0dXZ3eHl6e3x9fn+AgYKDhIWGh4iJiouMjY6PkJGSk5SVlpeYmZqbnJ2en6ChoqOkpaanqKmqq6ytrq+wsbKztLW2t7i5uru8vb6/wMHCw8TFxsfIycrLzM3Oz9DR0tPU1dbX2Nna29zd3t/g4eLj5OXm5+jp6uvs7e7v8PHy8/T19vf4+fr7/P3+6wjZNQAAAAFiS0dE/6UH8sUAAUgeSURBVBgZ7MEHgBXl3S7w57QtLAssDKz0soqIYANBBAVFYkNFFEWROMaGBcWowagRC1FU0uxdUYiKwYIdLGADF1EHECnKUpS+LOzO1nPO/G/uTb77pVgo88687znP7wfSQaJRYYuW7Tt12rt79+6Dzj33vJvvu+++t0v/aXFS/pf7Vek/zJtx3333TTr33HPP6f53nTu1a9mycaMcEBERkeYihS07d+8x6OiTR1w6YdJT0+ctWbIhJbtn+ZKPpk+fOOHKESN+Mahfz67FzUBERES6ad653/HnXDbh3idfeX9u2dpq8dGmsqUfvv30QxOuOPeEAfsVJ0BEREShK+p+wpnjJ097Y86XKzdUeqJQ1eaViz5+e8aTE648pVcTEBERUShi7YeOe3zO8rINmyvrPAlMyt2+cc2yTx+58cxDQURERMGIFrRoX9J79G3PLZDQpdbOfuzCE/btUFwQBRERESmS36HnoNG3PvXpGtFJ1cKXbzvn+N4lRSAiIiJ/xVr1HTZ28owPy0RL6W0LX334urOO7loAIiIi8kVO99NvfPKtL8qqRG/J9Us/fPnuX/bKBxEREe2Z/S56pLRsk5sSQ9RuXbN06uW9GoOIiIh2XaxxcclR1766IS1G2j7vwdP37dAiB0RERLSzGu8z8Nw7XisTs1V9PuWKIT2LoiAiIqKfE2kz5NI/vVnWIJnA2/jhw+NO6JwAERER/bj8A869d/ayHZ5kEHfl+1OuPqoZiIiI6Ic0GnzPvLKt9ZJ5Uju+Wzrl/A4gIiKifxErbNfv1jmuJxnN++LuIzs1j4OIiIiASPGhZ9/5aa1kg+TSxy8Y0DEXRERE2S3WZsi4KV9WSxZZ+eJtZx2cABERUdZqPeIPs5e5km2S60tfuKRHAkRERFmo6Mznl22qlSxVUfbK+a1ARESUTWJFnUfMrPAku3mp2VccUpwLIiKirNC8z6hHvk0L/d22mVcO7JQLIiKiDNeo94UPOTVC/8Mre/mW41qCiIgog+19+TOfbfOE/k39ijeu75EAERFRRio4+uEVFSmhH1C16pXzC0BERJRhclr1vGuZJ/TjvO1TTm3fOAIiIqIMEbEOv+SlSqGfU7vwjpM7xEBERJQBEl0venxZndBO2T7j2iMag4iIyHAFQ+75YJvQzqte/PSoIhARERmskf3B93VCuya5ZcE1HUFERGSkuNX/j1s8od3h1bw9rG0jEBERGSZ//3OeLRfafd78649oFQUREZExIs2PvW1utdCeSX375Og2ICIiMkSzS2YsrxPywYY3ri2JgYiISH/Fl8/flhbyh7fjqz/vCyIiIq1Fm+3/lw2ekJ+81PPHt06AiIhIU7F2JzywUch/te+cf0AeiIiIdFRy4fQNaSEl6j++9bA8EBER6abr+Pe2CKlT/8XkI3NARESkkUjJxEWVnpBSNeum7Q8iIiJNRAp7PFDlCann1bw2tGUUREREoYs0PfLOdZ5QQNwXT+sSAxERUbgaD7v/65RQgLbPvLhLFEREROHJP+7pMqGAeVtnXd4SREREIYn1fe77pFDwvIoFI/NBREQUvGhRv5fSnlBIkp+f1yEBIiKiQEVanfjYdqEw1c85v0sMREREwckZ/PB3QmGrnXlBGxAREQUk0ffPS5JC4fM2v3RWPoiIiILQ/p6VdUJ6SG1+ZxCIiIhUy+9w0yZPSCNVTw8ojICIiEidnH2vWuoJaWbTXYfHQUREpErxJbMqhTS05Kr94yAiIlIhZ/DMLUJ6qvrgSgtERET+K3lojSekK6/i49NARETkr3jJreWekNZSr/RvHAEREZFfop3PWSykv+8n9s4BERGRP5qe8aIrZIJk6bg2ICIi8sMhj65JCxli+4snNgIREdGeyrtkZb2QOVJrHuoCIiKiPRFpNvTjBiGzeJtvaB0DERHR7or3e6hcyEBzhreKgoiIaLd0HvuFkJk2PtQ/ASIiol3X+PSZ24VMVf/5NfkgIiLaVW0e25gSMtj2V3qBiIhoV0SKRm7yhMzmbb61SwxEREQ7q9Hhj1cJZYCPhheBiIho5+z1m0UpoYyw+Q8HxUFERLQT+k2vEMoUdR9fWgQiIqKf0/y6ZUmhzOGVP98FREREP6nxwLlpocziVYxqHgEREdGPie0zcaNQ5ql5+rA8EBER/bCCoTNTQpkotfDSFiAiIvohe928PCmUoTZO6QIiIqL/tt8rlUKZq6F0eA6IiIj+TaTo8i2eUEarerxHAkRERP8r99DHq4Qy3mejC0FERPQ/mtqlKaEssPn3+4GIiOgfOj+8Tig71L4+OAYiIqK/G/RhnVC2SH4ztgBERJT1Im1u2eoJZZH039okQERE2S3e59l6oSyzYHhTEBFRNmty9nyhrOOturlzBERElLXa3braE8pCO17qBSIiylLRA2dUekJZKbnqRBARUVYqOKvMkwyXqq2p3rp183fr1qxYMe+5af/XkzeP+09X3T7t/3r58xUrVq9bt3Hr1orqmpq0ZLiqe9vHQERE2Sba+aYdkrHcLWVflc555aWn75x4y8iRQw/p0QU7JdK2R49jzhx54YSJtz/76vvzln6zZUdKMlXyrUE5ICKi7JJ75HPVknmSm7+ZP2fqg7+/+oJTBvZoG8WeyGmz76ATLhh78x+mvvTBwtVVkoEWjs4BERFlk7xfltZLRvHWl/5t8sUjTzzqkB7FTeCnnOKOPfsMHn7pnVPnlEmGWffbliAioizyu01pyRipxS/deVnv/Trt1SQOdRJNWnXY99Dh4x/8YoNkjorHO4OIiLJErPO0pJgvXbVl3ddP3jz84Px4LBpFMCLRWDxh9bp8yoLVm3c0iPnSnx2bCyIiygb5x3yYFsPVrnPenzZ+WPcYwhJvP3TsA29+9m2FmG7tpYUgIqLM12jMIjFa5aJXH7zujH6tEb7CA4deNnn6nNUpMVndrR1BRESZLm/yBjFX3WePXn1qvy6F0EeibY/BFzz44VYxV82z/WIgIqKMttfUajGUt/75sYd1bpEL/cSad9x/xH1fi6nqPzsxDiIiyly5R8/3xDypHesXPX3+AYlYFPqKxBItT7xz/rqtdZ4Yx6sc0xhERJSpGl+4UozjLv/g6Sv6FsIMkW6nTX5raZWY55YOICKizNR8YrkYpnLR1Kt/0TEOozQfeM2jH5V7YpbqJw+IgYiIMlCne2rFKMkP/nh2v2IYKNLswJPGv7VVjFLz5oA4iIgo4+z9XI0YxJ1/y6Edm8ZgrPx2B5395GoxSMPXR4OIiDJMYsgXnhiioXz1tDPaJ6IwXSSWO/DBRVtqxRTJC5uAiIgySd7Zq8UQ6+c/dlbrCDJG82GT319VJ2aovLNDFERElDGaXP69GKHiwwdHd0sgs0Ran3Tby9+JEXY8tV8ERESUIdrfuklMsGTyiAMKkYlyOh17/awdYoCaWYeCiIgyQ8cnKz3RXsULo7o2jSJj5bfrf92Xor/04r4gIqIMED1gblr05lWve/m0lvEIMlw0Z+BjK7d7ornvT8sDERGZLnbEt6K3dNmsCftFkSU6XPTS8hrR26qLi0BERGYrGPa5Jzqr+fy+YXshm+QPmfD6Zk90tn58CxARkcny7eVp0VjFcxf1KUS2ydl76J1LRWcbH84HERGZK/e8NZ7oa+1dfYoTyEpNup39Tq3oq/a+IhARkakKbk2KrurXvTaiaQzZK5I49LF1NZ5oKvnmflEQEZGR2t2YFE3tWPhA7xxku0i337+32RM9JV/tlwARERmo5KEq0ZK37a1rDoqCgFjHXz21RjQ1fzCIiMg4ka6PV4qWtr9wZtcE6J9aHn/X8pRo6cszQEREpun8XrXoaNMTA/eKgv5XpEnXiz8XLa08A0REZJRIF8cT7Xg7lo/fJx4B/Ydo7qnvlqdEP2vsPBARkTlye8/xRDepTe+NbQ36Yc3OePZb0c8qOx9ERGSK3JM+ahDdbJl6Xqco6Ec1PunptaKdVWNyQUREZogf/0VaNFM1Y3gb0E9recLk1Z5oZsP4XBARkRH6L0+LXupmndQ6Avo5kaYH/7FaNLN5fC6IiEh/8QGbRCup8llHJyKgnRIrvunrak90UjGhGYiISHe5xy8XnTR8++LIOGgXlNziJEUnFb9rCSIi0lvuSV+kRSPf3je0CLSLBtyzNCUa2XavBSIi0lneeUvSoo+qGccWgXZdk6PuKvNEHw33twQREWns3E2ij9Qnw1tHQLsj0vTwaaIR934LRESkq7xza0Ub1aVnFUZAuyuS6PvClpToYvuEZiAiIj3l/nKj6KJ64S1FoD2Td+KLG0QXFb8rAhER6Sj3pC/SooeUc/uBcdAeK/7lazWiiW0354KIiPQTP/6LtOhh++39CkF+iHS5enFK9LBjfC6IiEg7A5anRQsNMwYVgvyS3+OPruhh8/hcEBGRXuL9N4kWqj88oVEE5KN4j9e2pUUHFTc1AxER6ST3+OWig/olE5qB/NZo9HvbPdFAxe+KQERE+sg96Yu0aOD7R46MgfwX6za+VHSw7eY8EBGRLiK9P0pL+JKzT28VASmRd+j934sGdowFERHposucBgnf1l93iIOUaX7CB0kJ35ozQUREWoh0djwJW7r8ie4xkEqRwqtWpiR0a36ZAyIi0kDX9zwJW+VbI/JBynWbsUlCt2RoAkREFLqSx6slbF/f0BEUhJaXflwnYZs/OAIiIgpZu4cqJWQ1Lx6bBwpGzkF/3iJh+2IfEBFRuApurJKQbfhNhxgoMM2HLJWwvdoGREQUptxbkxKuyrcOiIGCFGlxw7qkhCr5ZtcIiIgoNPnnJSVU9UuuSoCCFh/4QpWEKjmlfQRERBSSAnuNhKriif45oBAUX79GQlV1X2sQEVE4YsOWexKmZRe3AYUj55TXGiRMVfdGQUREYYge8XlawvRyz1xQWGKd7qiQMLlXgIiIwnDAt56EJ7nsoiagMMWP+7hBQrRpVA6IiChwHedKiGpeOiIOClnLJ9dLiFacnAAREQWs/VNpCc/G2zqCwtf4go/rJDSpuf1iICKiQDW5tVLCM/+cfJAOcg560JXQpF7rAiIiClLe5Zs8CUv1lIMTIE1Yv6yW0NT/LQYiIgpO4uzvJSzpVec3joC0ET14bq2EJf2XAhARUWCGrJawuO8cBtJLx3s2exKSyuubgoiIArL3FxKWtZM6gHTTfMwSCct3v8oDEREFotNznoTDWzKyGUg/8SPflbB8dUoOiIgoAM3vqZGQvH9gAqSlbg/WSzjSpfuDiIjUazyxVkLhVT5cCNJV/q+WpSQU3twiEBGRarkXlksokl+PawrS2BFvJCUc9zQDEREpdvRKCUXy/ZMbgbTW4ZEdEort4wpARERK7TVfwvHkwTGQ5lr8Zq2EwfvmzDiIiEihvKmehKHu9tYg/RUMXyphSC/oCyIiUqfR5GoJQWrZiFyQCaIlsxskBN47XUFERKrkj9kgIWh4/UiQKQqmlEsYnmoCIiJSI3bMIglBwxP7gMzRdPxKCUHdVQkQEZESnT+UEJTf0QZkksZnLvIkeGvPABERKTEtLcFbd3kRyCy5gz6R4KVL+4OIiPyXd1NSApdeeGIMZJqI9UGtBM57c/8IiIjIZ7m/3CSBS715MMhE1r2bJXAN97YEERH5K3pkaVqCVvNCe5CZWl6/zpOgbRsbBRER+arzc/UStMo/d4mADNV89FoJ3Nq+ICIiPxXcVC1BK7+tOAIyVm7f1RK4t9uAiIj8Ez1rhwRtzSVxkMkivRbWS8BqHyoCERH55sAyCVhqxWCQ4aIHvFAjAdt8ZSMQEZFP2s3wJFipd0+IgYzXY0qNBGzRsXEQEZEvmtxaKcFKvdsvDsoAne6WgKXe3BtEROSL01Z7EqjUe4fGQRmh+f21Eqz6B2MgIqI9F+kz35NANUwvioAyROPLtngSqNQZMRAR0R5r86wEa8fzRaDM0fiKsrQE6tt+ICKiPXZLvQRqy+S2oExSeNbXEqjkzC4gIqI9dNRWCdS224tBmSU+dIMEqvLWJiAioj3S+UNPglRzV3NQpomdvl4CtXpoFEREtAeaPlwnQaqamABlnvjJy1MSIG9hdxAR0e7LPW+dBGntNXFQJoqf+ElSgvRALoiIaHdFDi2VIK26qACUoQ6fI0GqGwEiItpdRY+nJEDrLmoCyli9PpcgfXkQiIhoN42tkgBt/1UBKIP1XygBqn/CAhER7Zb9tkiAtp8ZA2WySJ8PkxKciqtzQEREu2GvmZ4EZ92vYqAM1++9pARnybFxEBHRLiu4uVKCs+qiAlDG6z9HAvRqJxAR0S47drkEZ+1FTUBZoNfnEpza22IgIqJdtPcrSQlM1TUFoKzQf6EEZ9tBICKiXdN4YkoCUzMxDsoOkYFL0hKYuS1BRES7ZNBGCcy2uxKgbBE/bUlaguJOaAQiItoFzedKYLbc3hyUPeKnfy2BWXEsiIhoF1yXlqDsmFwMyibx02slKMlp7UBERDut3zIJSsPzbUHZJefqWglK5aW5ICKinbTX9KQEJDW9CJRtCi7b6klAynqDiIh2TqPfVEhAUu8VgbJPwbVbJShvNAYREe2MSP/FEpDUu4dGQFmozeQqCcpoEBHRzih6PCXBSL3bLw7KSns9LEH58iAQEdFOGFklAVlxQhyUpYrnSkDqHykEERH9rDabJCBrBsdAWavz+ykJxpZLYiAiop/R+DFPglF+CSiLRfvPT0kw5h4UARER/bTTN0owKm+Lg7JZ7KSlngQiOakJiIjoJ3WemZJA1Py5GJTd8s/cJMH47qgIiIjoJ8THbpdApF7oEgFludwrJCAz4yAioh8X6felBCL9ZvsItBYvKCru0OHQU4afdd2kSU+/++6MP06aeOnw4V3atCwqzAX5I35LnQQidV4ERET0o5o9JMFYeDD0ldOyS5/jfnXnzMXy37wtn8189Nohh3ZrlQDtuRaP10kglu8NIiL6USeVSyDWnQhdtRx0/k2PvbayTn5K3Yo5T9xwxsGNQXuq29tpCULNHwpAREQ/Iu9jCUT55THoKNLqxAkzluyQneJtmPfsdUNagfZIdNBnaQnCyuNAREQ/4pIGCULDHUXQUKsT7/9irevJLqhc/cltvXJAeyAxcpMEIflMWxAR0Q86ZKUEoeGJNtBNjjVwysbalOwyL1n91Y0HFSVAuyt2QY0EofriHBAR0Q9o+mi9BCD1+j7QS6RJz4tnyx5wX7f3zwXtrrtrJAif9QQREf236BlrJAjLjoReWoz444J62TPVn/ymdx5o97R/PiVBmBwDERH9l84vpSUAdSOgleLzp38nPqgtnXxoArQ7or3nShC2HAYiIvpP8XNcCcLtudBI4TmzN3vij5oVUw8D7Y7EiFUShBfyQURE/6FksQQg+WRraCPS5KgFdZ74J739nn1zQbsudsVWCUD5uVEQEdG/u1UCkHz/YGijsP9TDeK3FVd3i4F2Wd69SVEv/d7eICKif7NfuajnfX1yDJqI9bx5eVr81zD73FagXdbqHQlAxbV5ICKif5HzuCfqVY5rBE3knv+RK2psnnpMHLSrBi6TAMw7GERE9C+OWSMBeLgpNLHPk5tEmeSKG1uAdlGOXS7q1U1oDCIi+v+KZ3qinFfaBFqINB3xeUpUalhwVAFo1zS+xRX1Nh4KIiL6HzmXbBH1lhwIPex3b6WoVnd3jzzQLimeUi/qPZcHIiL6p31niXprRyagg/jgtyQAydILWkVAu+LAD0S9uiNBRET/kP/rSlHOndQMOig8z0lLINY/dxholxxVK+rNaAIiIvp/OiwV5dLvdIAOrAnr0hKQ1Nfjm4J2QWyCqLflHBAR0f9zkyfKrToMOmj/YoMEqOb9YxtFQDut9d9Sopr3zl4gIqK/a79JlKs+HxqI9XxTArZlUo8YaKf1+cIT1cqvygERESFxryfKTWmM8MUGfpKWwM0d1RK0s/LHbBDl5vQAERGh70pRbv7BEYQu74QPkxI87/tH+yVAO6nVg7WiWtXleSAiyno5f6kT1Taek0Do4qcsT0oo6pZcnQ/aSV0WiXJL9gERUbaLDP5KVKu5LR+hi5y01ZOQePVv982PgHZGpK8rqnm3x0BElOVaPZwUxZIvdUToYn3KJEybJnRPgHbKTTWi2tb2ICLKbtETvxPVlh2B0MUGfpKWUNXNPq8JaGe0mpES1e4AEVF2K3pclLsojrDFBn6YlLBtfLgHaCfEjv5SVFuxH4iIslq/HaLay00Qui4zkxK+hgXnF4B+Xt6vt4litZNARJTNYi+Last6InTFL6VEB17d633yQD+rxTMNotiXfUFElMX6pkWxiotzEbZGfxJtbLuhYwz0c/osFsXq7mgEIqKslf+8J2rVP9EGYcu7pFb0kXzxtKagn3NBvSj2RV8QEWWt474XxZb0R+hO+lZ04q2+t2cU9NMavSyK1f+uMYiIslTjp5OiVuVVOQjb/m+lRC+1Cy8C/Yw+q0SxZV1BRJSdIqeWiWJvJRC2Vg+lRDde9fQD80A/Je+qOlHLuz0GIqKs1PR+UWzDAQhbztg60VHZtXtHQT+hw1+TotbW9iAiykaRI78WtWp+E0PYDlsleqp+9dQC0E845mtR7AYQEWWjwjtTotaLHRC23FdFW2V37gf6cfk3VopaC9uCiCgL9Vgnan19bAxhu8wVfVXPPaMR6Ee1mCVqVV4FIqLsE3nQE6Uqb8hDyCIHLhKdpWue6ZkA/Zg+rijlfbIviIiyTkmVKJV+qyPC1uqpBtHcugs7RkE/4raUKLXj2gSIiLLNRE+UKh+BsMXPWS/aq/7b8QWgH1ZSKmq9vjeIiLJM10Wi1hP5CFunmWKA9PI724F+UI69VZQqPycOIqLsMr5SlNraHWFLXFAtRnBLh4J+UJu/ilrP7QUioqxS8p4nKiV/HUPY2nwhpqiY0iMB+m+RIUtFqcpjIiAiyiKxC7eIUrM7IHS/E4M4F7cB/becSdWi1IsJEBFlkfbTRanvT48jbJ3Wiknqnj4mH/RfSj4WpXbsDyKi7BE9YYOoVP9IK4TuN3ViFO+rm7qA/ssZnij1ZxARZY9mD6ZFpSVHRhC2Dh95YhZvx7vHxkH/If91UWpFCYiIssb+G0Wl6gkxhC16zXYxTrr6gQ4J0L/rs1VUqrk9CiKibPEXUerDZghdl7fFRN6Xdpso6F8V3l4vKn2yN4iIskTxBlHJPQGhi56zWcxUPmVIAvSvDpwnKpVfFgMRUXYY64lKzzVC6KyHxVTJJeOLQf8i74otolD62bYgIsoKzeaLStsHRRC6Q5aJuba/eVQC9L86vCsqfXcciIiyQeTSbaJQ6vZChC5nbFoMlt58d0kM9D8iozaJQt5dTUBElAWaz0iLQk4/hK/Fp2K4r860QP8j7yVRacUBICLKAscuF4Wqby9E+AbUiekq7z0sB/RPR1WKStfEQESU8fJvqxOFFh4IDdwl5qtfeE1L0D8knhaVljQFEVHG6/GBKFR9SxwaWCSZoGLWANA/9K0QhVLHg4go08XPqRaFSouggYFVkhG8it+2iYP+rvCOlCj0WgxERBnOek4USp0FHUyolwyR+mREywgI6LVQFNrYF0REGa5/uSj0SSE0UDjbk4yx5f4BIKDxTVWiTu1dcRARZbY/ikJVwyPQQO9lkkEaFl7cHIQen4g63twuICLKaI22iEIzWkMH522STOJtff6wGLJe/PpKUWfTeSAiymjneaLOt8dGoIHoX5KSWVLf3dQ6hmy314eijjelJYiIMljBB6JOw31F0EHbmZJ5Pj6xObLdqWlR59shERARZa5ffC/qfDsUWuizQDLQ+rsPzkF2y10h6iRvaAQiooyVuKdOlEm9WAQtnLFRMlH1JxcXIbuNFYU+7gwioozV9UNRp3wk9HB5SjLT5he7Iqt1+VzUqTs5AiKiDBW5aJuoMysOLRTdK5kqve66VjFkr5wxDaLOswkQEWUo63FRp+5o6KHddMlcDW+fWIjs1e1dUWdrGxARZajDl4k6sxLQQ/d5ksm+v2N/ZK2cX+8QdcaAiCgz5VxSJ8pUnRSBHvqtl4yWeve8ImSr/T4Sdd7PBRFRRmr1sqgzozU0MTgpmS296dFuEWSn+PWVoszGPiAiykgHVIoyW4ZHoIfYaMl4yY1jmkaRlVp/KcrU3hEFEVEmuluUSU1tA03kXiNZIP3G4KbISlekRZmPOoKIKAMVLBNlNoyGLhpNkmyQXnVbtyiyUIf1osz3Z4OIKAMd7Ykq3jvtoYvCpyU7uO+dk4csdIcok/xTAYiIMs/DosyOsVHootlrki2+f6Arss8BG0SZeQeDiCjj7L1ClFneGtqwvpCskfz6klYRZJkmf0mLKjXnREFElGnGVogy46EPy5EsUv/yEY2QZQatFWWesEBElGEaPZMSVTbtA31YjmSVleP3iSGrtHk6Laos2xdERBmm92eizBNx6MNyJLu4r55egGwSPW+TqJIcGQURUWa5cJuosn1gBPqwHMkyqXWPtkE26fCOKDM1ASKijNL8IU8U8V7YCxppuVL8l97oeqKv5KozCiPIGpHfVooqFU1BRJRR+jiiyrYzo9CI5Yj/3CsvKa0TjVVP7d8IWaPjYlHmPBARZZLYqBpR5a2u0InliP9cO977gQ2is69/W4KscbcnqrydABFRBil6RFTZcU0COrEc8Z9rAy3O/KhBNFbzxpAcZIlu1aLK+p4gIsognb8VVRYeBK1YjvjPtQHE9r99i2jMW3l3O2SH2HOiyo6LQESUQc5IiyL1D0ShFcsR/7k2/i6S23dWtWisYdHIZsgKg+tFkdSzcRARZY6Zosq63tCL5Yj/XBv/kH/N1w2isdq/9sxDFmg5Q1Rx+oCIKGMUVYgqr+VAL5Yj/nNt/FOs/xMbRWOec3mnKDJezkV1okj5GBARZYwzPVFlBDRjOeI/18b/12r0BynR2LYXTshBxjtkoSiSvrcARESZ4nlRZW1TaMZyxH+ujf8V3/svNaKxZNndLZDpmj0gqsztCSKiDNF6mahyVwyasRzxn2vjX+UP+rDGE33VLzilIIKMFhmxVhSpOD0CIqLMMGKTKFLRB7qxHPGfa+PfWb9xUqKx8gcOzUNGa/+GJ4pMbgoioowQ+0OtKPJcMXRjOeI/18Z/SPSbul10tuDKVshoN1aJIqUlICLKCG1niyI1FyWgG8sR/7k2/kvxpZ8mRWM7nh4SRwbrVSaKVA2MgIgoE/ximSjyeR9ox3LEf66N/5Z7yL3bRWPJ5Te2ROZKvOCJItfEQESUASLj60SN9H2F0I7liP9cGz8gkj94Xq1orG7+0fnIWCclRZG5uSAiygDFU0SRsmHQj+WI/1wbP6z5bd82iMaSd3fPQ6b6VlRpCyKiDHDol6KGN2sv6MdyxH+ujR+Rf+yzWz3RV3LBBcURZKaJosr5ICIyX+zsalGjegI0ZDniP9fGj+pwwWLR2fq/9kdm6rVVFHkeRETmK7xLFFm3HzRkOeI/18aPyzn4oTrRWOrr65oiE7WYJoqsLAIRkfHal4oiL0ehIcsR/7k2fkrjU0vrRGPV7/4iP4KMExudFDXKTwERkfH61Yoip0FHliP+c238tLaTvhGdbZ3UI4aMc/Bnokbt5CiIiEx3myhS0RI6shzxn2vj55zwSoXo7KOzWyLTWI+KInOKQURkurmiyAtx6MhyxH+ujZ8TaX/N0rRobP0jh+cgs0THVIgaSweCiMhwjVxRZFQEOrIc8Z9r4+cV9H6mXjRWt+jqAmSWwz4XNbZeDCIiwx3jiRqf7Q0tWY74z7WxEyKNTlpWJ/ryamf1zosggzR6Li1KeA8VgojIbPeIIpObQkuWI/5zbeyUSKe716REY1tv2i+BDDJqs6jxbncQERktf56oUTEiCi1ZjvjPtbGTCk59yRWN1c0+tykyR4clokbZEBARGe2AMlHjwwOgJ8sR/7k2dlqXa78RnW18pCcyxxOeKFF/URxERCazt4oaDxZCT5Yj/nNt7LxGRz5bLRprKL2gAJni1JSo8XALEBEZLHJfvSixfjQ0ZTniP9fGLog0G72kQfTlVb/aOxeZIbFJ1Ph8bxARGazNbFFjfjdoynLEf66NXVPywPdp0di2mzrEkBEeFTXqBoCIyGBDlokSDY8loCnLEf+5NnZRYvSbrmgs/eLwZsgEQ5OixrUxEBGZ69IdokT5WdCV5Yj/XBu7Ktbtt996oi9v9V8OjMF87b8SNV7OARGRsRr/yRMlVreGrixH/Ofa2HUFh88UndV+dgnM1/R+UWN9PoiIjLXPm6LGtAh0ZTniP9fGbog0u2RVg+jLc5/vkQvDxc5JihJeLxARGWtgmahxBrRlOeI/18bu6frId2nR2JprS2IwW6/PRY1rQURkqti5DaKE2x7ashzxn2tjNxWc+V6DaKz61dMKYLTWU0WNGSAiMlXjO0SNOXFoy3LEf66N3XbAxHWis9WT9oPJ4r+tFyWWFoKIyFB7vS5q3BSFtixH/Ofa2H2Fx75WLxqrnnNmAQx2SpkosakfiIgMVVImSiQPhb4sR/zn2tgDUeuidSnRV9qd0jMOY3WcLUpUXQUiIkMdJWq83wH6shzxn2tjz3SbvjEtGttwfocoTPWXelEhNTUKIiIz/UbUmFQIfVmO+M+1sYeaXjCnRjRWM+P4xjDU6M2ixNxiEBGZ6TVRovLsGPRlOeI/18aeShx423rRWHr5HR1hpk7LRYklh4OIyEwbRIlF/aAxyxH/uTb2XNNfvC86c0tPgpFir3miwsZzQURkpP3SosTUYmjMcsR/rg0fRNtcX5YUjZU/1T0BA41JiwoNt0RBRGSii0UJ92rozHLEf64Nf/R5ZovobPFFbWGe9tWixLRWICIy0aOixPJfQGeWI/5zbfikyWUfJ0Vj9VMH58M4paLE+/uDiMhAOaWixAcdoTPLEf+5NvwS7fWXDaIxb+nvSmCayaLEt4NBRGSg/ctEhdTTcejMcsR/rg3fRJoPm5cWfXk7Zh+fgFlOFiXqR4GIyEAjNosKO66A1ixH/Ofa8FGs6Y0VKdFXuvKhtnGYpGSjKHF7IYiIzPM7V1RY3xdasxzxn2vDV9HeL5Z7oi9v0bmtozBHqzdEiZfagIjIOLEnU6LCokJozXLEf64Nn7W5sjQlGts25ZhcGKPwblFiRTcQERmn1VuixNPQm+WI/1wbfov3/eMO0Vhq8W+LYYrYqAZRofYQEBEZ57AvRInzoTfLEf+5NvzX/KyPRWfb3zw6B4YYsEqUGBUFEZFphq0WFbwS6M1yxH+uDQXiHSetT4u+0hvu6hyDEUpeFyX+EAcRkWnGVokK6xPQm+WI/1wbahzx2nbR2dKRLWCCgsmeqDArF0REhsmfLEo8H4PeLEf859pQpNVvP68XjVXfc1gODHDxdlFhbT6IiAzTYYYoMTYKvVmO+M+1oUreEQ+Vi8YaFl5TDP0NXipKdAYRkWF6figq1B0GzVmO+M+1oUy01ajForNtbw2C9jq+I0oMAxGRYQatFhU+6wzNWY74z7WhULz4gc1p0Ve64rriGPQWfSQpKowHEZFZoqNFiUdbQHOWI/5zbSiVOPaN7aKx9KenWxFo7dJtosJrICIyS8GtosTVudCc5Yj/XBuKtblusehsy/1HQGtHrxMVliVARGSUFlNEhcpToTvLEf+5NlRLHDXNFY01fHFxc2iseKmo8F1HEBEZpX2pqLCoH3RnOeI/14ZykdbnfSU62/L84XFoK/aeqLDlWBARGaVkjajwahfoznLEf66NAMQ7/WWbJ/pKrf1dcQS6+nNaFNhxMYiIjNJblHiwELqzHPGfayMYp35UJTp7v18eNDUqJQrU/RlEREYZLSrUXgftWY74z7URjEiHiV8lRWPLL2kNPXVMigLey3EQEZlkoqiw7gxoz3LEf66NoBT84qla0djWR/aLQEvrRIW5e4GIyCTPiwpOP2jPcsR/ro3ARFtf8J1orHb+SdDS66LCoj4gIjLJZ6LC+62hPcsR/7k2ApTo9sS2tGjL2z6+ZRT6uU1UKDsZREQGiYkK6WnQn+WI/1wbgcof8Z4r+qp7ZUAutHOyqLD9ChARGaSDqFA1HvqzHPGfayNgXSauFI19cWYedFNSKQqkfg8iIoMMFRW2DIP+LEf859oIWv4pr1SJvlZcBt20/UxUeLQJiIjMcZWosK479Gc54j/XRuDiHa/61hNtbTwPmmk+TVSY0Q5EROZ4QlT4Ogb9WY74z7URgpyuL7ie6Or7S/KglfwbRIWPDgQRkTnmiApPwgCWI/5zbYQiNnJBteiq8q7iCHRyclIU+HogiIiMUbRcVLgZBrAc8Z9rIxzR7pNXe6Kp7ZMs6OTojaLAllNARGSM/ctEheEwgOWI/1wbYWk69GXR1Y77i6GR3l+KAqnRICIyxgkbRIWDYQDLEf+5NsLT6eq1oqnap5pBH13fFhV+1whERKYYuVkUSOXDAJYj/nNthCjnsJcrPdFS1aRCaMN6TFS4qwmIiExxXaUosDgOA1iO+M+1Earc80vrRUubr2gEXcRvERVebgsiIlP8oU4UeCkGA1iO+M+1EbJ9Hy4TLS07PQe6uKJGFJjTCUREppjmiQJ3RmEAyxH/uTbCVnTG7FrR0YJDoIvT1ooCy7qBiMgQzd8QFS6LwgCWI/5zbYQuUXL9JtFQ6uNG0MRRX4kC1YeAiMgQneeIAl5vmMByxH+uDQ3kHjKrxhPtpJ9pBj10fldU6AciIkMc7ogC6/eDCSxH/Ofa0ELhmM9qRTuVtzaFFopmigpjYiAiMsMJK0WB0k4wgeWI/1wbeoj3enC9aOf7C/OghYeTosCNcRARmeGcjaLA3/aCCSxH/Ofa0IV1xkcNopvPDotABzdUiQKPJEBEZIbLKkWByU1gAssR/7k2tBHt+fvNopnkPU2hg1GbRYE3c0FEZITIBE8UuDgOE1iO+M+1oY9I/uGza0QvtcOhgyPXiAIL80BEZITCe0WB5EgYwXLEf64NreRftbxBtLKkFTSw9wpRYG0+iIiM0PJJUWDziTCC5Yj/XBt6iR7+1EbRiXdnPsLXeLGo0AhEREboMlMU+OYoGMFyxH+uDd20/OXcpGhk9YnQwHxRoTOIiIyw//uiwPxDYATLEf+5NrST6PrHGtFH8sX2CN9fPVFgAIiIjHDwfFFg1r4wguWI/1wbGmp01Me1nuhi+zV5CN1DnihwCoiIjDCoTBSYWgwjWI74z7WhpebXLkqKLpYcFUXYxqREgWtBRGSEo9eJAg82gREsR/zn2tBTot8z20UXTzVH2EamRIHfg4jICCdXiwK/hxksR/zn2tBVy8s+TYoeth6NsB2eFAWmgYjICCNEAfdqmMFyxH+uDW3l9Lp3m+jhBYStuEEUeAFERCZIXCoKbLkAZrAc8Z9rQ1+Rgl/Mqxcd1HZEyCJ1osAXICIyQcHNokDZKTCD5Yj/XBtaa3pbWYOEz3swipCtEAXKQERkgsJJosBXA2EGyxH/uTb0lnfss1s9Cd233RCyOaLAmiYgIjJAiymiQGkPmMFyxH+uDd11uMiR0Lm3xBGuKaLA+m4gIjJAy+miwJy2MIPliP9cG9rLOfjBOgmZ90F3hOvPosCGniAiMkD7+aLAK1GYwXLEf64NAzQZvqBBwrXj8ihCZYsCWwaDiMgAnb4SBV6CISxH/OfaMELbO76RcM3eF6EaJQpUjAIRkQE6fSX+Sz0NQ1iO+M+1YYhjX62QMG0fHkWYhokCFaNARGSAvTeI/2rvhCEsR/zn2jBEpN21X6UlRHc0RpgOFgXca0BEZIDuKfFfzUQYwnLEf64NYxT0mVIn4VnYDmHaRxSonQQiIgN0FwWqroMhLEf859owR6Rw6DcNEpbUMQjTPinxX+0kEBEZoLsosHUkDGE54j/XhlE63LUuJSF5CGFqt0T8V/cHEBEZYJAosHUkDGE54j/XhlkKhr1cJeH4vgAhardE/Jd+FkREBrBFgc1DYQjLEf+5NkzT5ZqVEor0IISo9TxR4HUQERnAFgW+OwSGsBzxn2vDOPkD/+pKCLwHECLrRVHgdRARGeBXosC6HjCE5Yj/XBvmiTY/d2lSgrekFcLT4jlRYFYjEBHp7xZRYE0XGMJyxH+uDSOV3LchLUFbfzzCU/SUKDCvBERE+rtfFFgBU1iO+M+1YabY6LeqJGCV1yI8BbeKAvNKQESkv/tFgRUwheWI/1wbhop1u/4bTwKVfAThyb9RFJhXAiIi/d0vCsyDKSxH/OfaMFbBgBclWG8VIzR514gC80pARKS/WaLAczCF5Yj/XBvmijS7dE1SArSwD0ITOU0U+HQfEBHpr1QUmAZTWI74z7VhtL0fW5+WwKw9HeEZJgqsGAIiIv2VigLTYArLEf+5NszW9Ox3GyQo1VciPMNEgRVDQESkv1JRYBpMYTniP9eG6Xr+fp0E5c+NEZphosCKISAi0l+pKDANprAc8Z9rw3iFx82sk2C83AmhGSYKrBgCIiL9lYoC02AKyxH/uTbMF2111fdpCcLCXgjNMFFgxRAQEemvVBR4EqawHPGfayMj7P23TWlRr+xIhOaUtPhvxRAQEemvVBS4GaawHPGfayMzNLlgbo0ot/UXCM2QcvHfN8eDiEh/paLAOJjCcsR/ro0MkThw4hZR7jSEZsAq8d+G0SAi0t8SUWAcTGE54j/XRsZoetx7otqoKMIyYJX4r3wMiIj0lxQFxsEUliP+c21kjmi7G9akRKkb8hGWAavEf+VjQESkP1FhHExhOeI/10ZG6T11s6h0cwHCMmCV+K98DIiI9CcqjIMpLEf859rILIWXLEiKOg80Q1gGrBL/lY8BEZH+RIVxMIXliP9cGxkmctg960WZ5y2EZcAq8V/5GBAR6U9UGA1TWI74z7WRaSIthn+cEkU+bYewDFgl/isfAyIi/YkKY2EKyxH/uTYyT7z59W5KlFjSAWEZsEr8Vz4GRET6ExXGwRSWI/5zbWSiSP+XtnmiwJIOCMuAVeK/8jEgItKfqDAOprAc8Z9rIzO1vnqtKLCkA8IyYJX4r3wMiIj0JyqMgyksR/zn2shMLcaUiQJLOiAsA1aJ/8rHgIhIf6LCOJjCcsR/ro1MFDls2kZPFFjYDmEZsEr8Vz4GRET6S4sC42AKyxH/uTYyT9QatzUpSsxoibAMWCX+23guiIj0VyYKjIMpLEf859rINJEWQ+emRJHnLYRlwCrx34ohICLSX6koMA6msBzxn2sjw0QOv2+jKDOtBcIyYJX4b8UQEBHpr1QUGAdTWI74z7WRWVpctiAp6kwuRFgGrBL/rRgCIiL9lYoC42AKyxH/uTYySfyI6eWi0k2NEJYBq8R/K4aAiEh/paLAVTCF5Yj/XBuZI9rmptVJUep3jRCWI8rEfyuGgIhIf6WiwO0wheWI/1wbGcMa+rWodnkOwnJcpfhvxRAQEemvVBSYBlNYjvjPtZEh8vveXy7KnYbQDBMFVgwBEZH+SkWBaTCF5Yj/XBuZofiqhfWiXHIYQjNMFFjUF0RE+isVBabBFJYj/nNtZIRBs7dKANYfjdAMEwU+3QdERPp7RxSYBlNYjvjPtWG+WJs71nsShPkHIjTDRIF5JSAi0t/9osA0mMJyxH+uDdNFWp3lSECea4fQDBMF5pWAiEh/94sCL8EUliP+c20YLj7wiSoJyuR8hCU6UhSYVwIiIv3dLwp8DlNYjvjPtWG2ztculsDUjENocn8tCswrARGR/u4XBVbAFJYj/nNtmCz3+Ne2exKYdSMQmvwbRYF5JSAi0t99osCKCAxhOeI/14a5Ym3/tC0lAVo8EKFpdJMoMK8ERET6myAKrG4LQ1iO+M+1YarYXvZyCdasNghN0ZOiwIdtQUSkP1sUWNcDhrAc8Z9rw1D5Q57ZIcHynk0gNC2eEwVeBxGRAWxRYF0PGMJyxH+uDTO1vW1JSgJWczvC0+I5UeB1EBEZ4AxRYOMxMITliP9cGybKGTrblcBtOBnh2WuO+M+bASIiAxwoCmw9E4awHPGfa8M88X0e3pKW4C1uhvC0WyT+q5sMIiIDdBcFto6EISxH/OfaME7bMaslDN6fEKJ2S8R/tZNARGSAbrXiv4oLYQjLEf+5NgxTOOS5WglFejBC1HG1+K/6BhARGaDLKvFf9QQYwnLEf64No0T3/f03aQnHhsYI0d4N4r/tNoiIDNDpK/FfzUQYwnLEf64Nk8RGfVQlYXkUYdpHFKgYBSIiA3RaLP6ruR2GsBzxn2vDHPGOT+7wJCzeaQhTN1FgyxAQERmg+FXxX/pZGMJyxH+uDVPEOl21VkK0qhPCNEoU2NATREQGaDldFHg1B2awHPGfa8MQeae9VCNherQIYbpQFNjQE0REBmg5XRR4vw3MYDniP9eGGXr8fp2EqmZUDGGaKAqss0BEZIAmd4sC8/aFGSxH/OfaMEHhqDk1Eq45+yNUj4gCZSAiMkHBzaLA0kEwg+WI/1wb+kscNH17WsLl/jqGUM0VBb4FEZEJCm4WBVYeBzNYjvjPtaG7ePtfb5GweZ/2QrgcUeB1EBGZIPdKUWDjuTCD5Yj/XBuaa3Haq/USuppJCYSrQRR4AURERhghCuwYCzNYjvjPtaG1aO971qQlfKv7IFxNGkSBZ0BEZISTXPFf6maYwXLEf64NneXZi2pFA96jOQhXz6QocDOIiIxw1BpR4A85MILliP9cG/pKHPRyhWgh1R8hOzopClwLIiIj9F0kCkwthhEsR/zn2tBVZN+bN4omFiBsY1KiwCUgIjLC/u+LAn9rDyNYjvjPtaGp5qfNFV1UjEDYbkyLAoNARGSEji+KAu/vDyNYjvjPtaGlWO97Nok2prZA2B7zRIHDQERkhJZPigIL+8AIliP+c23oqOnYhbWijY3DYgjbi54o0ApEREYo+LMosHowjGA54j/Xhn4Sh86q8kQbdZObIWzRhaJAqhGIiMxwkyf+qxoOI1iO+M+1oZtEt5urRCPp9/ZH6DovFwUW5oGIyAxXuqLApQmYwHLEf64NvUT2+uX79aKTrTbC12+1KDArF0REZrA3iwJ3NoEJLEf859rQy+FPbxKteI81QfhGbhIFHkmAiMgMx68UBaa2ggksR/zn2tBJi2u+TIpeNneABq7eIQr8JgYiIjMMXCIKzOkAE1iO+M+1oY+8o2e5nuglOQY6eCgpClwUAxGRGbp+KAqU7QsTWI74z7Whi8R+f9wuukk92RwayJ0uKgyMgIjIDG1miwqHwgSWI/5zbWii7S8Xin4WHxGFBrq8Jwq4B4OIyBC5L4kKwyMwgOWI/1wbWsg76qlNnmin/NrG0EGvBaLAN/uBiMgU00WF8VEYwHLEf64NHTS9cVm96Kd+ajto4eRVosCnJSAiMsXva0SBB2MwgOWI/1wboYvkHPNptWjI+7h1BFoYvUkUeKUtiIhMMb5SFPg8DgNYjvjPtRG2nIPu3yFaWtwReojcKCo82BxERKY4dZMosCEBA1iO+M+1EbLWl3wuelpxHDRRMFlUmNgYRESm6LdOVLBgAMsR/7k2QpU4dqorevru/Dxoot3zosLYOIiITGEtFxV6wQCWI/5zbYSp48RlKdFT1W1NoYt9Z4sC1WeCiMgYkUWiwuUwgOWI/1wboYnknfxxjSd6qnusObTRf6UosO44EBGZ4xFRYQoMYDniP9dGWPIPul+0lZzeGtqInFonCnzaC0RE5rhBVFgQh/4sR/zn2ghHrPOVi9Kiq+Qre0EfuVeLCq+XgIjIHCNEhdXtoT/LEf+5NkIRO+XFCtFWcvq+0Eizh0WFR5uAiMgcB4kKm4dCf5Yj/nNthKH13atSoq2qR7pGoZE280SFyVEQEZkjkRYFdoyF/ixH/OfaCFyk8ekLakVf7r1WBDop2SEKbLsMREQmKRMFGh6A/ixH/OfaCFre4X+tF42VT8qDXvqLCmtOAxGRSWaLCm8WQnuWI/5zbQSsZOxq0dn6a6CbK0WFJf1BRGSS+0SFzw6E9ixH/OfaCFST016uFJ2tvrIAuvmrqDCvC4iITHKZqPDtUGjPcsR/ro0ARbrcuzYlGkt/dnohtLNEVHgrF0REJjlWVKi4FNqzHPGfayMwkdyzvqkTndX/tVsC2imsFQXSz4OIyCjdakSFyQnoznLEf66NgEQKD5teLzpLlV0DHQ1MiQI1t4CIyCgdHVFhelvoznLEf66NYES63fSNaG37zKPj0NH4tChQMRpEREZp/baoMKcHdGc54j/XRiByzn6rRrS2YUJJFFp63BMFNh8BIiKjNLtXVCgbDN1ZjvjPtRGEHvetE70t/UVT6Cl3nqjwf9iDD8AoyrwPwP/ZmmTTSDbUQOhF6R5FlG5BRUQRpOmFYkP0REFOECsoYG9YsERRARVPadIREQERIXQIPZQkkEKyabs78//OK99ZEEPYd+ad2d/zZCYRAICpuO5lEYIj7SQ5bzqHni+VhFPih28tZ5lphe81tpGk2hxkEdYrBABgLr0LWYQ3Ekhy3nQOPV8qiRbdeTnLrWhV3wiS1h25LML7BABgMh23swhrU0hy3nQOPV8qieW86JFMltu+x+uSxF4pZxHuIAAAk2n0NYtw+mKSnDedQ8+XSkLFj1hWzFIr/LS3iyRW5SsWogMBAJhM0nssRH+F5OZN59DzpZJIrWadVFlm6o67k20ks3Y/shAJBABgMrYnNBbhNTvJzZvOoedLJWGUuNsP+llmWslb9dwkt8EnWYRtEQQAYDZDTrAIu50kN286h54vlUSJvWp5kKV2Zu0VJDvHkyzE+04CADCbrjtYiCSSmzedQ8+XSoK0mn6SpRbY9khdhWRX82MWYrydAADMpsEaFuI6kps3nUPPl0pCeId/w3IreauLm+TXcj0L0VshAACzcX/BQkwjuXnTOfR8qSSA/ZIPsjWWWvpfq5EZXJXLIuS0JAAA83mqmEVYr5DUvOkcer5UCjkl5qHDfpaZmvNCUyeZgfs+jUVYmUIAAOYz6BSLkNmUpOZN59DzpVKIKfHXfsdyK1rQnUwi4SMW4tUqBABgPh2Psgin+5HUvOkcer5UCi3XX57NZqkFtz4eT2aRvI1FCI5yEACA+Xj3sghlz5HUvOkcer5UCqmYv31XzlLLmdnFSabRyc8iZF1PAABmtIRF0L5OIJl50zn0fKkUSpfOyWWpaRv6V1XIPMayEJvaEQCAGU1lIXZ1JZl50zn0fKkUMrbqkw4GWGZq/vSqDjIR5RsW4tOaBABgRv1ZiKIHFZKYN51Dz5dKoZJw8w8sNS33y84OMpXqARYhOJkAAEypnsZCzIwniXnTOfR8qRQa7g4vFbDUtO9GJ5LJDA6yCDkjCADAnI6yEN+1Iol50zn0fKkUErX+9mOQpXbyzTZOMpv3NBZhdzcCADCnj1iI09eTxLzpHHq+VAoB+5X/OK2xzALrBnjJdKpuYSHW1iIAAHMayUJo4yNJXt50Dj1fKl0wW8KkUwGWmZY1IdlB5nPlMRZB/dRGAADm1LSEhVhci+TlTefQ86XSBbJ5B+/QWGq5i5uRGdmeLmERih4kAACTqr2RhTjRkuTlTefQ86XShbF3nZnHUivdMNpDppS4kIXI6UEAACaV8B6LMVghaXnTOfR8qXRBaozbxnI78UxbJ5nTZeksxNEkAgAwKddoFuN9O0nLm86h50ulC+C88stCltvSq+PIrEbkshBLCQDAtK7OZiEOu0la3nQOPV8qVZqtzivHgywzNXNiLRuZVdQ0jYWYQgAApnXxGhajK0nLm86h50ulSrJ5h+5huZ187yIysYtWsxhXEACAaSXOZDHeIGl50zn0fKlUOdE93iplqZWuvTWGTMx2Qz4LUVKTAABMyzahnIXYlkCy8qZz6PlSqTKUBo/uCLDUDk1rSabmmcxibIsgAADzGnSchcjpRbLypnPo+VKpMvqsOsNSK/ni2niFTK3WJhbjHScBAJjXJZtYiNLpCknKm86h50ul82ar82qWyjJTs0cl2MnkugRYCK2/jQAAzCvmC42FWF2DJOVN59DzpdJ5UmrdtZelpp6cVYfMbzKLkXkxAQCY2ZQSFuLg9SQpbzqHni+Vzk/kVXPLWWolSwZGk/k501mMr2oRAICZDcphIcqedJGcvOkcer5UOi9NJu5nuR36e2OygtZBFmNiJAEAmFnzQyzGl3VJTt50Dj1fKp0Hz4BlhSy18i96RpAlPKKyEAX9FQIAMDPHChYj82qSkzedQ8+XShVmrz0rL8gyC+67o6qNLMGzicXY0JYAAMxtPAsyIZKk5E3n0POlUgXZa9yVxVJTT7xYl6zimuMshPZWLAEAmFsrjcVYlkxS8qZz6PlSqWLir/3cx1IrWjKILMP+TAkL4RtLAAAm5zrKYpy5jKTkTefQ86VShTR+cT9LLbhtYiMbWUbyMhYjoxcBAJjdTBbk7zaSkTedQ8+XShXgum1tGUst+G4nD1nItRksxtpaBABgdrdoLMYWF8nIm86h50ulP2Vv8dFpjWUW3D8oXiELiXo6wEIE0mwEAGB29Y+yIF1JRt50Dj1fKv0JW8q4Iyy14OHnapG1XLyGxcgfSgAAppf0OQvyDsnIm86h50ulc6vSexHLrejTPpFkLfZbilmM4w0JAMD03A+yIBl1SELedA49Xyqdi6P1s4c0ltqWv1cnq4mfyYJ8SwAA5qdck81iFNxBEvKmc+j5UukcXHesL2ap5b97eSRZTr1jLMhEAgCwgKbLWQztH5EkH286h54vlf6QvdUXBRrLLLjtxjgbWc99GgvSgQAALCDmRZXF2HslycebzqHnS6U/4Kj/cBZLLXj0mSiyIuf3LMiJCAIAsIIRuSxGyWMuko43nUPPl0pnFzdwaYBlpuXMu9pJltQ2yIJ84CQAACvolM6CLGpI0vGmc+j5Uums2r6exVLTNt2ZTBb1nMaC3GYjAAArqLKIBcnpTdLxpnPo+VLpLBLu3RhkqZW91NpFFlV1CwuS04YAACxBmVzMYmjTYkk23nQOPV8q/Y6j7VeFGsss+H2fOLKs1FMsyGc1CADAGnocY0F2NSXZeNM59Hyp9BuulMeLWWqBXY9UJ+uK/EhlMQL3OAkAwBq8W1iUwQpJxpvOoedLpV9Rqg1ZHWCpnZrTkays6w4WZG83AgCwihksynInScabzqHnS6Vfsl868wRLrXzdqGpkZc6HilmQuTUJAMAqumksSGk7kow3nUPPl0q/EDE+vZyllvt0GzdZWoOFLEj5kw4CALAK53EWZaZCcvGmc+j5Uun/OTovLmSpBdd1jVbI0mz9CliQwzcRAIB1vMyiZDYluXjTOfR8qfQfzotfyGeple952ENWl/ARC6ItSyIAAOvoXsqClEyxk1S86Rx6vlT6t6q3bmS5Zb13qZ0sr8MZFqR0GgEAWEjtn1gQbVUKScWbzqHnS6WfuXvMPMVyWzM4kcLACyxKTncCALCQ6GdYlOxhJBVvOoeeL5X+qeqk7X6W2snJLSgcJGSxKD9FEQCAhSg3FLAgWloSycSbzqHnSyWy9/jWp7HMylb19CgUDoapLMpUAgCwlGYrWZQj1ygkEW86h54vNeLiZ0tZamV7b4ug8BD9A4vib0YAAJYSNTXAokyPJYl40zn0iifctSXIMlMzZ7alcDEoh0XZ4iYAAGsZfIJF2dOYJOJN59AL7MplqZUsHlqFwkX8rACL8qidAACspfFaFiV4h43k4U3n8JM1tpGDwka3HSzKmcsUAgCwFvubfhZls5vk4U3nMKMFFneMpPDhfNTPoqxKIQAAq+mXzcLcSPLwpnN4Kd08zEPhpO1GFiU4NoIAAKzGu4WFWRlP0vCmc1jJfK45hZXIcX4WJbMXAQBYzwwWJncAScObzmGkZP5AF4WXhltZmIX1CQDAerppLEpwdjTJIu4rDh8HxzeyUZgZHmRRyic7CQDAelz7WJgD15MsYj7kcFE+u0WkQmHGtp2F2X8tAQBY0XgW58MkkkTkMxweircOpDA0QmVR1PmxBABgRc2zWJij1yokB9ffOByoB59rpFD4SfyehSn8GwEAWFLiLBbnuTiSg20Ah4Hiz66PpXA0JIeFOVCXAAAsyXGrj4U51IYkcSVb3+F7UigsVZ0bYGFmEQCARbXdxMJoL9hJDu0Ps7VpJbNauyksKQMyWRitMwEAWFTElAALU1yV5HDR92xpxd9e76IwVXM2i7PJTQAAVtXnIIszieSQ/BlbWHDvtOoUrmxXHWZxxtgJAMCqai3SWJhdDUgKUVPYuvLnXOeisBX3OotzqBUBAFiWbWIRC1P8OElBuS/AFqXtuLOOncJX11MsTloSAQBYV9tDLIyWfjlJYUAWW5IWmNHYTWFM+ZrFKRxsIwAAC5vN4gReiSUZXLKBLUgrWtHLSWHtGpXFWd6UAACs7EqNxdnVXSEJJHzK1qNufbQuhbe4hSxO2dMRBABgZTEZLE5gWhzJ4OlStpqitM5OCnMDslmcA70JAMDaJrNAh9qQDFKz2WK2DKtO4a7WvAALoy2MJwAAa2tdzOJoHzlJAu32spVo+S83dlK4U27PZXF8DxEAgMV5P2GROpAEIlZobB0Fay8hoCbLWKADtQgAwOLsg30s0GcRJIEHytgqyreNTyQg5wgfC/QhAQBY3sVrWKCcK0kCrYvYInLe7hxJQFT3GxbpcgIAsLyIx8tYnMBn1ch4ETvYGjbeXJ3gZ2PLWKBNHgIAsL4u21mgk7cqZLwn2QK03Gn1HAQ/iz3KAmlDbAQAYH2ut/ws0ML6ZLxWJWx2Wu5XlzkI/sUxTWOBfqhPAADh4LoTLFDxA5FkuPglbHKBzXcmEvxHp6MskH9CFAEAhIOoBSzS9uZkONeoAJta1mudCP4r/n0/C5TeiQAAwsNNGgsUfMFBRlPa7WYT86/un6gQ/Ff/TBYoOCOOAADCQ8RxFsnXnAxX5VU2La14Ql0Hwf+rO09lgQ5crxAAQJi4R2WRFkSR4W7JZnPScv/RhOAX3PeUsUDqF7EEABAumh1kkfKGkOFqfR5kMyr9flQVgl9qsZNFyr2ZAADCRuzzLJK6ogEZ7u7TbELHp7e1E/zKCyzUungCAAgbtl6ZLFLB+AgyWsoGjc2mfOW18QS/1uI0CzWGAADCSM2PWSRtYzsymnJfGZuLdmJCio3g12yzWaisRAIACCfDT7NQr1cho3n3s6nkvNeU4LeUEadZJPVROwEAhJN6yzUW6fi1ChltRIDNo2Td8AiC32mwTGWRDrchAICw4phQyEKtiSGj1djIZqEemNrcRvA7nomFLNRrVQgAILzU385CBe4nozmGFrE5BL+6Jo7g92zddrJQR3rbCAAgvNie0FiojKZktDpfsBloWbcn2QnOImm2ykJ9lkwAAOEmKY+FCn6eREa74ShLL5j9dmOF4KzuZrFOjSQAgPAzlcXKHuUigyW8UsKSK108MJbg7OplslDaynoEABB+Whxksda1JqO12qix1DIeb0jwBzwzNBaq8D4CAAhDnqdYrLJpcWQw+7ASlljp51dFEfyRW0+yWFuSCAAgDCmX7WSxsq9QyGCRi1haWubtXjvBH2mwTGWx7iAAgLAUMSXAYu1MJKPVPchyUk/O9BL8sZhnAyzWdhcBAISnXvtYsIkOMpgzNZtlVLD0JifBH3Nct4/FKhtuIwCA8BT3bjmLldmVjJb4bDFLR901oYGN4ByqLWbB1qQQAEC4uvIYixX4rBoZ7eJlKkumLK1DNME53V/GYhXf5SIAgHDl+kRjsfIecJHB7NccYKlou1K9BOfWKo8FW9GMAADC18VFLNiRG+xktJG5LA/t0PRkgj9R8zsWLH8UAQCEs89ZtIV1yXBTilgW+YuvdRH8idgnC1ksbWU9AgAIZ719LJj/GQcZLfG9AEshuG1cbYI/Y7/5EAtWeB8BAIS1pH+waPm9yGi2pp+zDArf6RRF8KeaLVNZsC1JBAAQ1mz9Cli075LIaLYO6zU2mpZxfRWF4E9FP1bOot1JAABhrsorARbM/140Ga7VapUN5c98OoqgIgaXsGjbXQQAEO567WPRTox0keFaf8dGyvu0h4ugIupmsGhlw20EABDu4t4oY9HWtSbjXbqFjbN5VDJBhcS/wcKtSSEAALjkEItWNsNLhnP02sAGyX2jg4OgYu7MYdGK73IRAADYX9RYNN+tNjKcs/PqABsg8MON8QpBxXTYqLFoK5sRAAAQVc1m4YpbkwSqf+JjvQUOPBZPUFH1vmDh8kcRAAD8bEyAhVuTQhKo/mIR6yt7bieCCoue7GfR1KX1CAAAftbgJxau9JUEkkD8E5mso/Lv76quEFTYkBwWLu9WAgCAf4m4z8fC5dzpIAnEjDrCuimY2tJNUHEN97N4y2MJAAD+rfHXLJy2owvJIKrvAdaHuqlXDMF5iFrA4mm9CQAA/mvYKRZvZVOSQtPFBSyef9d9sQTnw/NCCYuX5iAAAPivmp8FWLw3IkkKCeN3BliwrLT2DoLz4U7NZPEyOykEAAD/r18Wi1c+jOQQccUnZ1ikwJrUBILzonT8kcULPBNLAADwPzHzNRZvT2eSg63OPcdYnOOTW9oJzk/VeUEWb8tlCgEAwC9cGmTxgovrkCQiOi7RWIzgt92jFYLzozxVxuKVPO4iAAD4lTdUFi/wViLJospDu/wcer70VILz5uirsXjq18kEAAC/1mQ366DgIQ/JwtH+nYMcYv7tT9ZVCM6XvWsG6yB3IAEAwG9E/K2IdXD0JhtJI7rve5kcSgde6OImOH/NlwRYB3M8BAAAv9VgEethVwOSh5J07YeFHConXuseT1AJNWYUsw7y2hIAAPyOPfUk62GZhyRiS7j+H6rGF04reOfSOIWgEiIf8LEeXnASAAD8Xsxb5awDf1ocScXW6uXdPr4gat7eKU0JKsc2tIT18H1dAgCAs+mwm/Vwenw0SabRY0uOBLmy1IzP766lEFRS+2Osh9zhLgIAgLMap7IeMm5xk2xq9pu+KlfjSshaMuWaRIJKa/w160Gdk0wAAHB2VbawLtK7KiQdT7O+r24u5/MTWDGpV2M3QeXV/aCU9XC4n40AAOAP3KyxHtR1XpKQLS654/jl5aqmcQVoau7Xf29RI0ohuACxTxSyHsrfjiQAAPgj8W8FWRdrvCSr+B4TPth44Hh+ucZ/QPVlH971+UPtIgguVMyEMtbF7kYEAAB/yNZ1F+ui9NUkklmzq0e//MXaHTsOZGWfLuf/KsnO3vnTqq/SHrulbQxBKIzMYV0E7icAADiHmMd9rIucCQkkuegmXbteP/S24WMnTXrhvfdee2LSpDG33dajQ0oMQaj0PM76WJdAAABwLs3Wsj6ODnWTaUQlJcXZCUKt7XrWx6nrFQIAgHOxDT/FutCOdFAIwlr9+QHWx6tVCAAAzi3yS431cbitjSB8KSkfBFgX6srmBAAAf+bi46yTzS0Jwpf3RT/r48QwBwEAwJ8a62d9lH/WnCBcuafksz7KP0giAAD4czUXsE5KPqhLEKbuL2Sd7G9FAABQAbZrM1knJc8mEIQjZfBR1ss4GwEAQEVEjC9kvbweTRB+XMOPs14WOwgAACqm4fwA66T0nmiCcOO8bivrJbOTQgAAUEG9DrJeTt0XQxBmrtrEevFNjCYAAKgo91SVdaIdHOQgCCu1NrFuFjckAACouCp7WS/q7t52gjCSvEhlvRwdaCcAADgPVxSwbk7c7CAIF/YWK1TWS+lzbgIAgPMRM6WUdXOij4MgPNjbLAiwbtbUJgAAOD9NV7J+9l5LEB5aLAiwbgp7EQAAnCfnX4+zboLrOhGEg8iVQdbP024CAIDzlfCBn3XjX30JgfVFzVBZP8saEAAAnL/6P7CONndSCKxNqZlWxrrR9nYjAACojJvyWUeb2xFYmpLypo/1kzsmggAAoDJcL7Gevr2UwMpqvlnE+in/pDYBAEDlNFrJOgqs6kRgXVFpPtbR/lYEAACVZO+dyTryr76EwKoiZ5Sxnm6zEQAAVJbj3gLW00+dFAIrsrdYqbKOgq/YCQAAKq9mWhnraXNXB4H12NssCLKe1jUlAAC4EH/ZxLrafpODwHJaLAiwno70cxIAAFwIe78g60nd0c9BYDHJKwKsp+JpcQQAABfGNYN1pe6+2UVgKbUWqawndVldAgCAC1V9tca6Kn3QQ2Adzqs2qayr/d0IAAAumK1HBuur9B4PgVW4rtvE+grcQwAAEAIxY0+xvk6NrUlgDcrwrayz+VEEAAChkPxxOetKO/1cdQJLGHycdbalo0IAABAKSpsDrLOil70E5ue+/yjr7PRQBwEAQIj0PsN6+6aejcDcFO+UQtbZmbFOAgCAkJnmY72tusxOYGopL+azzsreqUoAABA6NT4OsM6C63tHEphYsw/8rLc1TQgAAELI1nEd6y248xY3gWm1XRxgveV1JQAACCnngIOsNy37PgeBSfVcH2C9lY52EAAAhNgDeay/xxMJzChm5HHWXenUOAIAgFBzv66y7sreaWojMJ3YCTmsO/+XjQkAAEKv5mrWX9mizk4Ck6n7RBnrTtvahQAAQITLtrP+/D8MtBOYysUfFbL+Tg90EQAAiOD66ynWn5o9ksBEbO2XlLEBnnITAACIETOxgA1Q8mxtG4FJRA49xgYILrATAACIUjOtjA1QMucvTgJTqPFACRthXRMCAABxWq3V2ACBNTfbCeRnb/66j42wt4+DAABAoM5FbIgD90YQyM7RdUkxG+HUgx4CAACRbHexMU6/UpVAbkrfjAAbofyDJAIAALGinyxlQwRWdHURyEup+pTGhlAXRREAAIhW7+MSNsaev0YTyMrdcV4ZG+PHOgQAAOK1/DrAxjj9eDUCOXlSfwyyMdKvUQgAAMSzt9/FBin6oBWBjKJeyGSDHBnqJgAA0IOtRwEbpPzbbnYC6TRcUMIGyXsoigAAQCeDctkoJY/VIJBL9JD9bJTCx9wEAAB6iXwgnw3zWbtIAonUm5zDRgnMjCMAANBPjdd9bJTgT3clEUijwxd+NszSagQAAHpq+Fk5G0U98UZ9hUAK8XduZOOs6agQAADoSWm2lY1Tuq0DgQzqvpGjsWH2XusgAADQWb19bCDfpKp2AoNFD85g42gH+hMAAOiv3yE2UMm87hEERrI3e6yEDXRqlIsAAEB/EXeeYAMFtjyQSGCc2JuXlbOByh/zEAAAGKHKkwVspLwP2xEYpeaTh1Q20sfxBAAAxqg6s5SN5N82MorAEK2+K2RDzW9CAABglMgZATZU2T/aRxDozVHtb3lsKP/K1gQAAMapuSTIxjo4pg6BvmKuW1zGhgqs7kgAAGCkZl8F2Fhln/SMJNBRg2f3scF29CAAADCUreVCNlhg98REAr14bl0WYIOd6OUgAAAwlr3rVjbamaXtCfRR9/WTKhvsRF87AQCA4dpt1NhovicbuAhEsyXdnamxwbSMa+wEAAAS+Mt+Nlxw419rKgRCebrNZsNpmfd4CAAApDD4EBvv1CdXugjEURpM3Kmy4bLuiSEAAJBDxLCDLIGdzzQgEMU2fFkhG6/0dg8BAIAsIu86yRIo/m5AJIEQLWafVlkCj0QQAADIwz0+h2WgLWrvIQg1d/MXTrMMiqbEEQAAyMQ9Pp+lcGpSqwiCkKp7z06WQt7UqgQAAHJxP5bPUihbf18dhSBk4vt/XsZSKJpagwAAQDbxk/JZDqdWDIkgCA1Hp/czVZbD3KoEAADyqfL4GZZE9hfdnQQhEDv1qJ8lsbomAQCAjNzjc1gWhR+0jyG4MM66Dx7VWBJln9ckAACQk3t8Pksj75lLogkqT2k84psylkXxnEYEAACycj+Wz9IIbn60uYOgkmrdvszH0iibcxEBAIC84iflszyKvn84nqAy4gbMy2WJzGpEAAAgsyqPn2GJFH7T101wvpRrFmYHWCKvViMAAJBbxPgclol/2+j6LoKKs8W1W6SyTIqejicAAJCde3w+y2XzXU1dBBWj1Lzq9VMslbypVQkAAOTnfiyf5eJfOaapg6ACqg6YfYjlUjS1BgEAgBnET8pnyZxZ+3ANgj+TOHhuJstmSlUCAABzqPL4GZZN4dZRVQnOxTb8+5wAS6Z0TBwBAIBZRDx0jKWjHn+meSzB2UXWvnW7yrLRsm6PIAAAMJFbjrCEDr7YtYaN4HecbcduDbJ0tMx7PAQAAKZy2w6WkHr0g9Q6CsGvxHd9dIOfJZR1TwwBAIC5uHpvYBmp2SseTiH4n+hBs3b4WUalIz0EAABm4+y5heVUuH16EzvBvySk/pAdYCmd+GsEAQCA+SjJXwVZTppvdk+vi8KdLaHD8ydVllNgRy87AQCAKdVc7GNZlc+7o228QmHM2aDfrDMsK//qHg4CAACTajijiKVV9uOM/skUriIvf2BhAcvr044EAACmpdR+qYAldnTRxLZOCkNVUz9KL2SJza1PAABgYkrCpHyWmFp06NPeFGacbZ/bckpliZU/W5sAAMDcbPdls9S0wP7JlyTYKTzY4+oO/z6oscy0E+PjCAAATG/Ifpbd6Y9ubeO1keU5m/V77bDGktt5p4sAAMD8XP1/CrLsAptm3tUhiqzMnnzNY6vzWXp7r3YRAABYQcQVqwMsv7yfZg+uQ1bl6fXMsowAy295LwIAAItwNFqisQmoOdvfvdFJ1uNs/cim4yVsAoGl7e0EAACWYX+5gE1BC2a/fV3tODtZhc1Tq8tT6UGVTaHwnWoKAQCAhUSNOaSySfh3vDa0bQ0HWUBUsxsmbwqwWRQ9UZUAAMBaogf/FGTTCGye9fANKWRqtsQOqdNW57N5HHnKTQAAYDURXdZpbCJlh5a/PLSunUyq6pVPL9h8WmMTyRgRSwAAYD22lMVsLuU5exfcWZtMR6k+6L0tx0rYVNQfe0cSAABYUty0Ao3NRVN9G5/t0yDJYydTcCckd3pwdSCosckUv1dHIQAAsKj4+/cF2YROzp885PIGHpKbo1brK++btc3PJnRsWhQBAIB1eW76QWNT8h9c+NwdPVJsJCe79y+DnpzzQ67GZqSm3+4hAACwMkeH79istIJdK94e1b2anSTjbn37aws3nWSz8i/tGUkAAGBxzT5iEwvkHd218oUb65AsYrqMee+HA7nlbGLvNrITAABYXuwDR1Q2NTUYyFz45PUNaiZEkkEUd3yNBpfd9/GO0qCqsZlpp/9uJwAACAfOvt+obAFnNn08sU+PSxp5HaQnxZPcuNOND7y5/gxbgH/zADcBAECYaPmpn60hkLVlyTtP3Neve70qJJ673iV9hj7y3NxlGWVsDaVfdrITAACEjZQns9lCSo7uXDn/zQmD2zWMJjFs9S4d+OAbn6784WA2W0jp1MYEAADhJGbQHraYQFH2oX3bN3z85p23XFpNoRCJbd79zokzv9i893D2mQBbTN7oOAIAgPCiNJ5fylakacFgwF+2d3Xai38dfEObRo2Sk2t4E6t4IiMUOjebOzIyLjGxenJySsNGTQePfOqtb7b6/YFAUNU0tiD/Dz0dBAAAYafKayc4DAS3b18/b/b7T058sF/fn91w5eW/06vvzwY+MPGRGbNnr962/bCfra9wdluCs3Mker3eWk2a/lajat6f2QjAyiK8P0tu3PR3kr3exEgCC4i886cghx019+BvHSrk8HPioWSCX3BXr9Oyc+cbhtw2bsKEJ96aOXPmnOUrfuvrD2b+bNKE8bcPGdSzc+fGdWpGEoAVxNWp07pz52uHDLn34QlTZ/5s7rIVvzN35sy3pk2Y8PCwIUP6dunQoE4EgVlFdFtYzhCW1tzsJPiXxm16Dxz72Meffr18/bZth7JyAvzn1Pysk7u2bVuzfMln7z/195u6N0tQCMCMHMnN+gwe98z7Xy5fvmHbtoysrGKN/5SWm5V1ePtPq5Z/9tGrE+8feHXjRALTsTd4M8gQfgrfvNhOYS++xaBxM5dt2XfgePYZH1eWWlx48mjGjs3/mDH+znaJBGAStro9h0+cuWLr7owT2WdKVK4kf1FB9rF9OzZ88vzI65p7CMzEPuyAnyG8qNsGRVK4UlxxSXWaXfv39zfl+ANBVdM4RDRVDQb8mSveuqtngzpJsW4CkJASFV+1dtN+499bWewPBFVN4xDR1GAg4D+8ZPo9nRvWTIx2EJiAvf2nBQzhJH9hIwpPrqRm3W6877WF+8tZqJL981++//oeLao7CEAeUSmX9Lzp8beX7QmyUEWb5k4bcV2H+vF2AtmlTNijMYQLde/EqhSGElpdd/fk91Yd87NOglnrZj0y7KrGkQRgOFuV1n3uefaLrTka66Rk1/zXHx7asW4UgdQ8V61gCBP+FX1iKNzEXjbytfnr9xey3oK5e7+ZO3VkpwSFAAxTvdtdM77acLCI9RbI/mnF50/fepGLQF62BtPPMISFl2o7Kax4Ot77fvrh0342TOnpwzvmju3oIQD9efs8u2TX0Vw/G6YkJ+P7N4fUIZCWq+/GMgarK9/fz05hIyKx9uXjlhYEghobTgsGcr4e1zE5wU0AurBFJdW/fvrGooCqseHUYPnhD0e2To51EMio/oxTDJam5X7SykbhwZ7Y4qoH52QEWCr+3bPuv7pFkoMAxHLUaN/vsflZLJmdrwzr2jCaQD4x9/zEYGX7HqpN4aH21Q++tS6fpZS77r2xvVMIQJioSwZM+GhnMcsoeOzr54Z3TLIRSMbZba6PwbLWdvdQGLA1GPzSsr2lLLHiA8uf71/XTgCh52oz5qMfjgdYXlruTwunXledQC72avdmM1jT6ScbURhIuWPR3uxyll5Z1p75t9YhgJBy/GXiNwcKVJZeyfGt7/SNJZCKrdW3PgbrKVreyUbWpkRWbfbw+uKgxiahBYs2PtW+hkchgAtnr1L7uhf3+1U2CzVQMG9g3UQngTySHt1ZzmAtwb1jq5K1RTS8auKKIjafjU9d19RDABfElth66PsZATadnLl3d0+2E8jC3fXD0wxWUjC3F1maPeW6yV9nsUnlrXyuT20CqDRH6xFvbwqySZ2Ye3+XBIVAEsm37WKwDHXXfXVsZGGu7pOX79fYzA5+PeWaGAKojDqD315/is3Mt/2rsU0JJOFsmVbGYBFzWkSShdW9f83RYjY7reTYxofqEMB5clz24ubsAJvemd1zbk0gkIO77/oSBvMrzbjNQValeFIGLc0PskUEi9bed3G8jQAqxultM2W/X2Vr0AIFH/So5lYIJFDrmYMMJqcef7WpjSzKUefqp3ayxeS/17dRJAH8OU/bkfML2VrKvnmgc1UCCbhvml/EYGorb6tCFuW6dNy8kypbT9GSx3pGE8A52apf/8zmcragjPdua+wmMJyt/vh9KoNpHZva3EHWlHjDzC2lbFFlu+YMrEEAf6zhuC8PBtiatFPfPH+Fi8BwnvZfBhnMKbCkRyxZk/fOVScCbGFa1qYn6ikEcDauS17ZdUZlCys9uuiaCAKjKY4B+0oYzKf0xxs9ClmQvUrrZ3KCGltdsPyz3tVdBPBrUfVGritW2eq0sm1/axRNYDCl4fMZAQZz8e95MYGsyFHvllk5HCb8625vFUEA/09J6PDYfg4Xh57rXM1GYCxPr1nFDCainXinp5ssyN703q+KOIwUb5zUMZIA/i3x+ld3Bzh8aEffTa1nIzBWrTvWMZiGtnxANbIge/PJ357hMFO2+ZUuEQRAFN1v3v4ghxc1Z8XougTGcjZ57ASDOeQ9XNtBFtTslYxiDkNlhz+9kiDsxaauPKlxGMrb/GB1AmPZm7ydFWSQnXry7UY2shxbQseZeSqHKa183U3VXQRhS4lO/vvxgMZhKrh/erMoAmNd+2WWyiC1vEXXO8l6qvWencthLbBhVDMHQVhSYi97eq/GYS3r8Uu9CoGBlBq3LylmkFfZ+jHJZD1J/d7N5bBXvvKeJnaC8OPq+uzOIIe7QMabfWIJjORseu8uBkmpBya3c5LlRPSffVRlYC5Y+WBthSDMNJq6LcDAHDzwZmsCQ7lbvHqGQUbaq61jFbKcSxaeDDL8i1aweRRBWEma8FMxw7+V736+AYGh7K1nn9QY5OLPntPWTlajxHaYmacx/I9/3Y1JDoLwEFHr4eNBhv9Rc15pFkVgJHevZTkMMjk+u4ebLCei22snGX6j5OtBKQRhIKLlAzs1ht/IerxtJIGRqt/5VR6DLE7NG1SVLMfd7pGDDGdR9MXABAKrazhuQxnD7wW3jL/ITmAge92hXwYZZHBm3uA6ZDlK/Sc2lTGclXbig6sjCKwsesTyQoazK1w7Op7ASI6aA9IZDKctu6GGg6xn5E9FDH/In/lmDQLLcnSad0pj+EO5C650ERhJSRq9uYjBQFrB8t5OhaxGie3+rZ/hnNSTY6u7CKwooum7hRrDuWjFn3bwEBiq1gPfn2EwSv7KEbFkPVGXv5HH8Kf836fWsRFYjavZ2OMMfy7/6dYuAkM1Gb+2hMEIxStG1SMLuujxnQwVcvrzvtEElmJLGbW6lKEitB9H17URGMnV8m/rVAa9la25qxlZUOJdq8oYKurAy+2cBBbSf8FphorK+7Kvm8BQEXVHpzPoa/vwFBdZj63V3FyNoeJKt98bS2AVKTOOqwwVFzz+npfAWLbYm77JDTLoI5j33e0uG1mPo+r0fJXh/ATWXxZNYAFK1ZF7VYbzox69u6adwFix/eYdDTKIp2XMHRhLFqR4b16lMpy/ginNXARmF9Hts3KG81e64Po4AoPFDpi5N8ggVmDHjGs8ZEXOy189wVAppauHVVUIzMzeZPx+hso5Mu0iAoPZErtOz2IQKLBlUtdosqT48VvKGSrr+EeXEZiYZ+DSYobKKlt2cySB0eLaPpvJIMq2+xt6FLKkjl8WMFwAf8aD8QRmVfPDkypD5QWPPleLwHCOlEd3FGoMoRY4vXJIrJ0syZY84bjGcGHK1vTyEJiQrcpdJ1SGCxPcNjCWwHhVxiw+HGAIpeCBD/p6yKIirlxUznDhTj/ZmMB0Ijt/XMxw4YIvt3ATGE7x3vjqhiBDqPjTX+rtJquqN+YgQ0iUL7raSWAu8femBxlCwf/9iGoKgfFiLxm32scQCtrSCZ08ZFWunvMKGEJE2z22GoGZNH0/hyFUTnzcnkAGESk3flHEcKEK51xbO4osK3rCPj9DyGj5X7ZRCMzC1W+DnyF0AvuGEkhBcdZ+Ye8ZlaGygnlbx9R3KmRZzsZLAwwhpeWPjFMIzMDR+NUCjSGkCt9t6iCQglJz1OL9KkMlaIXpcwZGkpV5b93PEHKBmR0iCeTnuWk9Q8gFVvf1EEgi6do3tpYynK9Tnz/UPoKszNb0xWwGAQKbb69CILuGjx5jEOHIxAQCWcRdevdnORpDxQUzXrmpjoOs7ZqlJQxiHH+rLoHUXFfNL2YQo+j9Swik4are4ol0hgrSNtzVsopC1hZx92GVQZSy79oSSMx9R0aAQRT/xj4OAnnYY7vN2HsmyHBu6pkDb7d228jinBfPLmYQSDt2d5xCICd71ff8DAJphc/XthHIpOYdc3f6GP5Y/rbP76xL1hc9eAuDYIVvNLcTyCiy+7cqg2BLOkcSSMXT+eHPjzCcVdnmD+/t6KYwkPDISQbh/EuvJZBQldu3qQyiadtHVSeQiyP5mic3ljL81v60Ye29NgoHTV4tYtDDrnuiCWRT7eXjDDrQsl5LIZCMEl2/12vHGH6h+KvbmifZKTxcvqKEQR+nXqlNIJem35Qw6KN4eT0C6SiO6K7TtuaUM7DmO/nd/XVcNgoTcXdmagx6Ca641EkgDSX6r0c0Br1oJztHEMgopvvL3+4r5vBWvGfhhDZuCh91nill0NOh2zwEkrDVnZbHoKfse6sSSMlW86pHPs/gsFW+Y+4jPWIpjDjaf6Iy6KtwXDKBHFp9XMKgr9Ov1lcI5ORI7vngJ0dUDj/FW2YMv7ymg8JJZN815Qx6y3uzIYEMOqwOMOitZFErAmm5q100ckEuhxX1mwk9GiXYKby4hx0IMOiveF4LG4HRXP1+1Bj0p+7uQiAxmyux19M/nSwKsvWVndo7J7W2265QuIl7ws9gCDXjGieBoZQq43I0BkNkj41VCOTWasys7w8Ws4Wp+btWPXdVEoUjW4M3VQaj5A9NIDBSw5fKGYxS9FoDG4HkHPX7PDx7YwFb06k1b47umqhQWHJeOq+UwTi5T9YhME7LeeUMxvF/2pFAfrbqf+k3ZVk2W4y2JW1MnxaxFK4cV39fzmCk/HebKATGcPZYqjIYKbChDYEpRNf5y4j396lsEerhj0dd2ijJRWFs6B6VwVglK5oRGMLRb1uAwVjaxmsITMLmjKh1y7Mbj+eWqGxeZfknfpj515QIp53CWszYUgbDacc6uQj0FzeuUGMwmrZ/SCSBmdTvO+WzDRln2ITKjm9Z+tzQpk6CqtMKGSSg7R8aQ6C3qk+VMsjg5IOxBObibnT1/TMW7CrS2Dz8R7778JEhbaMIiJQGr55mkMOhMYkE+qr7UoBBDrmPJhCYjRJVv0v/J/axKeT/+OUTw65u5SX4t+TZJQyyyJocTaCnFrN8DLIoeiGRwIy8s1l6x79++uZWDWt5bAT/lbKsjEEeZ56OItBPwy/LGORROLMhgQl50lhSwdKCU8d2zZtwXXKk22Ej+AVnmx9UBpn4P62hEOjD1mmfyiCT4Fet7ASm40lj+RRn7dm88uNpw3rUshP8XuT1P6oMcin7uIFCoAd7pwwG2WzoRmA6njSWSdGxn1Z9+NLfU7u3iCf4A65+2xikU/xxazuBePaemzQG6Wy9jMBsPGkshfKD6+e/9sQdA67teHGik+Bc+uxikFDZypYEwkXe8lOAQT7ahhudBObiSWNjHduy7sMp91x5yUX1kxM8NoI/1eUQg5TU9XUIBHP2P6QxyCi4+xYHgal40lgnwdJ/KinIP3XyxOFDaz//cNK4gd07JEZFRrhdDrtCUDGRNxxikJS2vqWdQCTnLfkMktKODXETmIknjQUp3rdv3/YN6//p20X/tPDDqf/0+PAhPVo1dhNUUuzoTLaKktz/8GlsEerqy90E4kT2z2dr0HL/Ky/IlpE11EFgIp40FuTElVdeeWmjBv9UgyBEPGOOsXkVHN2/ad3aebNnvzz9Zw/f9R/jpk3/p2ffmD17yXfrdx49WsqmFdzQx0kginfUETYtNf/ogfVrF86e/clL06dPn3rXf42aPP1fXvhwzsJ1G/cfzWYTO9HfSWAenjQWpDCFINQePMEmVHp46/yPpz40/OZePdu1bplcvbqLzkLxVK/euHXbLr16DRr+0Atzlu/LYzPaeS2BIFUmZLMJle376cu3po6+rV+vK9q2alC9ejUnnY09sXr91pf07NUnNXXStLQV231sRvuGOAlMw5PGgpTcQBBid5xmcwlmLn737l5tL25cq1qMW6GKUiLiqqc0a91uyOgPVuWwyey/nECIyIdy2VzKdi98edSVlzRrVCsxxkEVFxVbNaVJ20vvmTz3++NsLureWxwEZuFJY0H8jxOEVOSYU2wOatmZk/sWThl2uSfS7bIrVFk2u8sdldLzkZk/HMs+49fYHPb3shOEnnOQn81BK807eWTJ5Ntax0e6nXaFKsvucEVEenuOSdt6/LTPz+agHRviJjAJTxoLoi20E4RQ7AMn2QT8p/Z+98X0ES0iKJRqdrpjxtLNmcVsBt93cBCEWmT/fDYBNXv3d/945qaLIymElJSrxr615MfDhRqbQNZQB4E5eNJYlC21CEIn8q5jLL38H+c+fUfPZCeJENdywPg3lu4sYdkFl3WwE4RW1K2HWHbq6R/mTR/eLdlBIkRe3PfBN1fsK2HpnejvJDAFTxqLcrAnQej0Pchy8+/7fNLN7Ws6SaSoxl0GP774uMpSC65uSRBSkbfu01hq/j2fjOv7l9o2EimmWY9h05dms+T2DXESmIEnjUXJG00QMl0Os8wKVo+9qlmNKNKB4qndYsjb+1hm6vo6BCHk7H9IY4kFVj7cs2m1CNKBPbZO68Gvby1jial7b3EQmIAnjUXRZtoJQsPV+xBLSivNPfjJwJoRdoX0Y3NFt7x30dGCIEtKW9/SThAqzlvyWVbFp3Z/clstt0Mh/dickU3v/PbkmSBLSjs2yEkgP08aC7OoNkFIRPbbzXLy7Vk+tU8MGaNG6qz1R1WWkrq6rUIQGvYb8llOxRnfPNo9hgzhbDbyk01ZfpbT4SsJ5OdJY2F2dicIBfsV21hG5Rmfju+RSAZy1O//0uocllFwbgOFIBTsPbdpLKOMeZOuSlTIQM3+Om3pSZVltPUyAul50liYkjsIQqHNWpbQybmje9RUyGgRzW+Y9HUhy6f44xoEodBlfYClox6ZPbpHbTsZzd2496T15Swfbc1fCGTnSWNxnosluHApm1SWjX/dva1ruEgOUbV7vHaUpVM2nSAEGi0MsHS+ubd5dQfJIapB7zePaiwb/xcNCSTnSWNx1jYluFBKzX+oLBX1TMbU1hF2kojiTLp5/rESjaVSNsVDcKHqrlRZKsGCPS+2j7KTRBRX4sAvsnwqSyX4VVOFQGqeNBbndDeCC1Xn43KWiW/3P4bFkowaPb7siJ9lkv9wDMGFqfoBS6Vw95xbvSQhZ4uHFh8JslTeTyaQmieNBbrDSXBhqj1bwBLJW/hIt1iSVdJNz2/ys0QO3R5DcCFqvRhkeWi5X4/v6iBZJfabsa2cJVL+ejSBzDxpLNC7MQQXJGrcaZbH8bcGNXCQzCLbP7C0iOVxqI+DoPJiHzvD8sh+Z1BDJ8ks9rIxy8pZHmXjXAQS86SxQPurElyQ1ByWRs7TlyXaSHbuOr3eLWNp7L6UoNI892dpLItDz1yWZCfZRaTcsKSMpXFsJIHEPGkskHY5wQVwXFrCcgjmb38wzqmQGSiuZs8fKtZYCtqeFIWgcpxDTrEc1ILNw2s4FTIDm6ftixklLAftwC1OAml50likFwkqz3bFPpbDkXmDE8hE7E0e/S6fpaAtb0hQOT1OshTUEwsHO8lM6j2xPo/lsPVqB4GsPGksUoaHoLJs7b5TWQbHZveLIbNpcv/iPJaB7/VaBJXRdBNL4dA7Q5PIZJR6Y5YVsRS+u5hAVp40FsnXgaCyGn5RzsbTstJuqqaQ+dgajlhczBLIfTyB4PylfKqyBLJmXpNAJuRscvsqlsJX8QSS8qSxSOUTCSop7qUSNl7J6x2q2smcXLUHrmcJnBjoJDhfVV4sZuMVvtvFq5A5Oevd/qOfjRd4PoJATp40Fmp9LEGlOMcF2GiBYzNbuBQyL1v0kO/OqGy0vC42gvPjefgMGy1w+pNLXAqZlz229/J8Nlz+wxEEUvKksVAHuhBUhv36IjbakVkdHGR2CcOX5LHRMloQnBfXsFw2WODwrJ52MruI1PV5bLTMEZEEMvKksVCF4wkqo8uPbLDcf/SLISuo+bd1pWwsdV5DgvNxxT422OmP+8aSBSj1xm8oZYNtu8JOICFPGgulfVqV4PxdvCjAhvItHFZHIWuwt56wR2VDFb9WjaDi6v7AxipfOqAWWUTkJY8eZYN9W49AQp40Fmt7V4LzVv2NUjbU/rtrO8k6PK2fKmZDnR7tJqio+E9UNtTeUfVsZB3Rrd8uY0OpXxJIyJPGYpU95CY4T9F/97GBApnPxdnJWpzNvyxQ2UCZ/RwEFRPxjI8NFDw2rYadrCWy82enNDZQYJKbQDqeNBZsQT2C8zQ4n42jZc/u4iTr8Qz9tpANtKUVQYVEpB5l46jH57UhC3L1/8bHBsq+zU0gG08aC3byChvBeWl3iI3jXz08kayp6aO72EBzqhBUgL3rj2yckqW3xpI1NZi8N8iGUTd3txFIxpPGoj0RSXA+6n6tsWEyJrQgy4rskeZjw5Q86iL4c7W+CrJhMh9qZiOrirpmro8NE1jchEAynjQWbbOX4DxEv1DCRvHN7hxFFqZUHbKDDXN0EMGfe72MDbOgaxRZmL1m6j42TNnLcQRy8aSxaGpXgopzjs5lgwT2DXQrZG32es9na2wM7cfONoJzc4woZYOUb7u9ikLWZq/1Vl6QDRIYZSOQiieNhfuEoMLsV+9ig2R/1IDCwQ3f+tggCxopBOdi63GYDXLsjRYUBtx9lhZobIyi9gRS8aSxcJnJBBVVewkbo3zj3XEUFpTGT+9V2RD+56IJzqX5KpUNEVhzq4vCQ/3HjrAxtFWNCWTiSWPhykYTVNTzATbE6Rf+4qZwEX31fD8bIu8ugnOo/noJGyLvrTY2Chcx169hY5S8lkggEU8aC6etiiOomJvOsCGOXl+Fwoit9rMlbIhjTQn+kPvOAjaCtmdEko3Ch3LRyz42xOm7HATy8KSxeMduIqgIpf0+NoBW9GE9G4UX9zVby9kA2qIkgj/S4TgboXBWHTuFFcVz848BNsKu7jYCaXjSWDz/m9EEFVB3scr6C+78WxUKP43eOKGx/oqmeAjOLmEVG6B89z1OCj/1ZuWyERbXJ5CGJ411kN6Z4M8lTC1i/fm/vNpJ4Sgu9Sc2wN4+DoKzcU4IsP6K5nVzUTiKfmBTkPVXPo1AGp401kHxGCfBn3EOOMH6y53akMKUo8v8ctadurQJwdn0Ocz6y32qkY3Ck6vzF6Wsv9xrCGThSWM9LKhH8Gdqrmf9bbsljsKW0uj5fNZd2ZRogt9rtjTIusscEkdhy578fAnr7/t6BJLwpLEefP3sBOfmfFNlvZV81dJOYUzx3LojyHrzDyD4ncQXS1lvxV+0cVA4cw08EmS9BWbFE8jBk8a6+CSW4JzsN6qst5zn4ynctf2qmPWWUZfgN5xDcllnWuaT1SjMKZctKWa9nRrtJpCCJ411UdiF4Jxab2W97b7PQ1DnpRzWmfpBAsGvtf6J9bYjNY7Cnu2i106z3n5opxDIwJPG+viY4FwS3yxlfQW/uS6SgMj7twOss7z7nQS/FDGX9bb2CicBUbU7T7LOgu8mEMjAk8b6yGlC8Mccw7NYX/55TR0EP/PckK6xrrTt3Ql+6f5i1pd/Thsbwc/c3fawzopGEMjAk8b6CLxuI/gjSrsNGuvKNyWC4D9sTeeXsa7UT2oT/D+l7R7WlXbiiWoKwb8pTRaVsb5ymhJIwJPGOtnZjOCPJL3DulKPjnMQ/E+V10+zropGuQn+q/onftbVnr+6CP6nzhv5GutJ+yqJwHieNNZJ0RMugj9wZxHrSd08xEPwSwkPH2Zd7WhL8B+uO7JYVxv6EPxK7Um5rKuCMXYCw3nSWC9rWxCcXd0DrKfAqm5ugl+LG5GhsZ4+IPiP5utYT4FlXWwEvxYzLIv1pP3QgcBwnjTWS/FYN8HZRLyrsZ4WXGQj+K2oq4+xns70JfiXmBfLWUfBL1s6CH7LOWAP66n8NS+B0TxprJsfWxOchW1wFuvINzNGIfg9W/0fAqyjrXUIftbrDOuo8OV4hf6PPfgAkKK+/wb8mW23u0M54BCwUVUsoCJFYwHBGI0F0JiQ2NDj4CRRiYIiGhsmKsRC/oot0VE0Gkts2I0YcaUIKCoeIEiRu4PbOzg4ru7ufN7UN5pY4Pb3ndmZ/T2P9r+Cx77bQgdV/ywMzWWmRedcWQDtf+33VzooOa0dtK9l9P1zHZ3TcGd7aEDn5XRQ8sYotK+3358a6KBFB0FzmWnROat6Qfsf7W6oo2PsL6YWQfsmvR+so3PWnRmAFr4hTeeUTwlD+yb7z2qhg+6F5jLTooOmQvtvgeGr6ZyKsR2gfbPeMxvomMzzvaCd9Dmds3JCO2jfrOiuZjqnbhg0d5kWHbS+E7T/UvREho5p+HEU2rfpeB2d03B5FPlun2dSdMzaH8WhfZu9/q+FznmpEJqrTIsOark+AO2rxqfolEz5T0LQvl382p10TMVg5LnolB10zLoTg9C+ldH59lqbTqm7LgTNTaZFJ5X1h/YV+6ynU1KLjw9A+y6FU7+w6ZS5BchrxpBldEp6xYnQvlObyZV0zIfHGtBcZFp0UuOsttC+JHaXTYekF50YhPbd4heus+mQljOQ19rdTaek5x0XgPbdIpO20inNsztDc5Fp0VGrfwDtS07fSKd8NDwIbVfEz9tCh9hvd0M+G7aVDknPOzoEbVfErqihUypGBaG5x7ToqPSDXaH9f12fSdMhG48KQts10bMb6JAdVyKfzaND7EVDQtB2TfsrttIpb3aF5h7TorPqzgpC+5fQL3fQGZlPjg5A21Xhs7fYdMaSowzkK2NsM51hv983AG1XxX+52aYzMqXQ3GNadNhfukH7J+OIhXRGavHxAWi7LnreOpuOSN3ZAfmq51I6I72oL7TdEJlUSYds6QbNNaZFp/0C2j/Fr2mhI9KLTgxC2x3xC9fZdMQXpwaRnwqur6Mj0vOGBKDtjsikrXSG/dswNLeYFp22al9o/3DYWjpj9fAgtN0Tv3wnnfFUR+SnY5bTGct/EIK2e6JT6+iMtcdBc4tp0WmpW6D9w910RsMZQWi7q/BaOqP+LOSlTr9roSPWnhmFtrs6z2qhI1JWG2guMS06bt0PA9CAY5vpBHvzT0LQdl/8ukY6YpWJPBQ4NUlHbDwxCG23GXvcUUdHbB4bgOYO06Lj0s/3gIYOz9MJ9tqzC6C1Ruff1dEJ6euDyD/d3qQjkj+D1iqdbm+gI+b2huYO06Lztv4yDm1cDZ1QPiEOrXV6P1hHJ6w4AvlnXDOdUD4lDK11Ov2RjmiYWADNFaZFFywbbCDf7f96hg7YMbUDtNbq/XgLHdD0uxjyTeEqOmHHte2gtdZ+L9ARC/eC5grTogtS97ZFngtdup1OmNMeWuvtv5hO+Og45JuLUnRA/V1doLWaccQiOqFlGjRXmBbd0DIK+c0Y8gEdkH6yLbQsGL022ZSXua0t8ssBn9ABTb9vDy0LgWMWZ+iA6j2gucG06IpPuyKvmdfTAam/9IWWlcAPPqMDVg8PIJ9EZzbQAS90g5ad01ZkKM++KQLNBaZFV7T8JoZ8dshnlJdZdHQAWnbixevpgAfaI58cuYwOWNgXWpbCP91MB6z+HjQXmBbdsf4s5LOb6ICVpxRAy1b7a7dRXs0w5JE2NzRQ3pqTA9CyFZpEBzTNjkNznmnRHZk3D0H+KkpS3raxEWjZK5rdRHlPIo8cvozytoyPQste2z/QASuGQXOeadEl6VmdkK8CN9sU13RpCJoKHV6wKa7xaOSN+A0Ziqu5Ig5NhV6vpSkuM6sdNMeZFt1SfWEEeeqQzymu5YEQNDX6Lqc4+ykT+aJfJcU13dUJmhqDFqQpbs1wA5rTTIuu+agf8lPBjAZKS7/aB5oigZFrKa5iNPLFzZT36p7QFAmesdqmuNvbQXOaadE9c6LIS4OXUtwHJ4SgqWJeWkVpqaf3Qn7ovoniVg+Cpkx8Yi3FVRwBzWmmRffsKEY+il7XRGlbfh6Fpk7RnfWUtuUc5Icb05RWe04Qmjptb6O82dCcZlp0Udn3Asg7xpAPKa3+1jA0lfZ9Pk1h9oN7IB8cupLSdkxtC02lNn+1Ka25DzSHmRZdlH7tYAP5xrye4p4qhKbWgE8oreLUAPwvOrOBwpoe3AuaWoeWUZr9QASas0yLbqqftQfyzSGfUdpHfaCpdu42SrunPfzvyGUUlnlnADTFCsaWU9r6w6E5y7ToqqoJBcgz11Ba5Y8C0FQzb2umsPL+8L3YNQ0UVnEyNOU6zqyjsPqbwtAcZVp015rByC/xzyls51QTmnLGfi9Q2p3wvQPnUdqlYWjq7ftGhrLsRQOgOcq06C57QRfklV9kKCv9cDdoAozjltmUtbMzfC4yMU1ZmWfaQBNgHPYZhTVdH4XmJNOiy1KzC5FHOrxLWZlFR0ITERpbQVnp64Pwt32WUNgHhxnQRJxVT2Hv9YfmJNOi25KXxJA/xtVQ1rax0IS0v6eZsj4+EP42ppmyKs6NQJMRuj9FWQ0TC6A5yLToujUjg8gXnZ7JUNZDbaFJ2W8hZW2/Av72FmXtvL0ImpSD3qWwN7pBc5Bp0XX2+0MM5IlR6yhrZXdock5soCj7td7ws2N2UpT9zv7QxITP2UxZ9aOgOci06L7M6/sgP3S816aoraca0OQUzExR1I6fB+FfoT/aFLXpGAOanHYzGynr+SA055gWc8EfOyAfGMPXUFT9rYXQJHV/PUNRL/SCfx21jqLS10ATdfCbaYqyj4DmHNNiLmi5qi3yQNsZFJV5+QBoogI/WEVR1acF4FcFv6mnqIUdoMn6YTllPRCG5hjTYk7YdGEI/tf3M4paOzIATVabG3ZQ1P+1g18duoCiNp8RgCYrdD1lrToImmNMizkhUzYqCN+7KENJjbfFoUnr81ebksr3hU+FLt5OSS23tIcmrfMyitp5PTTHmBZzg73oqAB8LvQJRS3qAE2cMXILJdlXwKf6vExJmdcPhibOOH4rRc3rBc0ppsVcsXQAfO54m5LqT4HmhNso6qM4fClwZh0lfX4GNAcUzmykpMqxQWgOMS3mjNd6wtfCj1DUwyFoTuj5CSWlTocvtb+Hkppuj0NzwqHvUtScrtAcYlrMGek5feBnB62ipE8GGtCcEDx7JwXZf4rAj/b7nJJW7gfNEQWlmylpzbHQHGJazB07b+sAH5u6g4JapsSgOWMPi5JWD4AfjUtT0gXQHLLHn9MUlJreBpozTIs5ZOeMPQz41d6v2ZSTebI7NIcYx35IQfW/DsJ/QssoyH69DTSHGEetp6QlPaA5w7SYS5p/0w4+ZZxTQTn2mpHQHBO7dgcFvXsQ/GdoCwV9McyA5phpaUr6KTRnmBZzSvUlYfhTh/9LU07DzDg05/R9J0M51cUB+E3owQzlNN9aCM05nZdQ0svQnGFazC1bLorAlwZ9SEEf94HmpHNqKcjqAr85cAUFvXc4NAcZP6mjoLoe0BxhWswt9saLIvChyEXNFDQemqPM1ylo9VHwm8nbKWfrLyPQnNTtGQqyL4PmCNNijrE3/8KE/+w5j4Lei0NzVr96yslMjMBf9nzJphj79c7QHGWcuJaCPiqE5gTTYs6pvqQNfOeoRsrZcaYBzVnh6RnK+WsX+Muo9ZSTHAnNYR1+10w5ybOhOcG0mHuqLwnDb26loMf2gOa0w1ZSzo4j4SvmzWnKeaYAmtOO+YRyWh4ogOYA02IO2lIagb9EP6ecTaMC0P6p06Gnnlp62d9NOPWYnlHIMac1Us6t8JUD3qSc2sHQvqz9/l0DkFZwcwPlLD4cmgNMiznILp/WAb4yzKaY1L0doQFG11E3PrNoxYYN1bV/V73hsw/f+9Mlg0wIOSxBOWvgKyfUUM79EWj/0G/M5Ptemz9/0UdL353/1iPXX3Bwe8jpsZJytpZAc4BpMSfVzdjDgH8Yd1HOp8OR98Lt95/6bm19c4ZflWncse6pM4riAagXvGIHxbScAB9pN8ummM8OgxYpPHyi9fn2+qaUzX9JNzdsL3/pyiM7RQ1IMIozFGPf1xGaPNNibmr+7R7wj71WU0zTnRHkubYHX/RCLb9RZvWdJ/cIQLk9X81Qim0F4R/dyyimcWoceS7YdfAvXmrg17M/ve77PSIQEH6fclYfA02eaTFHNf+uJ3yjZCvFrNwf+c08+saF/A5VLxR3h3IXbqeYlT3gH6dTzuKByHN7n/fIxjS/RfLFyw8JQTnj7AaKaSmNQBNnWsxV6Tl94BOxOWmKuRF5LXjUbz9s4nerfb64MxTr+C7FJC+EfzxFMTunx5HXekx6Lsnv0vj2VX2DUG2f1ynnyc7QxJkWc1bj04fAHwYuoZjqbshnsStXNXCXZKqePSoAtc6mmPScNvCLolqKWT4Q+Sw68rVtNr+bvX3JtDZQLHThTorZ3AeaONNi7kq/d3QIPhC4tI5SMtcGkb+ipyQaucvSO27eKwiV2iygmKVD4Bfnpiml8dcB5K9I3+d2Zrhr7KYPjzcNKNXrBZtS7EugiTMt5rKKM+Pwvq5zKObT/ZC3jO6/quBuycz7vgmFAmPqKWXHxUH4Q/hFm1JW9kLeCnQZX8ndseOuA0JQalySYt6GJs60mNO++HlbeN7RKymleZqJvHXUky3cTZkVl3UzoM4+L1PM74vgDwd/RjHXIm+Fj5hdw93T9PLJEai0z6sZSmncG5o002Ju23z9nvC4cHETpSw/CnnrB++xFWoe6Ax1IsVbKWXp4fCHCTWUsqEH8lVw9LwG7rZPL41CpfG1FDMRmjTTYo7bfu/e8LbCuykl9X/tkKfCZ3yQYWs0PtwJ6vR5mVIazwzADyIPpSnlhhDy1Q83ZNgKyRujUKjwfYp5BZo002Kua3n78BC8rM9aSvl0OPJUrGSTzdZpebNvAKoELqqmlN+1gx8cuoBSVhyCPBW9IsnWqb29mwF1xtiUsmEwNGGmxdz32ZmF8LAzKKV5dgT5KVZaxVZLv3ZoAKoc8K5NIZ/sBT84ZwuFpGa0R34qvKqarZV6dL8AlGn/GaXsmApNmGnRA8p/tTe8azalVAxBfgqPq2IWUo/3MqDKtfUU0jwMPmDenKaQz0YgP7WfWsnWa7m/CMoErqSUzJNxaLJMi16w9Q99DXhU9AtKeSaEvBQp3sSs7HywM1Q5YB2l3AEfOOBNCkk/1Bl5KTKtktnYfmsUyhz+GaUsHQhNlmnRExoXDYZHDbYp5WjkpXDxOpvZaZwJVYK3UcpH8IFhFRRSca6BvHR5DbOz/Qoo024mpVSdD02WadEb7OqxpgEv+g2l/CWCfBQrKbeZrdpRQShyYBOFNB0Mz4teblOG/XoR8lH0im3M1oYfBaGI8f3PKcS+sw00UaZFr6ibfXAY3hNdQiEt5xvIQ7HSKmbP/vDIANSI/IFCMjfC87r+lUJqz0U+KryqmtlbONCAIp0fzFDIvIOhiTItekb67R9H4TlHf0Ehy3sjD4XHVVGF5kf2hhrGSXWUYb8Rg9f120EhS4uQh9pPraQC6Uf2hCo/LaeQzT80oEkyLXrIuhvaw2uu20kh09sg/0SKN1GNquIw1Nj3NQr5/Ah43QRKuQZ5KDKtkkpsHxeBIt1esylkagyaJNOil9Q91h/e0uZpmzLWnmAg74SL19lUJHEg1Ci4rIUytl0Kr5tLIQ37Ig9dXkNFPuwJRQK/2kkhT3aGJsm06CnplRcUGvCQIz+gDHtOF+SdWEm5TVXS02NQ4+jllGHPCcLbwvUU8lgEeSd6xTaqkrktAEX6rKOQzQdAk2Ra9Jhma3AQ3jG2ijKS45B3YqVVVGhrP6gRu62FMv66P7zt+BRl1H/fQL4pvKqa6jQOhCoPUMoZ0CSZFj3n4/M7wysKfp2mCHteT+Sb8LgqKnUPFDljA2V89kN427UZynirB/JN+6mVVCjzcBSKfK+FQmZDk2Ra9J7k/YOC8Ia9n6SMhpuDyDOR4k1Ua/MhUKPz6zZFNFwWhJdF3rQpInVFFHkmMq2SSq0fAUXiSylkDTRJpkUPavrwohg8YdCHlFE+EHkmXLzOplotN0CRK3dSxgNF8LKDPqOMsqHIN5fXUK2W+02oEbiSQlJ9oQkyLXqR3fDagQXIfcboesp4LoD8Eispt6na0h5Qo88mykj0g5edW0UR9v3tkF+iV2yjaiuOhyL9Kijk59AEmRY9auO03mHkOvNGCjkD+SVWWkX1qoqhyJ8po/oHBrwrcEcTRVSNQ34pvKqayjVcHoYaHf6PQp6BJsi06FVNb5zfGTluzzcpY1tn5JXwuCoKSP2+PdQ4lUIujsC7Or9IGUsORl4pnFpJAX/uDjUCZ22jjFUdockxLXrXZuu4CHLa/lspY04Q+SRSvIkilhwJNTpvpAyrA7zr2OUU0XxvAfJJZFolJZQfA0X6z6eM8hOgyTEtelhqxfS9kcvOoJDTDOSRcPE6myKqz4Ya4bso4+O94V3FWyli6xnIK5fXUERmchRqtJ1NGTumQJNjWvS05o9+2imAnHU3ZbzfC3kkVlJuU4Z9YxxKGMN3UER6IDzLnGlTxJr2yCPRKdso5PmOUOScCoqwnwhCE2Na9Lq3Tt8jgBxVRhm/bYf8ESutophn94Ua+7xCGaXwrN5zKeNW5JHCq6oppaI7FNlvvk0R7/aFJsa06Hm1D4wqRE7qQhnVZwaQN8IlVZSz6gioEb86TRF/hGcduZIiWgYgfxROraScE6DK7U0UsfY0aGJMi96XWX/fMOSisyjjjb7IG5HiTRTUNByKnFpJEZvgVcaoeopYFkPeiEyrpKBpUOX0JEXUXQxNjGnRD1pW390PuedWikjdWoB8ES5eZ1PS2BDUOGQeRbTsA4+KXk4ZN4WQNy6voaQ/QZW2n1CEfUcbaFJMi/6Qqrj3kDhyS+A1ithwJvJFrKTcpqgrC6BG9M4MJaTPhkd1fJwiUkchX0SnbKOod6HMTMp4tgc0KaZF39j6uwHtkUv2+Ywi3umOPBErraKwR9pCkbM2UkLmXnjU3p9QxF97Ik8UXlVNWfURqHIkZXwwCJoU06J/2J/fenwHAzljRDkltNyHPBEuqaK05wuhSK8FFPFODN50aDNF3NwW+aFwaiWFNfSBKuFNFLH9FGhSTIt+0vKpdUYUueKSWkrYej7yQ6R4E8Ut6QRFQrObKWH1AfCmn1DEjp8ZyAuRaZWU1ngEVAneRxmXRKAJMS36S3rjSz/tgNxwTwslbOyDvBAuXmdT3PIiqHL2NkqoPBPedCdFLDoC+eHyGoprPAKqGD+hDKsTNCGmRb/J7Pxw8j5RA67r+hpFvBBAPoiVbLIpb3kRVOm2kRIafg1veo8S7PvaIh9Ep2yjvMYhUObA9RSxeB9oQkyLfrT518d2C8Flg5dRxMXIB7HSKjpheRGUeZUinozCi+ItlFB7KfJB4VXVdEDLhVCmy5MUse0gaEJMi76UKX9sfL8wXHXWF5TQsh/yQLikio5YXgRlJlPEO33hRcemKGHFMcgDhVMr6YSmk6FMwaQ0RZwETYhp0a+2v3PnyR3hoilNlPBJGP4XKd5EZywvgjL9KeLj4+BFl6Up4S/t4H+RaZV0ROMRUOf7GyjiOmhCTIv+1bLujSt6wi2F91DE7UH4Xrh4nU1nLOwEZdqspoRNP4YXPWRTQPP/IQ9cXkNnNB4Bdfq+QREvQhNiWvQzu7H6gdO6xQNwwX6vUEL6FAN+FyvZZNMhj7aDMuE7KCFzlQHvCS6lhG0/g+9Fp2yjQxoPhToFt9mUsBKaENOi7627/0d9OwTgtIFLKeHTPvC7WGkVHXN7HMoERmco4Y428J4DVlPChm7wu8KrqumU+hgUGpekiLbQZJgW84C98HfnDTDhrBO3UMIf94DPhUuq6JyJYajTr5wS/rQ3vOcHmyjhL/C7wqmVdMznUOnYTyjiRGgyTIv5YeuCh84/LAbnBH6apoQrovC3SHE5HTTSgDr7vEwJ7/WH9/x8KyVcC5+LTKukc16FSnv8hSIuhibDtJgv7M2fvHLt8XBK7EpK2DragK+Fi9fZdE7yGCjU9hZKWH0UvGdmEyUMg89dXkMH3QWVAve1UMJsaDJMi3nEbtq+9q5Re7crCEBcx4coYfmR8LVYySabDnr7AChknN1AAenRBrwm+BgllLeFr0WnbKOTLoBSF2+nhIQBTYRpMe9s/cu1px3Wox1k7fkXSnhqb/hZrLSKjrqrA1Q6bgUlXBGF1/R6ixLmFsDPCq+qppMa+0KpIRWUsKoTNBGmxXzUtGruzPOH9YlCTu+NFJCZWQAfC5dU0VGNvwhCpf1fo4S72sFrBr5PCdeG4GOFUyvpqPe7QKm2H1HCxiOhiTAt5qu6T177wzVjhnQJQsThKQrYNhE+Fikup7M+PwVKxe+hhDe6wGtGrqOEHxrwr8i0Sjprdluo9TAlVP0EmgjTooDGKnpDfXnZoudu+fEBbaDcjymhbAT8K1y8zqazXu4OtX65nQJW7QOvmbCdArb0h49NrqGzms8KQK1iStgxFZoI06KAJWO/sOkVmea6rcmVr8745ahDuxS2ixeEoMTNlDC/J3wrNm6TTWfV/SoAtU5fRwHpvvCYwNU2BbyxL3wrOmUbHfb+oVCsPyWk/wBNhGlRQCJ8/lqb3mN/8NZ900qOG3RIrx77di4sLCxA6z1NAZnH4Fux0io6bfWRUKz/Ukr4ETxmD4sSftcBflV4VTUdZt/VAYqFd1DCs1FoEkyLAhIIj91Ar0pXfPj63OcfuOOOO6ZNnDjx/FGjRp1y5KDd9hkF7LgMfhUuqaLTMs+aUKz9azYF3DHIY0b+lQLSF4XgU4VTK+m0zT+FaqE3KWFeD2gSTIsCEkD4/Cr6ws5NmzatX7p4tzVTwJbvw6cixeV0XMNZUG52CwVsXuwxH22ngMpT4VMF0yrpuNd7QrXg7ZSw5AhoEkyLAhIACsZVUVNs4wHwp3DxOpuOW9QGyo3fTk3K4kHwqck1dFztFSGoFphICatOhCbBtCgggb8Jn/RBhppSnwbhS7Fxm2w6LvUjqHfUFmpSnusOX4pO2UbnLesG9QamKWDL+dAkmBYFJPAPIxalqan0EHwpVlpFF7zeAep12EhNygPt4EeFV1XTeampELDfKgpovByaBNOigAT+6YSl1FS6Hn4ULqmiC7acFYKAxdSENF4DPyqcWkkXLGoPAXu+RAm3FkATYFoUkMC/DH+FmkKj4UOR4nK6ID27MyQ8QE1I5XnwoYJplXRB85mQUDiLEn7fCZoA06KABP7FGPAKNXUOgP+Ei9fZdMHHxxuQcA01IWt+CB+aXEM3PFEECcESSnhqH2gCTIsCEvi3QL8XW6gpkopCjBGKtS3qd/IZV1x342+uu+4nJ5/QuzAeNiAuNm6TTRfUXBaCiBHUhCzsAzFGKN6u08CTf3bddTffeN3VY08+uWv7eNiAuIIp2+iGD4cYEDGqlgLmHQxNgGlRQAL/sdd99dTUSIQgpP1+x0+Y9cZmfklT2R9+efJh3QyIipVW0Q2p+wsgozs1IS8XQIbRdv/h4x98O8kvaUk8cNlJ/TsGIKpwWjXdsGVsEDKGfUYBHx8JTYBpUUACX1I0q5aaEo8EISF+2E9ue2cHv0bjZ49eeGRHyAmXVNEViX0gJF5FTUTq9xAR3f8nt87fya9TdvcFg9pBTuHUSrqh/s4OEHL4Agr4Yjg0AaZFAQl8WYdrt1JTYXIA6hWcOCtRbfOb1C99pLSnARmR4nK6oux4SCl4i5qI+qshoP2PZr1RxW+0fdGc4r0gpGBaJd2QeWF/SOnxHAXUnw5NgGlRQAJf0fHS9dQU+IEB1cwz/7S2md8qU710UgdICBevs+mGTWeFICXyMDURtWOh3qlzv2jht6t6a3wniJhcQ1es6gcxHR+khLOgCTAtCkjgqyLnrrapZSt9GBQzh71al+Z3a/jkom4hqBYbt8mmC+zy8VGICf6Cmoiqo6GWYY54uTbD72TXLynuGIRqBVO20Q32+oEGxBi/tingmjg09UyLAhL4bwMXpKll6dM+UKqg/wMN3FXv/6wD1IqVVtEN9vqSMOQEzqYmomI/KFVw5KP13FULTyuEWoXTqukG+7PRIQiauI0CbjShqWdaFJDA/zhsbopadhb3gEpdJ5TZ3HW1Mw6CSuGSKrqisiQCSYOoiVhfAJWKJn7AXWdvnN43CIUKp1bSDXbZT6OQ9OMvKOCeDtDUMy0KSOB/GH1/X0ctK893gzqB/vcmuVtaXhlpQplIcTldkSwNQ1T/zdQk/BUKhQbfv427ZecrJwWhTMG0Srpi7ZgYRB33CQU82RmaeqZFAQn8L2Pv6Ulq2ZjdAeoMXdzA3ZTeMK0QioSL19l0Q3JiHLL6rqQm4WGoEzx1YTN3U2bNZVBmcjVdsW1kFLL6LqCA17tBU8+0KCCBr2FEL6i0qbXe9DZQJXpO0ubua3ikI5SIjdtk0wV2xYQYhO39IjUJU6FMbEJVhrtvx+yOBlQomLyNbrCrTg9CWPd3KODj7tDUMy0KSODr/WBpC7VWmxiGIh1vqGXrPNUjgOzFSqvoBnt9SRjSuvyRmoTzoErHSxrYKg339gwie4XTqukG+7PRIYh7lgJW94SmnmlRQAJfLzDoz3XUWik9Bop0uq6KrdTy3JAgshUuqaIrKkoiENf2FmoShkGRrr9pZivVPd7fQLYKp1bSDXbZmCjkPZ6hejsOgKaeaVFAAt8g0Of2GmqtkzwFarS5fgtbrfn1IQFkJ1JcTlckS8OQF72CmoTDoUbXW2rZaqm5vZGlgmmVdMXaMTE44LYmCjgImnqmRQEJfKOii7dQa5UNJ0CNi7cyCy3zDjGQjXDxOptuSE6MwwHGhdQkdIAS8cu2MQvpl/ZCdiZX0xVbR0bhhJsaKGAgNPVMiwIS+GaRYZ+lqLVC4lCoEBpdy6ykl/U20HqxcZtsusCumBCHI87LUFMvbUKFaGkNs5J6qXcArVcweRvdYFedHoQjzqmhgHOgqWdaFJDAtzAOeHwbtd33Rl8oEDr9C2br/f4BtFastIpusNeXhOGM0zZTU68sBhXOamCW0nP7B9FahdOq6Qb7s9EhOOPMJAWMhaaeaVFAAt9qz2s+t6ntrke7QIF+b2WYrfRbQ4JonXBJFV1RURKBQ07aSE29hVEocOAnzFrq2f4BtE7h1Eq6wS4bE4VDjqqggLHQ1DMtCkjg25mjP6S2ux7tguztMaue2Wt+fUgArREpLqcrkqVhOOV7y6mp91QE2evwSJrZS83tjVYpmFZJV6wdE4NTDvmCAq6Dpp5pUUAC3yE44CVqu+nRLsha+OwaqtAy7xADuy9cvM6mG5IT43DMYQlq6t0fRtbCv9xKFdIv7YXWmFxNV2wdGYVjzDUUcDc09UyLAhL4Lsae12/OUNsdtwSQtR6fUo30st4Gdlds3CabLrArJsThnP7zqan32zCyZQxbblOJ1Eu9A9hdBZO30Q121elBOGg1BdwNTT3TooAEvlt45LtN1HbDr5G14L1U5v3+AeyeWGkV3WCvLwnDQV0fp6ZeaRDZ6nQvVUnP7R/E7imcVk032GtGh+Ck1RTwe2jqmRYFJLArDnugltqu+zWydngtlUm/NSSI3REuqaIrKkoicFLXx6mpVxpEloIjq6hM6tn+AeyOwqmVdINdNiYKR62ggDegqWdaFJDALtnj0pXUdlXjlchWmz9kqE7z60MC2HWR4nK6IlkahqO6Pk5NvdIgstT+SSqUmtsbu6FgWiVdsXZMDM56mQIWQ1PPtCgggV0THf5amtquqRmPbI3aSJVa5h1iYFeFi9fZdENyYhzOKnqEmnrnBZCls+qoUvqlvbDrJlfTFVtHRuGwxyhgMTT1TIsCEthFgT1uqrKp7YrkOGQpPidDpdLLehvYNbFxm2y6wK4ojcNhgd9SU+8oZCnwKtVKvdTbwK4pmLyNbrCTpwfhtMcoYDE09UyLAhLYdcck6qjtgi1jkaVhn1C1Jf0D2BUdLq6iG+z1JWE4bgY19QYhS/13UrH03P5B7IrCadV0g71mdAiOe4gCFkNTz7QoIIHdsO9vN2Sofae1pyE70aubqFr6rSFBfLf205voioqSCJw3g5p6g5Cl21NULfVs/wC+W+HUSrrBLhsThfOup4APoalnWhSQwO7oOGZeitp3KRuB7PR+meo1vz4kgO/S4bo6uiJZGoYLZlBTbxCy02sp1UvN7Y3vVDCtkq5YOyYGF0yigK3Q1DMtCkhgt4T3v7qB2ncoG4GsBE7bQQEt8/oZ+Hbtr6+hK5IT43DDlfXUVNt4MLJz/hYKSL+0F77L5Gq6YuvIKNwwiRKgqWdaFJDAbooe/14ztW9VNgJZid9EEellvQ18m443bKcb7IrSOFxxUQ011Vb2RVZiD2YoIfVSbwPfpmDyNrrBTp4ehCsmUQI09UyLAhLYbV1uXJmm9i3KRiArXRZQyJL+AXyzTr9pohvs9SVhuKO0hppqK/siK4e8Qxnpuf2D+GaF02roBnvN6BDcMYkSoKlnWhSQwO4LD3uynto3KxuBrBy0g0LSbw0J4pu0n95EV1SUROCS0hpqqq3si6yM3EAhqWf7B/BNCqdW0g122ZgoXDKJEqCpZ1oUkEBr7H3VR9S+UdkIZOVMiml+fUgAX6/DdXV0RbI0DLeU1lBTbWVfZKW0kVJSc/vgGxRMq6Qr1o6JwS2TKAGaeqZFAQm0SnzIAzuofYOyEcjKDZTTPK+fga/T/voauiI5MQ7XlNZQU21lX2Sj7UzKSb+0F77elGq6YuvIKFwziRKgqWdaFJBA6xjmiQuaqH2tDwYhK29RUHpZbwP/q+MN2+kGu6I0DveU1lBTbWVfZKP7sxSUeqm3gf9VMHkb3WAnR4bgnkmUAE0906KABFqt/dSVTdS+RtkIZCO4kaKW9A/gv3X6TRPdYK8vCcNFpTXUVFvZF9k49ENKSs/tH8R/K5xWQzfYa0aH4KJJlABNPdOigARaLzTk3o0Zav+jbASysXcjRaXfGhLEV7Wf3kRXVJRE4KbSGmqqreyLbAzdRlGpZ/sH8FWFUyvpBrtsTBRumkQJ0NQzLQpIIBudznquidp/KxuBbBzRRFnNrw8J4Ms6XFdHVyRLw3BVaQ011Vb2RTZOpLDU3D74ioJplXTF2jExuGoSJUBTz7QoIIGsBHv8/GNq/6VsBLJxYjOFNc/rZ+A/2l9fQ1ckJ8bhrtIaaqqt7ItsnEhp6Zf2wpdNqaYrto6Mwl2TKKABmnqmRQEJZCnS68YNKWpfVjYC2RjXQmnpZb0N/FvHG7bTDXZFaRwum7iVmmqrD0QWIpMoLjW3t4F/K5i8jW6wkyNDcNkkClgGTT3TooAEstf7wfUt1P6jbASyMb6F8pb0D+CfOv2miW6w15eE4bYZ1NQbhCwUTKG89Nx+QfxT4bQausFeMzoEt02igMXQ1DMtCkhAgeApj27KUPu3tachGz9PUV76rSFB/F376U10RUVJBK6bQU29QchCwRQ6IPXicUH8XeHUSrrBLhsThesmUcBiaOqZFgUkoILR7cfPNlH7ly1jkY1fpOiA5teHBAB0uK6OrkiWhuG+GdTUG4QsFEyhI5Yci7+JXlVJV6wdE4P7plLAYmjqmRYFJKBGoPtPF1L7p+Q4ZGN8C53QPK+fgfbX19AVyYlx5IAZ1NQbhCwUTKEzlg4CMKWarqgZFUUOeIACFkNTz7QoIAFVgl3OXtxgUyOT45CN4hY6Ir20T6cbttMNdkVpHLlgJjX1BiELBZfRGfaSY2KTt9ENdnJkCLngMQpYDE0906KABBRqe947NdSYHIdsHNtMhyyf1UQ32OtLwsgF8XuoqXe8gSycSKcseaSGbrDXjA4hJzxGAYuhqWdaFJCAUkWXvFrDvJcch2wc0USfqyiJICd0fZyaeqVBZOFE+pxdNiaK3PAYBSSgqWdaFJCAWsFeJXObmOe2X4xsHNJEf0uWhpEbuj5OTb3SILIwvJ7+tnZMDDliPgX8EZp6pkUBCagW7vHThcxv6euRjXgNfS05MY4c0fVxauqVBpGFgavpazWjosgVqyngbmjqmRYFJKBesOjkV2rTzGO/MZCNv9LH7IrSOHJF/3eoqTc7jCz0fpU+ZidHhpArAqsp4G5o6pkWBSQgomDYI+tbmLce7Ihs3Ej/steXhJEzDktQU+/+MLLQ7rf0L3vN6BByRp8NFHA3NPVMiwISEBI4efayJuapR7sgGz+if1WURJA7Biykpp4VQTYuaqJf2WVjosgdh3xBAddDU8+0KCABMfGjrprfxLz0fA9k46A6+lVyQhg5ZNgqaur9pQDZGLWRfrV2TAw5ZMAmChgLTT3TooAEBMX6nv3STuahtw9BNrospE8lJ8aRS07aSE29pVFkY8BC+lTNqChyycgkBYyFpp5pUUACokLtB95Z2WQzz7x7KLJh/tqmH9kVpXHklDEN1NQrjyEb8Ydt+pGdHBlCThlTTQFHQ1PPtCggAXFdJ7+7Oc28suEEZGV4DX3IXl8SRk4xLqQmoR2yMnYLfcheMzqE3HLhNgo4CJp6pkUBCTig83n3LWthHtlwArKy/xv0oYqSCHJLwRXUJPRFVnovo//YZWOiyDE3NVC91IHQ1DMtCkjAEfHvXfZcFfPGjtHISvyGJvpOckIYOabtLdQkDEN27knTd9aOiSHX/CFF9b7oDU0906KABBwS6j7shhXMFz9Ddk77nH6TnBhHrun8IDUJ5yI7IxvoNzWjosg5z1LAih7Q1DMtCkjAMUa08xnPJhszzAPjg8hKp6dt+opdURpHztnrOWoSrkB2Ih/RX+zqkSHknH3/SgEfd4emnmlRQALO6ln6/OraDP3u1rbIzhkV9BN7fUkYuaf3QmoSZiNLYxrpJ/aaUSHkngMXUsALXaCpZ1oUkIDTAt+77I8f1NPfHi5Cdto8b9NHKkoiyEEHr6Mm4TlkqfBF+ohdNiaKHDSijAKe7AxNPdOigARc0Onoi//8Bf3s3e7I0onN9I/khDBy0YAGahKWIUvBUUn6x9oxMeSi0esp4MGO0NQzLQpIwBWhfY++9Klq+tba/ZGlgifoG8mJMeQiYzQ1EZu6IUt7PU7fqBkVRU66sIoCft0GmnqmRQEJuMSItOt2zmNrdzbTj9KHI1sDNtEf7MrSOHJScCI1EZsPRZYCoz6nP9jVI0PITVc3U8Cv4tDUMy0KSMBVbUfcuHDt9gx9Z5SBLEXGb6cf2OtLwshN4Qeoiag9F9kKX7uDfmCvGRVCbgrNoIRzA9DUMy0KSMBtseFTHp5fnqK/XB5Atvb8fRN9oLwkghwVeZaaiJ2TkbUuT6fpfXbZmChyVNfHKKBhJDQBpkUBCeSA9v3PmPKHZS30kd8FkbXBS+h9yQlh5KroJ9RENN+N7B1ZQc+z146JIVf1fZMCvhgOTYBpUUACuSG8R78R17y4hX7xVghZi5xTSa9LTowhZ8XrqYmwn0X2ghMb6XU1o6LIWcetooBlA6EJMC0KSCB3RNt3GXrdO5V1jSl63qoQshe5ooGeZleWxpG7jqEm5L0eyF6ba5rpaXb1yBBy18htFDDvIGgCTIsCEsg1sSOK71xQtqnOpqe1hwo31dLD7PUlYeSwC6gJ+eBwKFB063Z6mL1mVAi5KziOEv7YDZoA06KABHJRweFnXv2HV5d/0UzPOhIqtL29nt5VXhJBLptJTciGM6FCt3vq6Vl22Zgocli731LC7PbQBJgWBSSQqwp6Hjv6opsffre8hV50PlQwej1UT69KTggjp/2VmpCdV0KJ/Z9M06PsNWNiyGWdH6WE6QFoAkyLAhLIaWbXA48cfsl9L5btpMfcAyWMXo820ZuSE2PIadG11ITYt4WgRM9X6VHVo6LIaT3fp4Cdl0CTYFoUkEDui7Qp7NxtwE+uuf/lytq6hsaWVIa5b7EBJYw9Hm+hB9mVpXHktn6V1KQ83hVqdH81TQ+yq0eGkNsOrqKAqrHQJJgWBSTgKZ0Gjy6+cfYz7y75eNXGzdu2NzBnrd8XisSfaKTn2OtLwshxY2upSVk8EIr0erqBnmOvGRVCbjNOpIS1p0KTYFoUkIAnFe03+LRzfjl5+v33P/jciy/PX/o3qyv+rY45YPMJUKXbnHp6Tfn4CHLd9AZqUr44Gaoc9GQDPSa19KwoclzgKkr48HvQJJgWBSTgceFue+/b/8i/OfFH/3bhpN2zgQJ2/BKqGL0eqqe3JCeEkevCf85QwGuTPGb6CgpoPhvKHPR0mp6SWTA8glwX/DMlvHsANAmmRQEJaK9QQOZRKGP0erSJXpKcGEPO2/tdSiiBx3R9hBJ+FYcyPV+lp5QNCiLnhTdRwitF0CSYFgUkoN1FCW91hTJGl8db6Bl2ZWkcue+EVRRgD4bHRG6ihMe6QJ3ur6bpGZmyAQZyX0+bAtJWAJoE06KABLSfUsLyI6FQ/IlGeoS9viQMD7iklgJqesJrLmmggLK+UKjX0w30iNSCQQY84HxKqLsKmgjTooAEtO9RwsazoFK3OfX0hvLxEXhAwe1pCninK7zmzI0U0DzcgEIHPdlAT0jNHxqEF/yOEqp+Ak2EaVFAAlqfSgpouBIqGb0eqqcXJCeE4QV7P0MJDxTCa45ZTgm/DEKlg55O0wMyC4YG4QmLKOGLo6CJMC0KSEDbO0EJs9tAJaPXo03MfcmJMXjC4e9Rwg0mvGa/tynhjxEo1etVekDZ4CA8occGSljVCZoI06KABLTOT1LC6wdAKaPL4y3McXZlaRzecFolBdhnGvCa+FOUsNGEWt1fTTPHZcoGGPCGH1dTwgIDmgjTooAEtNjVlLD5ZCgWf6KROc1eXxKGNxRMoYTkCHjPXS2UcCgU6/l0A3NaasEgAx4xvYES7oImw7QoIAEteCFF/DwMxbrNqWcuKx8fgUd0e5oSlg+E90yqpYRiqHbQkw3MYan5Q4PwiPizNiWMhSbDtCggAQ0n11DCw52hmNHroXrmruSEMLziwNWU8Gx3eM/oSkqwoNxBT6eZszILhgbhFYctpYjjockwLQpIQMORn1DCij5Qzej1aBNzVXJiDF5hnNhCCfd0hPcMWEsJZR2gXK9XmbM+HRyEZ5xdQRHtockwLQpIQMNB8yghfRyUM7o83sKcZFeWxuEZoesowb46AO9p+xElJIdDve6vpZmTMmUDDHhGZEaGEiqgCTEtCkhAQ8f7KeL6ANSLP9HIHGSvLwnDO6LzKKF6LLzoFZsC6q+FgJ5PNzAHpRYMMuAdvV6giLegCTEtCkhAQ/DaFCW8F4KArnPqmXvKx0fgIZ1rKWHNKfCi6zIUYM+NQ8BBTzYw56TmDw3CQ45bRRG/hibEtCggAQ24sJoSdhZBgNHroXrmmuSEMLzkFIpIHAIvOiVFCR8OgISDHksxx2QWDA3CQ4IXNFHEedCEmBYFJKABx6+giB9AgtFrThNzS3JiDJ5yH0W82Ale1LWFEjafDxH7zmKO+XRwEF7S/jaKaDoCmhDTooAENKDn2xRxF0QYXR5vYQ6xK0vj8JS2ayiheVYAXmR8QgmZOwogomhWC3NIpmyAAU/psYgiPu0BTYhpUUAC2t/MyVDCx20gI/5EI3OGvb4kDG85vYYSkmPhTQ9TxCv7QUbRrduZM1ILBhnwlmMbKeLhTtCEmBYFJKD9zbQ6Sqg6DUK6zqlnrigfH4HH3NJICeuOhDddTBEbT4KQbjO3M0ek5g8NwluCMynj8gJoQkyLAhLQ/ub0zZTQcDOEGL0eqmduSE4Iw2M6vWFTwpJ28KbBFJG+KgYhe85oZk7ILBgahMeEl1HEjtEGNCGmRQEJaH9z4OeUYL/UEUKMXnOamAuSE2PwmuErKcH+Izxq3/UU8exekFJ0J3PCp4OD8JreTRTx6VHQpJgWBSSg/U1wIUV8dhKkGF0eb6Hr7MqL4vAa48qdlJCeCI/qPJciKg+DmKJZLXRdZuUAA55zFWU83xOaFNOigAS0v7uLIhqvDUFM/IkmusxeXxKG5+z5JEW0HAyPanMLZVwchJiiW7fTZakFgwx4TsECirDvbANNimlRQALa351NGX/eF3K6zqmnu8rHR+A9w1dTRFUUHhU8O00Rb0chp9vMWroqNX9oEN5zdCVF7LwEmhjTooAEtL/bjzLWjYAco9dD9XRTckIY3hP5RTNFzIVnDd9CETt7QtCeM5rposyCoUF40I31FPH56dDEmBYFJKD9XaiaIlKXFECO0WtOE92TnBiDB3X7E2VcD8/q9x5lXAxJRXfSRZ8ODsKDOr5kU0TiQGhiTIsCEtD+4QXKmLsnBBldHm+hS+zKi+LwosMqKcI+AZ7VYTZlvB2ApKJZLXSJvXKAAS/63keU8WwcmhjTooAEtH/4OWVsGwhR8Sea6Ap7fUkYXhS8lDKSPeBdv6iniC0DIaro1u10RWrBIANeFL6ukSLqp0OTY1oUkID2D4fWUcYVAYjqOqeebigfH4EnxZZQxoud4V0nraaIxlsgq9vMWrogNX9oEJ7U52XKSP4MmhzTooAEtH/YeyFlfBiGKKPXQ/V0XnJCGN50WDNlXBWDd/WZRxH22/tA1p4zmum4zIKhQXhSYGQlZaztBU2OaVFAAto/FM6mjNQwyDJ6zWmi05ITY/CoWyij7nQD3hV5JEMRG38EYUV30nGfDg7Cm9rdmqGMV4PQ5JgWBSSg/UPoQpsy7jYgy+jy+0Y6yq68KA6PavcZZXxwBLxs4laKSN9RAGFFs1roKHvlAAMetd9yCpkGTZBpUUAC2j8N/ZwyNu4HcTfV0kH2+pIwvOqC7ZTxaDd42aDPKWPBAEgrunU7HZRaOMiARxnnUIh9IDRBpkUBCWj/1OtFythxGcS1uSlJ55SPj8Cr4s9kKCJ1bQRe1nYRZey4IARp3WbW0jGp+UOD8KrQyxRSDk2SaVFAAto/xW6jjMzcLhBXdGOSTklOCMOzjllBGZU/g7fdl6GMx7pA3J4zmumQzIKhQXhW7zoKeQiaJNOigAS0fymtpYzPT4e8optq6YzkxBg8K3TNTspYOhjedk6aMiqHGBBXdCcd8ungILxrCqVcAE2SaVFAAtq/HL+CMtKz2kCeOb2BDrArL4rDu3rPtSnjuY7wtqJGyrCvD0Fe0awWOsBeOcCAd7VdRCFVB0KTZFoUkID2L53m2pSx4HA4YXotxdnrS8LwruDZWymj7lfwuvcoJLkHHFB063aKSy0cZMDDzttKIXO7QJNkWhSQgPZvMxspo2FcGA4wb0pSWvn4CDys80MU8sX34XW3UMpYOKHbzFoKS80fGoSHFT6dppCrYtAkmRYFJKD925lbKOSPe8AJRTcmKSs5IQwPM44up5Al7eB1xzdTyLy2cMKeM5opKrNgWBBe9sM1FLJjlAFNkmlRQALav+25mkK2HmfACUU31VJScmIMXhb+DYVk7oLn7bmUQqpPgiM630FRKwYH4WXRm5spZPEAaKJMiwIS0P7NuIdSngzBEeb0BoqxN18Uh6e130Ihqe/D89rMoJCW+4NwRNGsFoqxVw4w4GmDl1LKw3tAE2VaFJCA9v+dblNIfV84ZHothdjrS8LwtkmUUgXvC5zRQCFlw+CMolu3U0hq4SADnlZwaTOF7LwUmizTooAEtP+vcBul3A2HmDclKaN8fATe1vF9SvkDfKBfgkJ23hCDM7rNrKWI1PyhQXjbvvMoZcUwaLJMiwIS0P7jKUpZsx8cUnRjkhKS48PwuLG1lDIKPtDpPkpZeAQcsueMZgrILBgWhLcZZzRQiP1cR2iyTIsCEtD+4wJKqb8RTim6qZbqJSfG4HFtn8tQyObe8IHgJXUU0nhpARzS+Q4KWDE4CI8LvUApdVdBE2ZaFJCA9h8HVlGIvfhQOMWc3kDF7M0XxeFxxpkbKOXhDvCDoz6glHm94JSiWS1UzF45wIDXHd1MKeXDoQkzLQpIQPuPzn+ilNrLwnDM9FoqZa8vCcPrujxOKanzQvCDjs/YlFIShFOKbt1OpVILBxrwuviLFLMgCk2YaVFAAtp/RC5OU8qbB8Ix5k1JqrTiggi8LnjGJkpZdwz84Zo6SlneDo7pNrOWCqXmDw3C805PUsxV0KSZFgUkoH3J8RsoZfu5QTim6MYk1Sk7Bd7XcTbF/Glv+MOwDRRzGpyz54xmKpNZMCwIz+v0RIpS7IOhSTMtCkhA+5JeL1DMU13hnKKbaqnKpyOD8Dxj0EZKSV0dgj+0WUQxr0fhnM53UJkVQ4LwvjPWU8wHIWjSTIsCEtC+JHh1M6U0nWrAOeb0BiphrzgtBO+L3G1Tyuenwy9+naGUmh/DQUWzWqiEvWqAAe/rcF+GYq6FJs60KCAB7ct+sIpilnSAk6bXUoHMspPgB/3qKcV+piP84sCdlJJ5bQ84qOjW7VQgtXCgAe8zvr+GYnYeDk2caVFAAtqXdXshQzElcJJ5U5LZ++hk+EHsYYqpuwb+kaCYLePDcFC3mbXMWmr+0CB8oPBOynmpKzRxpkUBCWhfceUOilnYFU4qujHJbJX9EL5wcg3FfD4I/jGJcl4/AE7ac0YTs5RZMCwIHzC+v4lyroxCE2daFJCA9hUD1lPM9p/DUUU31TI7n44Mwg/a/ilNKfZLEfjHwZsppq4kDCd1voNZWjEkCD8I/ZlyNp5gQBNnWhSQgPYVodcoxp5/IBzV5qYGZsFecVoIfmCcuYFi0mPhIx0eppy3esJRRb9LMQv2qgEGfOGYZsp5vic0eaZFAQloXzXSppjG6QVw1vRatlpm2Unwh65PUE4yDh8JndtCOaVBOKrTrdtstlZq4UADvtBuEeXsnBKCJs+0KCAB7asKt1HO+wPhLPOmJFvro5PhD+Fzt1DOH+ArR3xIOSv3hbO6XV3OVkrNHxqEP4yrpZyPj4XmANOigAS0//Io5TRd2wbOKrpyA1tn+Q/hE91fo5zm0+ErhXdR0HQ4rO3PN7NVUi8OC8If9nszQzHpx9tBc4BpUUAC2n/5IQV9fjgc1q64gq3xxvFB+ENwYiPlLN0XvmJckKSctYfDYfEfVfD/sQcnADbV/f/AP3edO3NmzIwxlrHvJrJljRDSQimiRUqlUKkoqZ5Km+opFSqeVJwsbZa0R2UiJyQhy8g2CINh9u3Ovfd8/v9n+/2en8cyy/2e8z3nvl+vyvi6mYvswf1QLotz8jYCIygqC6ARnKbhJhZHn+khg0X1Pxjiiir5KNVFNpGyhwV6OZbspf06FqfsHYUM5rl6V4gryv9OXbKLC9N0Fie9LoERFJUF0AhOE/NkiAXqRYaruySXK2b/xCiyC880Fuhkf7KbV0tZnEPDXWS09ktzda6I4L4xMWQXsc+zSM8TGEJRWQCN4HSXHWOB0pLJcDWf3BXg8iv8aTDZx8WHWKDPGpPdXHqQxQkubkiGqzV5G1dA8VdXuckuHD0zWCB/BwJDKCoLoBGcrsESFih/gocMF3fZ3EIup9AfU9o4yTaS5pexOAUPR5HdRH+lszgnx/jIcJ7+S4u4vHY92oLsI3Yxi/QzgTEUlQXQCE7nGp/L4ujrLyIT1LnpNy6X0nk94shGRhxlgbb0IPsZHWSB1jcj4zkbT9gW5PLIm9/HRzZyQymLNJbAGIrKAmgE/+WijSxQ2etxZAJ3g3E7SnU+t2DxN5fEO8hGUr8NsTjBdz1kP9EnWKDAS14yga/WiO1+nc8tmL+oZ7yTbKTOdhbpQEsCYygqC6AR/LcZfhYoc5iLTBF//Xf783U+m9CJ32e3d5GtxD3nZ4GOXE129BKLVNSHzBF115pDhTqfTehU+rtdyF6i3yhlkWbEExhDUVkAjeC/9TvCIn3ekEzi6f3EFzuz+QzK/vx57h3NyGYcvQ+wQPqKOLKjDtks0neJZJLkK6csTy/iMzn1mzou1UP24rxqN4t0arCTwBiKygJoBP8t5nMWqXi8k8ziqt931AuLN/8Z4v+Vm/7j3ElD2vvIduKXskjB0WRLNT5lkQru95BpavUb+9LijSf5P2Vs/OC527orZDv1FgRYpK+aEhhEUVkAjeAMbtJZpEN1yEwx9dv3GHj35MlPz18064nJDw/p27lVTRfZ0S2lLNLRJLIl961+Fkjf2JnMpNRv23vo/ZMfe3PRokXvT55856Bubev6yIbct2azSIWTvQQGUVQWQCM4A9+fLNQcF5nN4/NFxyfERfuiHGRXTXezUG+RTXXczCIF5iSRyZxeny8uISEh3udzk121+JWF+rUTgVEUlQXQCM7kORYqZ7SHQLT4BQEWKa8L2ZTv6TIW6dhID4FocfNZqNLXCQyjqCyARnAmnTJZJH1jdwLBosYdZ6EWJpJd9U9nodZ2cBAIdnsJC3WoO4FhFJUF0AjOJPFdFqr03ToEYnXawEIVj3STXVVbEGSRAvOiCMTqsI3F+thDYBhFZQE0gjNx3VTIQmXfFUUgUo23/CyU1obsa1gmC1V4I4FQ1eeXsVB6PwLjKCoLoBGcUdMvWawdFxAI5Ly5iIUqfcpH9uVbzWLtbkogkHNMFov1q4fAOIrKAmgEZ3ZvPou1LI5AnMYHWawNHcjObgiwUIEF8QTCOHtvYbECYwgMpKgsgEZwZhes0VmsO9wEosTNZ7FKp3vIzhL2sFjHx0URiJL8Pgv2W30CAykqC6ARnJn7sXwWa2dPAkE84/JZrIyLyd4eYcE2dHcSiOEcn8diBR6LITCQorIAGsFZtNrHYgU+rk0gxuU7dBYq9LaX7C31AIvlX5RCIEaXIyzYnt4OAgMpKgugEZyF62Wdxcqd7CMQodnyIItV2oNsLm6azmKVPuElECF+DQumvxFPYCRFZQE0grNJzmXBMkd4CMKv+ut+Fmwp2V7PgyxY0bUEAlSbXcqC7exLYChFZQE0grP6G4u2qYuDINxcI06xYCX9yPaqvxFgwTa3JAi76HGZLFhgXgyBoRSVBdAIzqrnMRbt81iCcGuXzqKtSCb7u3IPC+afV5sgzJy9f2fRjl1HYCxFZQE0grOqPo9FC7xAEGYJy1m0ghFusr+4eQEW7NSkaILwqrM0xKJ9FktgLEVlATSCs3IOzmHRjt/iJAgnZVoxi/Ztc4oElx1kwfSMQQ6CcPI872fRgn0IDKaoLIBGcHZ13g+xaNt7OwnCJ3r8CRYtb7ybIsJCnUXb0tVBED6eISze5wRGU1QWQCM4hxsOs2jB5c0IwsY9MJ1F01elUmS4rJiF+6wWQdi4Bhxk4XIGEBhNUVkAjeAcai4JsmhF0xIJwqVVGguXO8lFkcG7gsV71UsQLh3TgizcBzUIjKaoLIBGcC43nmDhTo12EoRH1MIgC/dbQ4oUV5WycDnjCcKk/twSFu7YdS4CoykqC6ARnItvJYuX09NBEA6uqX4WruwmB0WK5KUsnL7nOgdBOCS+WMLC6QvrEBhOUVkAjeCcOhWwePt7OgmqLvr2PBZvPUUO58AsFm9dNydB1XkmlLB4B64jMJ6isgAawbm9z+IF09oSVFnUsAwWr+R6iiApC0Is3pJWDoIqG5DJ4gU+qEFgPEVlATSCc+t5jMUrXdiQoIqcPTeEWLwVyRRBnDceZvHKPognqKqev7ABjl1HYAJFZQE0gnNLmM0GyJ9WnaBKHBd8H2DxCka4KZJUnx9g8Uqn+QiqptkXATbAZ7EEJlBUFkAjODfHZQfZAEWPegiqIu6jAIunf1yfIstlB9kAp+5xEVRFkw/9bICyCwjMoKgsgEZwHomv+9kIQ6MIKq/aO2yEjGso0rwbYgOcuM9HUHl13mIjhN4iMIWisgAawfn0/J2N8OfVLoLKqvF4IRugbH4SRZpWR9gI266JIqis6Ol+NsIfrQhMoagsgEZwPlGvFLMBguv6uQgqJ+7hLDbCkWso8rzMhljf3UFQOd7xfjZC4CmFwBSKygJoBOfVdicbIbCut5OgMnwjD7IRQgtjKfK03sVGCP7cgqBy7jnChljb3kFgCkVlATSC83I9FGIjBNe3JKgE17CjOhvhRCuKQFH3B9kIoXXNHAQV5xz8h85GKHzITWAORWUBNILzi/mFjbGmMUGFOXtksSECj1NEarQ0xEbQ17R0EFRU1PA9bIjQZ3UITKKoLIBGUA7X5LAxvkglqCBXn21sjPWNKCK5bjzEhihZ0NxBUDHOIX+wMU6MIDCLorIAGkE5VFfZGP6lbQkqxDVgQ4gNceoOL0Wm5PdK2RBFCxoTVEzHnWyQJfEEZlFUFkAjKAfn5fvYGCUfNSeoANelGwJsjGUNKVJdepCNUfxJdYKKaJfGBim8mMA0isoCaATlobzgZ2OUzkgmKDdn961BNkbGUBdFKs9LQTZG2SfxBOXm6JAWZGPo77gITKOoLIBGUC4df9bZIHOSCcrJefFBNkjp616KXDV2sUECSxo5CMrH3XMtG2VnKoF5FJUF0AjK58FcNsrrdQjKxdVnGxtl20UUycaVsEFKFjZ3EJSHo+ePbJTce30E5lFUFkAjKJ/aP7BRit5uS1AOrgEbQmyQ4CMU0VK+ZKMULWhMUB4d1rJRgosbEZhIUVkAjaCcBobYKCVLUwnOy9V3Q4CNsi2JIprr2kw2SvEn1QnOr+tqNkzG9S4CEykqC6ARlJPnI52N4v+iMcF5uC7eGmSjBG+kCFfjbyE2Stkn8Q6Cc3MO3hJio5S87iMwk6KyABpBeaXuZOOsucBJcC5Rw7PYMMGZ1SjSdVirs1ECX3V2E5xL1PC9bJyNTQhMpagsgEZQXr57c9k4W3q7CM4uZsQxNs7mjhTxPONPsWGCP3R3E5ydb/QfbBz/jQTmUlQWQCMot/ofBtkwwXX9XARnU+OefTob5vi90QRJn4TYMMHVA10EZ+O97xQbaLmXwFyKygJoBOXmHLSHjRNYN8BDcGbxj2fqbJjQp3UIiNrlsoF29yc4i9gHj7KBDnYnMJmisgAaQflFTS1k4wQPDfEQnEns3/LZQPt7OwiInA/rbKD9w1wEZ+Co8VK2zsYJPRlDYDJFZQE0ggpIXM1GKppcneC/OOt/xEbyP0LwD8nfh9hAJyYlOghO57jgEz8bKLS8CYHZFJUF0Agqol8OG6loWkOC03g6fxFgI61NIPgH1xX72Uin/trYQXCarp+yoQ4MdxGYTVFZAI2gQt5iQ+UvbOsk+E/eK1b72UiZVxL8S8KLxWykvI8bEPwfnv4aG6rwlXgC0ykqC6ARVEjrX9hQpWk9HQT/yz0qPcSGmhZL8G8XamyowDcdCP6Db8TmIBtqQzMC8ykqC6ARVIjn1hw2VHD/5U6Cf/M8lsPGWtPOQfBvrlsy2VChTVe5CP4t4ZFjITZU2WUOAvMpKgugEVRM8swSNlbO6CQHwd+5my4oY2Nl3kjwn2aH2Fh/3lfDQfAPjRaywfwvEMhAUVkAjaCC2q0OsbFOTW/pJCCK6vN5CRur+PVqBP+p9lY22KnXGhH8f66uX7PRvqlFIANFZQE0ggpy33icDVa0vLeTwHPHL0E2lr62BcH/dd0pNpj/w64EFDPs1yAbbO9AF4EMFJUF0AgqKvoVnQ0W3H4LRTzfU0fYaHn9CU6jTPWzwQLrh7sp0iU8dkBngxU+HUsgBUVlATSCCqu2gw2X+USsgyKZs9nHBWy00BQXwWkcqSt0Nlgo89FEimiO2osL2Gj6940J5KCoLIBGUHFdDrPhAkvaeShyKUN/Z8OFPksi+G/9tutsuA9aOClyxV62g433Rz8CSSgqC6ARVJzyWC4b7+dhPopUdR49ysbb0dNB8N88k3PZeGuvjqMI5aj3yGE2nv9+AlkoKgugEVRC/Q+DbLyDTzWgyNT1/QI23vF7ownOpPbCEBtOP/hUA4pIjs5qNpvgm1gCWSgqC6ARVILz0m1sgsIlPdwUeeJGrQ+w8Urfr0NwZm2OsglyP+3hpAh0y2Y/m2B3DwJpKCoLoBFUhmfcSTZBYO+YOIowjnozjofYBDvbOAjOzHlLkE0Q2H+HmyKMo+5rx9kMObd7CaShqCyARlApvvd0NsWyC6IoksRems6myBlCcFbVZpSyGUrfTfVSJIkb9AuboujZWAJ5KCoLoBFUTp2tbI4dt9WkiOFs8XgWmyIwjeAcWn0fYjMEN9yWRJGjxbNH2RRlS5oSSERRWQCNoJIGHWJT6Eff7OCmyBAz+KsiNscXKQTn4B6UzuY49nYbihDRV3/hZ3Ns70kgE0VlATSCSop5KJvNUbzuXjdFgrrT9oXYHFt6uwjOJfrBU2yOgHZbHEWC+s/tDrE5Qte7CGSiqCyARlBZtWb72Rx63kdtnGR37oG/lLBJDt/qITg35a0gm0PPWtDaSXbnGbihSGdzhGZ6CKSiqCyARlBpzb8KslmOTGrkIjvzXfhmHpsl/wkvwfnE/MimOTAuxUl2FtV0Opsm+HlNArkoKgugEVRevx1smrKvh8WRfTW4/zc2TWhhEsH5XZTO5vnkqgSyLWfDuzaF2DS/XewkkIuisgAaQRXcWszmyXypPdlUzOBPCtg8vzUjKAfvyMNsmtD+Vy9ykz25hn6SzeY5cmcUgWQUlQXQCKrAN5NNVPzTnYlkQ64LpmeE2DzHBhOUS/UXC9g8Jb89EE921Gh6RpDNU/RaIoFsFJUF0AiqouFnOpsnlLOql4dsxhFz9/YSNlHxZIWgXByNPw2wifJWdnM7yF4c8XduLmUT6Z/XIZCOorIAGkGVdNyos6k+7BDvIPtw1hiisalKXk8iKK/UdTqbKW9Ol1iyk+TBaWyu35MJ5KOoLIBGUCWuGw+xqfQDL3WLIruIv3JeDpsq+G1rgvK7MovNtfv5tm6yi4S+75WwuXb1IZCQorIAGkHVKJNz2VylvzzRmOzh0jf3sLn0Tf0IKuLRAjbZ6odbkC1E9Zi2L8TmOjIqikBCisoCaARVlDRbZ5MVpN0VS9bX4rntATZZ7jUugopInO5nk+X9cHcCWV/rmduK2WS5UxIIZKSoLIBGUFUJX+psMj135c2JTrIyV51n0ovZbMFxHoIKcTRYEGKThXJ/Ge5xkJU5a0zeW8pmK56dRCAlRWUBNIIqa6bpbL70OxpEkVXFNH8yi81X9GQMQUU1+zzApgv9cnM9N1lVVKuJe9l8+ud1COSkqCyARlBlzku2hth8ZWljUz1kRb7Oj+0IsflK5jcgqLg+v+lsvuKVtzchS4prd/9mlsHWCwgkpagsgEZQdVEjMlgGed9PbEyW4734+V9LWQJlX7clqIzBh1kGBZ+PbuQiq4nq8ZJWxjLYN5BAVorKAmgEYVBtcg5LITdtQjOylOieb20tYSns7O0kqAz3hFKWgZ6V9lgLJ1lKr3e2FbMUssdGEchKUVkAjSAcYl8LshT0/J0vNnc7yBoc3ouXZvpZDkU93QSVk/hiiKWgF/z5YorLQdbgiOk2/0gZy8H/1zgCaSkqC6ARhIXyhZ9lUfRxn7pekp4jpsnw71gaubcRVFqtWSUsi/x5fWu7SX7RjW9d42dZFMxIIpCXorIAGkF4NPw6yNIo+HpshyiSW1Lfv/xaxtI49WwsQeW1XlrK0ihYMqpdDEnNkdTrkZ9ZHvo7NQgkpqgsgEYQHq6eaUGWR/HPz/arRtJyNRr57p4ylkfuKzUJqqL9ihDLo3DtS1dVd5C06tw6Z1eAJfJVQwKZKSoLoBGEiafHRpZJ6a5P723iIBm5er6wKlNniZQubEBQNZ32skz8e7+4tw5Jyd1u6g+ZQZbJd+0JpKaoLIBGEC6uaw6xVEJ5h9R+sU6SisOVfMt3mcU6yyS0vJ6DoGqcvTNYKqG8HTM6+ZwkFYcr+uYvDhfrLBP99z5OAqkpKgugEYRP70yWTWDHs11T3CQLpeHVC3JYNqG0GIIqc152SGfZ/PZkl9pekoQjrnG/10+wbEIbexFITlFZAI0gjO46xvLJ+fyuS+q5yXxRra6csprlE1zTjiAMokft1Vk6OYvv61OPJOBtdM2LG4tZPruvJ5CdorIAGkEYKZOOsIT86YufurI2mcrT8uaXvssMsYS0ni6CcFDuyWIJBfZ8MrFvTSeZydFk6HPLs1hGx27yEMhOUVkAjSCcEqYWspRK9nw3bVAsmcTZ9E513dEAS2nn1V6C8Eh4NMBSKkz/4cW+CWSWBsNnrT1YylIqneQmkJ6isgAaQVglzy5mOemlJ7a9eXkNt5OM5XTXv235oZwASyrjGi9BuCjPBFlSxce2z+gX73aSoRxOd+PRS/ec9LOkip9KJJCforIAGkF4+V4rZollf/ZAx8ZJHjKEw1ezWe+nfy1jiWX0IgijmMdyWGJZn43v1Ki6m4wRXatl/5d+CbC89KxHYgksQFFZAI0gzHyzC1lqgV/m3Htly1gSzFXzomsf+WBnkKWWPoggrKo/eYKllr/+b3f3T413kFiOWl2ue3RxBsst6/F4AitQVBZAIwi3mjPzWXaZK2Y9cm27BBIlpc/IKQs2ZLPsfh/qJQiv5CezWXKhAz+8/fDQjvEkiDul58jnFv2Wz7ILPRdPYAmKygJoBOHmqDuzkOVXnPHrt2/fc0l1B4WXs/HgRxal7cz0s/x2Do0mCLekx8pYfoUHN307644uiRRm7vqDHv04bVtmiC1gXg0Ca1BUFkAjCDtHzdnFbAlluZn7V826tVu82+V0UJU4nE63t/7Aie9sPJhVEGJLOHCNlyD8lFd1toSynKP71746rrvH43I6qEocTpfbU++qBxdvPHCiIMSWEJpXn8AiFJUF0AgE8L1WzJay68sXxvZs07R+jTgvVVR0fO2GLdpffv+0VblsKSdGEgiR8H4RW4l/99JX77y4dZOUGrFRVEEOX3zNRi3aXj1+1tpjbCmFb9YmsApFZQE0AhF8swvZcvK3rVJfuv+mq/v3aNuyZpKbzs1bs/4F7XoPGHrzo68t0faF2HIyJxII0uC9fLac7C1fqs9NvPmafl0ubFEn2U3nFpNc+8KOvfsPvW3y6x9u2Odnyymc1YDAMhSVBdAIhKg5M5+tKXTqwI6fVi6Y9/LUqZNHj77jmr6nG3bn6Hufmjr11QVLVq3dc7iYLerwxBgCUZq+V8QWlX1g05oVH77/ytSp940ePfravqfpd8Po0aOfnTp15vuL1qzffaCYLSr0ZgMC61BUFkAjEMJR970AW11xVtaJ/emnO5SVlRNgqzs6MZ5AnIZqkK0uNysrKyP9NLv+zMrKCrHVlb5Zm8BCFJUF0AjEcDRfXMogq6yHFAKRqi8LMciq+KlkAitRVBZAIxDF91oxg5wODCEQLO6VHAYp6VmPxBJYiqKyABqBML63jjHIKH0QgXDVnzjBIKOsx+MJrEVRWQCNQJzESUcYpBNcPdBLIF7yxMMM8il+JJ7AYhSVBdAIBEqYdIxBMqHVF7sJjBB3cy6DbI6PjSWwGkVlATQCkZTrDzFIJbS6o4vAGN4RxxmkomeO8hFYjqKyABqBWL0PhRjk4V8WQ2AYZ4/fggzyCP460E1gPYrKAmgEgg1aG2SQRe6iFAIDuQas8TPIQl/Xj8CKFJUF0AgEc/VICzLI4eS0Bg4CI7m7fRlikMTXvQgsSVFZAI1ANE+Xz/0MMsj7ay0Co7VKY5DDl20JrElRWQCNQDhngy9CDOYrviOewHjNPggxmM//fgsngTUpKgugERhAWZjHYLLQnyMITFHz1RydwWRZU5MIrEpRWQCNwAhxTx1iMJV/3QA3gTmqPZShM5jqwANRBJalqCyARmCIardt1xnMU7zsYjeBWWJu2slgpq0jCCxMUVkAjcAYUf3X6QxmCUxv5iQwj7v/BgbTBFZf6SWwMEVlATQCg7iap+kM5ih8Op7AVK4OS/0M5gh82cZNYGWKygJoBIZJmJ3LYILg3mEeArNVf/kkgxnypicSWJuisgAagXGSJh/SGYxWmnaZi8B83gn7GYy39wkfgcUpKgugERhIGbldZzBWcNFFbgIZeG/YwmCw4LphPgKrU1QWQCMwkrfPWgZDlb7diEASnsvTAgxG8n/e3UtgeYrKAmgEhnK2/CjEYBg986FkAmm4L1CLGIwTeKOBk8D6FJUF0AgMFjt+X5DBGCWr+roJZOIbdyDEYAz98CgCW1BUFkAjMJrn6u91BiOceqslgWyu+LGYwQglP13uJrAFRWUBNALjtZlbyCDe3oerE0jH1f7tkwzi5b/T3klgD4rKAmgEJqj9+DEGwQJp18QQSMiRcn+GziBYwX0pBHahqCyARmAG5fqdOoNIReoFbgI5RffepzOIpKdf5iOwDUVlATQCczReXMggzuGHfQTyqvdRHoMwevbsegQ2oqgsgEZgEt8LBxgEKV43hEBqyX/5I8Aghr7jvngCO1FUFkAjMIvvxu+KGUQ4PuNCF4HcYgZ9EWQQoez7AR4CW1FUFkAjMI2n5cu5DGGn/35bMoH0XM1fyGUIv+zpFxLYjKKyABqBiaoNPqQzhFdoYUsvgRVUG7pFZwgvfceweAeBzSgqC6ARmKrurFM6Q/iU7R7jI7CK+m8e0xnC6OQbdQjsR1FZAI3AXAljfy1jCJecD7u7CKzDe8uGAEO4+H8b6yOwIUVlATQCk7m7zypmCI/9E+sTWEuXuacYwuPUvO5uAjtSVBZAIzBd8oMHGcLA//UAH4HFOOqM2xZiCIOMcXWdBLakqCyARmA+3yXf+BmqSD/2RAMngfX42n5SxlBVoY9a+whsSlFZAI1ABt5Rv/kZqiJ7aXsCq7pxWzFDVZRsGRlFYFuKygJoBHJo8u4BhkrzbxrvI7AsR/PXMkIMlaUffuNCF4F9KSoLoBFIIv7GbwoYKufojM5uAiurNnhJgKFyyr4fHk9gZ4rKAmgEsvA0/8ufDJUQ+v7a6gRW1+jBAwyVcWxqawJ7U1QWQCOQh9JmVYihgvTCp2u7CKwvqutSP0NFlX7dN9ZBYG+KygJoBDKJGrmlhKEC9OzFbR0E9uAdvsHPUBEl6Tf4CGxPUVkAjUAqrgun79YZyqt09T1JBPbR+M3dQYbyCux+owlBBFBUFkAjkEzMFYuyGcpnyzOtCWzFe9Xc4wzlk79wUCxBJFBUFkAjkE7KiNUBhvM78UaPaAKbcdQe8mWQoRzWjqjnJIgIisoCaATycTd6IFNnOLfAyv7xDgL7cdUac0BnODf94JON3QQRQlFZAI1ASsmzjgQYzkrPWz+cwLZqTkkvZTi7YMbM5gSRQ1FZAI1ATp4BHxwOMZxZ6YbHGzoI7MvTdVYGw9kc/rAfQSRRVBZAI5BVzRvez2E4k/0vdIkisLfYoctPMZxJ7qe3JBBEFEVlATQCedUZ+mMZw+kyZ/WNJbA9Z6ObPy9iOF3op9GNXASRRVFZAI1AYq76t/0WYPgPet7cixMcBJHAXXPwep3hP+m7xqV4CSKNorIAGoHcfDf8UsDwL/7D81IJIoh3yMqsIMO/5Px8VwJBBFJUFkAjkF3NKWtO6gzMZbvmXOomiCxJIz/NZvi7wjXjUwgikqKyABqB9DzNx3xWzHBy1oBqBJGn9j0/FjMUr/9LS4IIpagsgEZgAa4mty4t5MhWsPiaGgQRydX6nvVlHNlCP41tH00QqRSVBdAILMGdPPC7Uo5Yet7cS5KdBJEqqt5163WOXPrmMSlegsilqCyARmAZnRYc9nME0vP2vdiQIMK5L/34sJ8jUfDEioE+goimqCyARmAdnn7v/l7KEUY/uWpyCycBRPd9c0sJR5pgxoc3xhFEOEVlATQCK6l2yTO/c0TJXn5HMxcB/J334qfXFXMkCaa/OaQaQcRTVBZAI7AWX7cJq0s4UmQvvL4xAfwPX7sxq4McMTY9dHGikwAUlQXQCKwmKuWKjwI625+ePatzkosA/pM3ZdCPJTpHAP/PtzXyEcD/p6gsgEZgRU2f2ZgVZDvzZ64em0QAZ+C+4MUtOSG2tYL9C7p4CeCfFJUF0AisqfYtH+wsZbsq+GX2oGoEcDa171222892FTr6w5PtCeB/KCoLoBFYVWy/Z7QCtqFQ5qcPd/QSwDk4ql/x3JoitqOyra/dXN9JAP9LUVkAjcC6otvetLCA7WbfCwMbuQngfKLbjPzoFNtNwdf3dI0lgP9DUVkAjcDKXEntp+3W2Tb0wlVjmsc5CaA83DW6PLM9yPah57zatbaXAE6jqCyARmB13i7Pp2cF2PL0oiNr76pNABXTdtbvx/1sfXrO7oXDfARwBorKAmgENpByy3trT+psZaE/vnqmn4cAKq7WsJkbstjacrd+Oq61hwDOSFFZAI3AFqJa3Tnn92K2qmMrXhxQmwAqq/3ov60rZqvS9330YI9YAjgbRWUBNAK7SOo68t0Mna0n8MOUq1pGEUAVOBLbDZ+3i63o2LL7e9X1EMDZKSoLoBHYhzuxyfC5x3W2Ev+vL/VIiXEQQFU5qze75s1DIbaUwLJRF9T0EsA5KSoLoBHYjLfL8+sO54dYfmVZ+5aOrk0A4dTmr+sO5ulsAWXHty8Y5iOA81NUFkAjsB/vpZMX/5LDUivJWPXmLU2dBBBu0Z0fWrY5K8Qy0/N3rnxrSA0CKBdFZQE0AluK7zB2+ld7ylhKeu4vix6/tgEBCKJ0u/3lT3f5WVLHVk+/t28dJwGUk6KyABqBTTmUZpfcNG11Nssm86vJV3Ws4yYAkaIb9bjplZ+KWDb6/oUTr2gdSwAVoKgsgEZgY85qddvcOOswy2PjS1c2q+0jAAM44+q2HDX/AMsjZ+VfLm9SI8pBABWiqCyARmB7rtQxH2w5cLJYZ/ME8zP3rnt5UDUCMFrDkerOA8cLdTZRMOfwH8vGt/ERQGUoKgugEUQE34W3vrRk9c7sIBuv+M/NK997dGAjAjCJ78KhT3/8087jATZB8aGNK+bd1yuJACpLUVkAjSBixDTte/ezc1ceZAMVpH82c+LwbrUJwGSuFn1vnaJqB/1snFD2pmXTJw7tWMtJAFWgqCyARhBRPDVaXjryqbk//cHC5W5fPnP8tRc3jiUASbhrtrv0hkfn/bC/mIXL3rD8udFXdmoYSwBVpagsgEYQcZwx1es27njd0/N+LWYxDq577YFLWzSqFe91EIBcnNHVU5q0GvL4/C3ZLEbw0Jdvj+7don4txU0A4aCoLIBGEMHcDa8eO/fb7XsyMrPyikNcFWWF2ScO7U/f9MnU27slEoAVNOg/Yfo3W3cfOHIivyjEVRIqyj3+577tae88cXvXGAIIL0VlATQCSGl91YiHX1jwWdqGHX8cP5ET4PIrPnHi8I4ta7/75G9PjxnWtXksAVhN8oX9hk16dv5nP6zb/kfmiRMhrgD/iaN/7Pg5bcWSBc/ef133pi4CEEFRWQCNAP4lplHbPgNuHTXmsSnPzpm3cGXamt8z/ukQ/0vBwYx/2LshLe2zefPeeGbKxFGjhvfp3jLFSQDWFlO/Te8BI0aNenLKC2/Pe39FWtrWjH86Wsr/4j+a8Q8b0tLSPpo3792Xp0wedfPlfS5oVNNFAAIpKgugEcB/cSYm12nZuk3XPv/Ud9i/XH1pn3/o1aH1BY2Tk+McBGA/7sTkWi1bt+7a55/6XzfsX667rM8/dGjdunXd5OSkKAIwhKKyABoBAACAxBSVBdAIAAAAJKaoLIBGAAAAIDFFZQE0AgAAAIkpKgugEQAAAEhMUVkAjQAAAEBiisoCaAQAAAASU1QWQCMAAACQmKKyABoBAACAxBSVBdAIAAAAJKaoLIBGAAAAIDFFZQE0AgAAAIkpKgugEQAAAEhMUVkAjQAAAEBiisoCaAQAAAASU1QWQCMAAACQmKKyABoBAACAxBSVBdAIAAAAJKaoLIBGAAAAIDFFZQE0AgAAAIkpKgugEQAAAEhMUVkAjQAAAEBiisoCaAQAAAASU1QWQCMAAACQmKKyABoBAACAxBSVBdAIAAAAJKaoLIBGAAAAIDFFZQE0AgAAAIkpKgugEQAAAEhMUVkAjQAAAEBiisoCaAQAAAASU1QWQCMAAACQmKKyABoBAACAxBSVBdAIAAAAJKaoLIBGAAAAIDFFZQE0AgAAAIkpKgugEQAAAEhMUVkAjQAAAEBiisoCaAQAAAASU1QWQCMAAACQmKKyABoBAACAxBSVBdAIAAAAJKaoLIBGAAAAIDFFZQE0AgAAAIkpKgugEQAAAEhMUVkAjQAAAEBiisoCaAQAAAASU1QWQCMAAACQmKKyABoBAACAxBSVBdAIAAAAJKaoLIBGAAAAIDFFZQE0AgAAAIkpKgugEQAAAEhMUVkAjQAAAEBiisoCaAQAAAASU1QWQCMAAACQmKKyABoBAACAxBSVBdAIAAAAJKaoLIBGAAAAIDFFZQE0AgAAAIkpKgugEQAAAEhMUVkAjQAAAEBiisoCaAQAAAASU1QWQCMAAACQmKKyABoBAACAxBSVBdAIAAAAJKaoLIBGAAAAIDFFZQE0AgAAAIkpKgugEQAAAEhMUVkAjQAAAEBiisoCaAQAAAASU1QWQCMAAACQmKKyABoBAACAxBSVBdAIAAAAJKaoLIBGAAAAIDFFZQE0AgAAAIkpKgugEQAAAEhMUVkAjQAAAEBiisoCaAQAAAASU1QWQCMAAACQmKKyABoBAACAxBSVBdAIAAAAJKaoLIBGAAAAIDFFZQE0AgAAAIkpKgugEcAZ+VqmpqZ2u27If7u2W2pqag0CsLPE1L/rMXjI6a7qmJqaWpsADKSoLIBGAP9DSb3omjFjXnhn3s+bN2/dvWfPngOZZ3A0Y8+ePTs2b978+bt/e2rMyC7taxGAHaRcdNF1Y8Y+9c473/62efuevztwNPN0R/bv2bNn5+bNv614551JY27vd1FjFwGIpagsgEYQ0Vy+hOR6jZsPH/3i7O9+KSsLBILBYEjXuVx0XQ8Fg4FAWVnuupWzJ4/s1KxBnRoJUQ4CsAhvbGLtek1aX3nzy29/v6e4LBAIBoMhXde5HHRdDwWDgUBZ2am1y2Y+ffNlzRvUrR4X5SCAcFNUFkAjiFDOag3b9rpq5CPvfLEtm8PEf+DnJXMeGt6/U8taCgHIzJHY8MLu19771/k/bs/mMMnYsvD1B4YN6JaaEu0ggPBRVBZAI4g8ruT2A+54bMaynw8Vswgnt37//qsTbut/QXUCkI+rSafBtz8+e9nPfwRZgJxdqz7460PDe7Wq5iCAsFBUFkAjiCxxba5//v0v1+86FWSxSrPSf/p85v3XNvYSgCyc9frc88qiVRszTukslP/wtjWfznn42jY+AqgyRWUBNILI0WDwlM+37T1WFGKjlOUc/ePnDx7uHUMAZnPVH/L8V+mHskvYKMG8o3u3zr23VyIBVImisgAagf05Y5LqdZ34weGyQEhn4+nBQMGGmXempiRGOQjAcK5qdRr3n7z4SFkwpLPh9GCgbNt7I1rXTYgigMqJ+RsLoBHYXHSDrsOmLEkPsdmCG9WHru5Yx0sAxnHEt7hk5AztJJuteMt7Ewd0qOchgIqLeoIF0AjsrM4lt7+wJN3PsijYtODJmzrHEIARvI373/vGioMBlkTOxo+fG962GgFUkOdBFuDXJAKb8rYcOePr30+FWC5lR3/95C8D67kIQKiEXhPe+yG9gCVzeN3i54bWIYCK8DzIAmxrTmBLHR9dtfuEn6WkFxxJ/2JsAwIQJXH4G78czA2wjPSizB0fj23mJoDy8jzIAmxrSWAz3upNh7ydURbUWWZ6sGTry/0axLkIIJwc0TU7jPnWHwixzPRg2bap3erGuwigHDwPsgDbWhLYiathz7EfHGer2PvajV1rOQggTOJbXf6Xb/PZGsq2vz2ia20XAZyPezQLkN6ewDZcDQc+8mlGkK2kdOe8+/rVJICqU7qOev37U2wl/vT5D/aq7iCAc3JcwQJkDCCwiYRBL3+318/WU7Bz+RN9PARQFe7U0R9tOhliyync9tnDHb0EcC59WIBDVxPYgbfT01uOlLBF6QUH0ya0IIDK8l6/ePdJnS0qb9/3k5s6CeCs+rAAhwYTWJ23Rupjm8pCbG3BwlW3N010EUDFOGJSBr59LKCzlenBsu/uaJDgIoAz6h3k8Ds+isDSHDW63r2sgO0hc97wNgoBlF9088uf+S3AdhDKmHtD21gCOIMuxzn88h4msDBP81vnpPvZPorWTrumPgGUi6N6/ynfnmL7KFj38vB6TgI4XfvdHH4FjxNYVnTvv/5wnO1m/5ePX+QhgPOqPebj9FK2l9DhFY+1JYDTtN/N4Rd6i8CiYm5fdbBYZ/vRC/Z9MpgAzsmV+tyvp0JsQ/l73r80lgD+U9sdLMAcAgtyVe/28rGAznall+16JDXeQQBn5Kt92fL8ENuVXrb9yZZxDgL4t0ZfsQDzowmsxtv85g9Osd0dmH1lQxcBnM5RvcvDPwXZ5o69elUDNwH8U6OvWIAv6hFYi3LxpG+LOBKcWnZfqpsA/o/6w2bvCHIEOLn0ng4E8A/1P2UBvmlMYCW+y97bXMiRIu+nl7oSwP/wtnvkyz85UuSse7aLhwCIqr/FAmzoRGAd3suWHwpwJCneO6+HlwD+oensvXk6R5Ci/Yu6uQgg/jUWYEtPAouIqjdyU5nOkSZU9PUVtV0Ekc6Z2O2NwhBHGr3s00E13AQRzvcUC3D0egJLiG4zfiNHqJIfbmzsJohoNQe9f4ojU/FnI1u5CSLbPSxAzq0EFuDt+cTaUo5cBZ8/0NZFELHqXvveUY5cxaseaEYQ0e4OcPiFxhPIr/3MrcUc2fJ/fqIRQWRKGLX8gM4RrWDlg/UIItj1x1mAp6IIJNf01XQ/Q/7GCbUIItDQH7NCHOn0nPX3xhBErGv+ZAFmVSeQWUzqzKwQw98F90xqFEUQSbwNxm706wz/X3DfA028BJGp9zYWYHF9AnlFt5tyjOF//X5f62iCiNH8nvUBhn8L/TamlZsgEnVcxwKsTSWQlbv95A1lDP+p5Kf7GzoJIkLdEV/7Gf5T8aoHmhFEoCbfsAC7LiKQVKMp6/IZTnfyu7EJBPaXOOrT4zrDaQpWjk0iiDh1P2UBSvsSSCn25nUFDGdy6rt+XgKb65WWFWL4b/qpb4ZEEUQYx1sswjAngXySrloV0BnOTC/6tHs1AttyxPb6pERnODO9bFnnOAdBRJkWYAH+4iOQTXyPBSUM55LzZodYAnvydXnpCMO55LzWPYYgkkzKYwFmxRLIJfriFzN0hnML/fbUhW4CG2o6aWMZw7kFf5/SkiCCjD7BAqxIJJBKzac2FzOcX2Ha2EQCu6l+85f5DOdXknZXHEHEuOYgC7C5BoFMLl+bz1AuoZNfdSSwFVeXD48HGcrl5Kc93QQRotduFkBvRCANX6cF+TpDeemnXmvuJbALT7MZuSGG8tLzZzX3EESE5ptZhIEEsmj50B6Gitl0T30CW3Ck3LZFZ6iQHbfXdxJEgBrrWYQHCeSQNHSFn6Gi/B9eGU1gfd7L389mqKiCRVcqBBEgjUX4kEAGrvaz/9QZKk7f9VwzAqur/WR6kKHiAumvNSawv7cDLMAWAglE3/lbCUOl6AVrhnoJrMzb74d8hsopXn85ge1NKmEBchMJzBbdckVAZ6gsvWxuiygCq3KnvpGjM1SWnj/3wigCextWwAIUXkJgLlejyYcYqkTfc3eKg8CSUkamM1TNjvtSCGytQw4LUHIHgamiBi7JZ6iq7PcvcRNYT1TPeYUMVVUwv6uHwMbisliAshcJzJTwzK4gQ9UFNz/kI7CaGg9uKmOoOn3DfUkENraDBdC/IzBRt+X5DOGR/UFLAmtpuTRbZwgH/dT81k4C2/qMRdieSmASZ73Hj+gM4RLaPy7JQWAVjvjrj4QYwiV0dEyCg8CmprIIfw4mMIf70q/8DOHkf7ejm8AaPO3nFDCEU+jdTlEE9jSKRch/lMAUSXenM4SbdkM1AiuoNuKnIEN4lf18WwKBLXVnEYKz3QQmuGDWSYaw0w++2oxAfrXfOsgQfn/OqENgRyksxFf1CQznuVorYRCh6LtLXASS6/VDCYMIxdpFBDaUsIVF2NKDwGCOpJdzdQYx9JwH4x0E8nLUf/64ziCGfvTBmk4Cu4lbwSJkjyQwVnS3T0MM4gTmdPQSSKvTEj+DOAVqJzeBzUS/zkI84SUwUsKdm4MMIvnXDI8jkFP0YI1BqLLVw7wE9uK+i4WYX5vAQLVf/pNBsNDep2sQyKjWo/t0BsH2P5xEYCuOS0tZhI1tCIzTcEUhg3h5nzQgkE+j+Tk6g3An321GYCttd7IIxQMcBMZwKNfu0xmMENpytY9ALlG99oQYjBDaNFghsJF6S1iIR6IIDOFsNCWTwSgHH6jhIJBIrTE5DEY5NjmJwD6qTWMhPk8gMETHRXkMxjn5ZmMCaTjbvJXLYJyiV1sQ2IZrAguRXYfACH1+CjAYKfBVOwJJuPuuKmYwUvGS7i4Cuxh2goUYQCCed/hWncFYoV+GegmkcEN6iMFY/i1DPAQ2cfFmFuIVAtEctZ7O0hmMpp+YlOggMJuj2oRCBsPpuVPiCOyhyTcsxEY3gWBt5voZzOCf3ozAZK4W0/MYzBB6rZGTwA6UeSxEflMCsXqsZDCJf2lbAlO5Oi0rYjBH0UednQR28GQRi1ByF4FInuvW6wxmCa3o6yEw0RU/BxnM4v/pMjeBDdx0lEUILSEQyDcyPchgnsDvQ90EprlpH4OJQrtuIbCBzjtZiN+bEAhT47ECncFMev6kRAJTOGo8lcVgrpJxcQSWV2MtC5F5C4EoKXNKGMxWMq0mgQmczWfnM5gt/5W6DgKrey/AIvhneAnEaPdeiMF8gZnNCIyX+lEZg/ly32nuILC4u4tYiG8aEYjg6v5lKYMMij68kMBo7VYGGGRQvKwtgcV1zWUh/hhAIIDzkg1+BjmUrursJDBUuzSdQQ5lGxsSWJvzTxZCn+QiCDtP3706gyz0PT09BMbxXrtdZ5CFvu9qL4GlLWIxPqlHEG7RN+QzyOTIsGgCo8TcsJtBJunDYgisbAyLsb8LQZhVH32QQS4ZI2MIjOF9cDeDXHaOiyGwsA4sRnCchyCskh4/rDPIRd89Np7ACN7xWQyyOTqRwMJq/MliLIsnCCflsWwG6egnJkUTiJc4JZNBPll3E1iX8iGLEWxPEEbKMwEGGZU9GUMgmKPOjGIGGeXPrOEgsCjPBBZkCkH4NJgaYpBT2WMpBGLVnu5nkFPB6ykOAmtyXFnCYmzyEoRL0/eKGGSV/1ZjApESp/sZZJX3ejKBRbXdwWIUXkQQJg3fy2e7yNr1L5k620XenPoE4iS9Usz2ENz1b7tL2TYK3vARWFPt+SyG/y8E4VFdLWLrOrppzaI5syeMHXtp579r1+pfLuz8d10GjR079e2532zalMfWVTg3gUCUxFfy2LKChzetnTv7qbFj7+rduXPnTq3+LfWizv/Q89ZxT86Z/9OmP9jCil72EViSe0KIxdiQSBAOCcuCbCl6oDA389D2r95/dEyfVtWifVFej8flcjnoTBwul9vjjfL5YqqlXnHf1GUbMo4cyy0KsrUEP04gEMJRZ3oxW4ruL8g+dmjnsrmTbuhTV4n2+bwet8vlctAZOV1uj9fni1aUjn1vn7po64FjJ/OKA2wthW8kOwisaNAhFuPIMIIwaKDqbBmh3APbfv78nYdHtk2kymrSYdRf5n+/fm9mCVtHcG59AhHqTPezdeRl/L7msxkTh7SrRpXkaj9g7LNzv13/x3E/W0fJWykOAgtqsZLF8L8ZQ1BlTd8rYmvwH/7lw1fuv7ZbIwqDuGZX3frEO8t/zQqyNRTOaUwQfonT/WwNZYfSPpg+YXCX2m6qOm+zfrc/M/fbHad0toa815MJLChqVojF0NoTVFXD9/LZAgp2LH161JWdarspnKo17HLtA2/+dJytIG9OfYJwS3qlmC0guOXjp2+/ok0tD4WRI6F5r+vGzfj+cJAtoOANH4EF3Z/NYuTdTlBF1dUilt6fH9zbs2WK4iQRvNUbt71q6je5LL3CuQkE4dX07TyWXXD/ggndWtRRnCSCO6Fhm2tfSctl6RW97COwns47WZCP6xFUSbVlQZZYqOj4nmUPdlS8LgeJ5HBHxXZ56odDOX6WWfDJaIIwctSbF2SJ6UUn9iwemxrtdZFQTo8vuf+za45kl+osscKZNRwEVhO3UmcxDlziIKiC6m+GWFp61palT3RPJOM0GfHW6vRcnaVV9kgiQfjUme5naQWObf3i8Z7VyDCOxsNfWbGjkOVV8HqKg8BqXihlQR6NIqi85CdyWFLBQz/MuKtjDBnMWavPA29vyGdZnXq8BkG4xE73s6z2fDltVCcXGS2p5+OLNhaxrPKejiWwmmvyWZANNQgqLenJEyynzCUPX3FBFJkj7qKbX1wdYDkdf7w6QXh4JxaxnE4sf6Rf0ygyhatm5xtf31TAcjr6EIHVxJ1gQcquJags723ZLKPCH8e3T/GRiRxxjS+bsZuldPRGD0E4eMcfYRkVf3FXu7o+MlNC80tf2BFkGZ28m8BqFrAoX7gIKsdzSy7LRi8+9uP4xj4Xmc7hie749NbsMpZOzg0egqrzjs1i6RQdTxtXN8pFpnN4oi96a29OGUvn6EgvgbXcyqIUdiSoFO/wApZM8MAPz3Rwkjzih83bnKOzZHIGugiqynvDbpaM/+DqJ7tEkTxq3jR38ymWTfrQaAJLaZzDggTecBNUgnvgPpZL8YbXr6tNkolqP/79fQGWir6xn4ugiq7dzXIpWv3qkGQHycXbcfxHO/0sl9+vdBNYSeynLMqWVgSVcOmGIEtEP/bxuE5RJKMa/R9ZVcQyCazrRVA17bazVI4tvuXCGJKQq3bvCWmlLJV1HQmsxDOeRcl5kKDiWn4TYIkcmtK1jodk5Wt02aJilkjgy+YEVdEuTWd56Aee7VbHSbKKanzd8kKWSGhjDIGVdD3GonzdiKCiGn0dYlkET6bdmOR2kMwc3gZPbMrVWRahL+sTVJozdaXOsig7tXZEjNtBMnNGtXp+X6HOsggtrUNgIfWXsShHbnQRVEzSuyyLsj8WXhFHVlBj5MpDQZbF7HiCSnI0WhRgSZRum3ulQlZQe/IPfwZYEv55NQmsw/uQn0WZV4ugQqo9HWI5FK2d1t9FVlFj+Lu7AiyHwCPVCCon7rVilkOJ9ky3GLIIZ8rwt/exJE49n0xgHVfsY1EO9XYQVEDMQydYDqvGtI8mC3FU7/PsdpbDsfs8BJUyIZ+lULJ2YnsXWUnigBf2sByO3xdNYBn1PmNRQjMUgvJz35ihswy23tXYQ1YT1/qZgywDfe/1boJKGHCMpbDupiY+spq4Ti+eYCkcu5TAMhwv+lmUvKYE5ebstVln0+mn1tye5CIrcjd6Kr2Izadv7+0kqChXrz/YfKHc72+IdZIFOTwN/nqsRGfzHbvAQWAVgw+yMC8TlFv71Wy6UOaK4T6yrjqPby1k86W1IaggR/tVITZd1rcjq5FlOVq/vC5fZ7PpP7YisIo6a3UW5XATgnKqvpRNl7N4VE2yNGen534pYdN9lEhQIY6mi0rZbNlfj0khS3NdMHkdm65EbURgFa/5WZSypwnKx/tyKZtt1R0NnGR1MZ0e3cZmK3nBS1AR1aYXscmKvr6zmZOszt3phT1sttwXkggs4oo8FkXf0JCgPLwPnmSTHZjUxEN2EHPhnFw22YlxBBUxMY9NlnFvfS/ZQdwlah6b7NQoL4E1uLazMHmPugjOzz18P5uqbPcTDd1kF94uS4/rbKo9Q9wE5eW+oZBN5T/4anUX2YTD22Nlrs6myulLYBGTWJyf2hCcl/PiX9hMwUN/60C2EjXg22w21fquToLycfbcwWYK7X+7vYvsxHXLjyd1NlNGEwJrSC1kYfIm+gjOJ2Upmyln2XAX2U3yhJ/9bKZPahGUT/NlZWyiwg8HxZDNOBvdl1bGJtI/rEdgCbFfsDg/tiI4n1cDbJ7Q5nGNXWQ/3g7/jz34AIyiwN8G/M7uZtNDGl2QIhBQihSRotIUFWyAihUVUbAAViwoYpdTOTvC2RBEQbHAgYWIKEgRpPfeEwIhQNpmd+f9zrv/fdcslP3Nzsz+nue5nSajJ/gs1FHJfOoQoye4+PYacCFv0yfzGEWHH0+DcgLfzZRTdqsf6vdde4jRU/pKwwS4U3rbqYyiwquhjkLctQcYPYWjm/vhTmndcisYNeauG3xQTnDqEspZcRLU7/F22sxoCR+e1soP1zKSr18WYNRsONsL9Yfa7Wa0mEdyW/kNuJWRNXR9gNFibu7ugXKAzJfDlHMP1O8wWswOM0qC82/JgLs1eHV7mFESntXMgPoDteYzWsp+GuqHuzUet4dRMycHygE8V+VTzuZ6UL+txphSRknh2JZwvaReX1cwSkpeqwb1+zLHhhgdZv7YNj64XfKNuSWMlrf9UA7Q7HvKCT4L9ZsSB+9nlPx8cxZiQZNHdzBKCm5PgPo9cUMLGSULrquGGOBrMmKryegoHwDlAPEvBChnRTOo39JmK6Oj+L3WfsSGlPNyQ4yOLR2gfk/3tSajovyVnDjEhtTuixkl6zpDOcAl2ymnYmwq1K9LW24yGoKLL4k3ECs86cP3mowGc3Eq1G8yWs0zGQ2BxZckImZ40kYfDDMazG9zDCjby841KWdDTy/Ur6n0qsloyJ9QA7Hlku+LGQ2hl9Kgfkv2BEZF/timiCnxfeaVMhqCr2dB2d99pZQTeqc61K/wDtjPKAguu6MSYozR8PmdjIZ9A+KhfsOgAKNh5a2piDHe5qMPMhrybkmAsr2auyiooJcX6n91XGLSeoGp5yQi9mRcszRM65lLOkL9uuZbGQWHJ3X1IvZk3Lie0bDyDCj7e4uSvs6E+h91Pqqg9UqHn+RBLPK3+IRRUPFBbahfkz4lTOsVjKjlQSyKazuxgtYLz4CyvxYVFBS+Huq/JT0couXKl57nR4wyUobsCdNywWFJUP8r/tFDtFxw2XlxiFFGxrCdJi0XGh4HZXep31DStupQ/6VbHq1mFo6tjxgWd8H35bTc3gug/oevz2Zabv+khohlly0I0XK7e3qgbM7Xv4yCKp7yQf2HagtpuW33VUNsa/n2YVpublWo/2I0nkGrhdffn4nY1mrKYVotPLsJlN3lLKKk9Z2g/p3/aZNWW355ImJdzQfyabXQE36o/5T6XAktFvqxVwpinFH36XxarfjpdCibS32WkirerwL1b3rvoNW+au+DSrliBa224yqo/3R+Ia02s6kfMc/I6LeFVtt9oQfK5s7bQEmHBvmg/sloPtekpcyiF6oZUIC3+bRyWsuc09SA+jc1d9Fa5qGXKxlQgDdnboAWW1gfyuayxocpaVErA+r/ZL0epLU23emH+oc6bxygtYIvZ0L9S9r4MC0VXHtzMtQ/VHqrkBYbHQ9lczfvo6SKUclQ/+C/No/WWnwZ1P+Xdf8uWmtv3ziof/LetI+WCs7pGQ/1T5kjdtBapZdD2dzJP1FUfnuof6g3l5YKftnZA/Uvif3W0FoL60D90+lzTVrqm1ZeqH9JH7TJpKUWNoWyN88z5RT1dRLU3z1TQSsVv9PUB/Xv4rsvoKXCr0P9n0rPltFS7zSA+g/J522jpcpe9EPZW41dFFV2hxcKMDqX00r7H08zoP6TJ+eLClqp9BwD6heengW0kHlgRBbUf/HUXhiglXZe7YWyt+cpa2M7KKDeAlpp3yCoX1H9gxJayJxbF+oXdWfTQubmO9Kg/lf9iUdopa+bGFC21nwfRQXG14BKerqYFlp5hxfq11T68z5a6MhTqVB/M4JWWn9NHNSvqfv8Plqo9NFkKFtLHEdZ++9IQMzrvp4WWtErAerXZQ/bTQtt7gEFtN1FC624MA7q12U/VEAL7egCZWvGuYcoa3kLxLqTJgRpmfBPXROgfkvafQW0Tuij2lDpU01aZ0U3D9RvqXRlKS30NZS9VXnbpCjzrQzEtvjbi2mZ4PxGHqjfFnfpNlqneKAfsc53z0FapmJ6Cw/Ub/NdmWfSMsGhHihbu7yAssquQWxrto6WKfu4PtTvO28zrbO1OWKccdZSWqbi40ZQvyv+ms0mLbO1JZSt1fksTFlrT0NMG0PLlEyoA/UHvL1X0Tpj/YhtVcaGaJmpjaD+QNK1y0O0SuAvGVB25r3rIGWFJmUihnU6QquUTmhoQP2RhAu+D9EqRT0R03x98miVwLhGUH8ovtsKWmb7lV4oO6u/hMIODPYjZqX/lVapmFLXgPpjvrYLTVrE/K4aYlmVWbRKxeu1DKg/5m23g1YJT60LZWfGPaWUZa4+34MY5R1xhBYJTs6EOiqenJ9MWuTwcB9i2OAQLVL8clUD6mh4OqwK0yLBofFQdlZvA6XNbGggNrVZTIuUfVIJ6mjlLAzRIj+fidh10m5apPilLKij5Om8KEiLbGsFZWt3UVrFk0mISekvBmiNkgl1oI6ap+3sEK0ReCEDsSruz2Fao+LlLKij5j1vYYgWeQfK1qqvpLT83ohFnm5baI3SCQ0NqKPn6zA7RGtsvcCLGNVlE60ReL0q1DHwdllBixzpBGVncXdQ3NJaiEGZ74RpiYopdQ2oY+Fru9CkJcIfZiI2ZYwP0hrjahlQx8LbbgctMi0Bys4afk9poQ+yEHsuCdISocmZUMfI02EzrRG8ATHJe/1eWqJiaiMD6th4zt5m0hIF/T1QNua/vZjSioanINZUWkNLhGanQx278zbTGssrIxadMpOWqPi4EdQxi79ms0lLfN8Ays6afEtxG3r7EWOGmLRCKLeNAXXsvH3W0RKhhxCDEoaU0hLTG0Edh6R+m01a4chDiVA2FjesiNLC81oZiCkNV9AKodx2PqjjkXTrblpiRUvEnvpraIkVLaCOS9K1e2iJpa2h7Kz+EooLTk5HLPE/X0YrrO7qgzo+afcV0AplL/gRc14I0Qorunmgjk/CfbRE8IkUKBsz7iqhuNDjPsQOo8tqWmFbNy/U8Yp78BCtsKKzgRjTsJgWMNdf6IE6XgnDS2iFvc2g7CxjFeWVXepFzKg0OkgL7OsHdQISXgrRAsHXsxFbkqeYlGduviYO6vilP3uEVvjYB2Vng2iBtWcjVnjO3UgLHLjPC3Ui0j8L0gI7u3sQU3rupgUO3BEHdSLqvl9GC5SeAWVn1RZTXnDmaYgRGW/RAoefy4A6IcZp02mFSZmIJZnvVdACI9KgTkzTL4OUZ77vh7Ix73XllFf2ZnXEhvZFlBd6u5oBdWK8HRfQAiUXIpb03UMLvJMFdYI8rTbTAnv6QNlZ7akm5VU8moJY4P+a8oJTa0GdMM/F60zK+z4OsaPOVJPigt80gDphxhmHKM+cVhnKzi7aSQuU9fMiBlxmUt6S06Eiod8eyqu4BDHDd9URigvOaQUVAZ6b8ylv7w1eKBur8mY5LbCtK9wv7SvKy+8BFRH+kRUUZ87IRKyoPJPizLU9vVCRkPboQcqbXAvKzrpsoAXC358B1+u5l+KO3OOFioyq71Je/tWIFb1KKe7QzfFQkVHr7VKK29/HC2VjCa8EaIGKyfXgcinjg5RW8VI2VIQYp35DcaEpVREj5lHey8lQEWI0nxumuCmVoezspO20QvC92gbczOi1ldKCk+oYUJHi6bbKpLS913kQEzqUU1poZiWoiPG030xxwZ5QtnZniFYIvJAFN6vyDqWFv28JFUFxN+ykuI9rIxYkTzEpLPxjUwMqgi4/RHFz46HsrPLPtETgAT/cy9NjF6XtvRQqoio9U0pp+6/wIQb03E1p63v5oSLJ90KQ0swLoOzM16+Ylsi/Fe6V8RbFPeCDiqyaUynuo0y4X+Z7FRS2//4UqMiq8wXFzUyFsrOaU2gJc0NPuFb7Ikr7LAMq0hrtpLTDbeB+PTdTWHBSJlSEebsup7S9F0PZmdFzKy1hrjjfC3cyplKYuaQJVMR5Lt1PaZO9cLsqb5kU9nMtqIjz3rSXwoITUqHsLPHZUlrju/ZeuFLDYgrbcbEHKvJShx+hsIoz4HKeC/ZQWMF5UAL8o0opbMulBpSdNZ1v0hqz28KN4l4xKavw4VQoCQ0+D1KWOcEHd0t9icIOj4iDklB9GoWFXsmAsjPfrcW0yJxmcKEm6ymrYlJNKBGebusobEsbuFvD3RQ2qRaUjNPzKGz1mVC2lvYdLRKeXBXu81gxZW1qASXEf/thyip7wQ9Xe5DCVnb1QMnw3FZOWcEnUqBs7fT9tEjggzoGXKblQsqquMmAkhL3vklZC06HmyXsoaz8W71QUqq+E6SszQ2hbC3+8QpaJDixoQeu4r/vCEWFPvBByam9jrLKhsXBxQaFKCowNhVKTosfTMq6F8reGvxAq1RMqAtXqT+NshY2hhLk7V9IWTMbwL0y51LW4qZQgrz9dlPW8hQoW/P3L6BVKiZVhYt4++ynqPwb/FCSsl4JUtThPl64Vp+9FFV+CZSojLHlFGX2grK3GpNCtErgvapwj4xxFBUcmwUlymg+h7I+yoRbpbwbpKhXEqFkNdhAWTMSoGzN6L6elgl8UMeAWzQroiRz3mlQwjzX76aoYDu4Vc/NlGQuyIESZvQMUNSuc6Fs7qFSWiY4saEHLvEyRRVcByUudWyAoibApdL+FKSk/OvioKT5/hKipOA7CVD2lv0NrVMxoR7coepeihrvh5LXdAVF7TsJ7tR6BSWVja0GJa/xQopaeiaUzbXPp3UqPqwKVxhgUtL206CscB1FhYbAleIGlFOQ+VMbKAv4+x+gpOIH/FD25n+EFgq8VxUukPADRd3jgbJC2jSKmpsON8qaSklHhvqgrFB9EkVNrw9lc3U+DdM6wW/P8MLxLtpLQebkmlDWaL2TkvZeDjdqG6SkXD+UJYwuqynpwMUGlM11XUcrfdfeC4dLeCdIQZu6QFkk6f5SCgpPTIELjaWkwlZQVnm0hJLGZUDZXPKjRbTS7IvhcK0XU9Dhx1OhrHLqrDAFre4M96myj4KCo/1QVqk+l5K2N4Oyu/rfhmmldT3gaN6hhynHnHsalGXiBuRRUOkwP1znphAFLW5uQFmmVzkl3Qtld56eRbSSufwyPxys1hQKOnSnD8o66VNDFDTzFLhNwrcm5RTf7oeyTvJUSloOZXvep8K0krlncJoBpzK676GgWZWgrHT6Dgo6cIEBl+mxi3LCk2pAWanFTgoKdYOyvSpzaa3Dz1WFU6U+S0GHO0NZawQlvZYGd0kYW0E5W3pCWSp5eBkFjfVC2Z2n2xZaK/BKXTjUyWso6F0flLWqr6egDfXgLi0XUk7gzSQoazWfS0Gb6kLZXsr9B2mt0KQWcKa+QcrZ2MGAspb3tgAFXQV3uamQcra3gLJY/N2FlHPwDij7O+nDEK0V+PpMONLHlFPxQBKU1U6ZQ0HfwFWy3jAp5wkvlNVqfBmmmPDkFCjbM1r8ZNJa4c29E+A8WQHKmdMMynKeK/dTTllduMmZayhncwaU5Ywr91POhu5QDnB1Aa1WODQbjjPQpJhD9/qgrFfz/QqKCT8FF4kbSDklN3qhrJfwJeWUPeyHsr/4F2m54tGN4DCJsykm/G1DqGjosZlyfkiFe2R+RDkzakFFQ9diypleH8oBTppHy5VObe+Fo3TYSTFFt0BFRdr7QYrZ0Q3u0SKfYgr7+6Giwfch5eztBuUAnvN30HKBxRfFwUmeKqWYn9KhoqPrfoopeQLucTflzDgFKiqMc4ooJjw8CcoBEu8+TMuZBfclwzlqfk0x4SugosT7AeV81whu4VlKMQW3eqCiI2uMSTFzakA5QbW/lNN6oVcb+OAUvbZTzPw4qGhpeZBidl0Bt2hWQSnhL2tARUu3bRRT1g7KEc78MUzrBWZdmARniH8sQCmHexlQ0eIfRzGhZ5LhEs+FKaXoOqioyX4zSDHPQTmC76I8RkF4zT3JcIT60ylmRk2oqDG65lHMrEZwh8yFFDMrDSp6Lt5CMWsSoBzBfy+jYv/4LDhB192UUnyTDyp6ssdRzIFucIezt1PMlVBRlDIpRCnBTlDOkDo2yGgI/ni2H7aXOMykEPOLelBRZFywlVLMZ1LgBsaTJZQyPwUqmrrsoZhnoByi3tdBRsW2O6t7YHM1vqOUwkFQUZU5poJSFlaHG2R+TillV3mgomoixSxJg3IGT+fljI6iCe1gc6cfoBBzXhOo6Oq1nVIOt4IbdFhGKXPrQUVX+wpK2dsTyiESBuUxShZenwJbu4NSjjzkhYquytPDlDIcbnBTIYWU3Z0AFV1JuZRS8gSUU1R6oZzRYe55oxHs7AdKWVcbKtquLqKUn+EClV4yKWReC6goM/pQivlZJpRTZM40GSUVS3omw7aygpQy3ICKtrSfKaW8Npyv6TwKKR/phYq2k2dTyobzoRzj1JWMmrJRDbywqRsppbAGVPTdRCmhIXA848L9FLLyTKioi+tfQiFlw7xQTuHttYVRE87tnQ57+pBS3vZCRV/1rRRifuWD0yU+QiEVbydBRV+zHyjl3SpQjpEyeA+jxtz+cnMvbKj6ago5cr4BFX2+xyhlY2M4XeUZFHLgAigbSHwuQCGLWkI5R/bLJYyessX9YEO98ylkek0oGzDOzKeQfdfB6eodppC5yVB2cMFGCim5GMpBMqYEGT1m8TtN/bAZY1QZZZTc5IOyg+xxJmUEx3jgcAMpxLwGyhaSPwxRyKhUKAepkcuo2nRbLQ9spcY3FPJ9Uyh76HWAQr45GQ43k0K2JUHZQ98DFPJ9TSgnab+MUVXySa9k2Mm56yij7LF4KHs4ZSaFrDsPzpaxj0Ie90HZQ+p8CjnSEspJvJdtZnRtf7mVD/Zx2yHK2NAdyibiHimmjNK7vXC084KUkXemAWUTwyjlDihHSRx8kNEVWHJXJuwi/TWTIsKfpUDZRed1FDIuG472fJgyplSHsovqpRTyGZSzJD9xmNFlli3ommzAFk79jjIO3QFlG74PQ5SxpCWcLG0pZZRc64GyC9+nFFIYB+Us2eMCjLbQmHapsINz8yhjfXUo+7iuiDKOXGTAwc7fRRlzmkLZhtGjjEK6QjlMvc8ZdeGNT7TzI+p8t1LIm1A2kr2SQh5IhIM9coQiAi8kQdlHnfkUMhLKaZouZvSVLxlZG9GW+Q6FdISyk1EUMiULzpU22aSI7b2gbCR5BIXMhnIaz7mraAPFcwdlILrqrKaMpclQdnIahWypDedq9iNlzKkMZSPG+TspY1MdKKfxXrLJZPSZpT/0yvIgitqHKcIc7oGyk8TvKCPcBs510RaKKHnEgLKTup9Txr4roBwn7vqtJm1h9qW1fIiaYZSR1wTKVrx3Uch9cCxjaBlF5J8BZS/3FFNE2Sgo54kbcpD2UPxJv9oeRMkUyvi4GpS9nLGPMqbBsZJfoIzZ8VD20mUtZUxLhXKetIfLaRP7pg2ohOjIp4jgnX4oe6k+hTLyE+BUdT6ljEFQNpMx3aSIxa2gHCj9CdrGvq+uSEYU5FDGxk5QNuMbWEERwdZwqrZrKKK0JpTdDC+miO29oJyoxrgA7cIs/v6aqnGwWj/KmHwSlN10XEkRoXvhUEbPEoqYFg9lN213U0T5MAPKiU4aU0wbWXVL0xRY612KKL4HynaqfEAR5kdwqMQHKWOAF8p2cinjjXQoRzp5UgVtJLhiRJdUWChxKUWs7QJlPw+WUMSqDDhT5gSK2Nccyn6GUMZXjaCc6dRZtJXytW+enwLLNNtGCeb0DCj7OW8jRWzrAGequZwiPqsJZT91KWNDRyiHOm0B7SW4ZfptVWCRG/ZTQvFwKBvK+o4iCm6AMzUto4j7E6DsJ24pRQSu8kA5k3Hat0HaS7h046hTU7ywwKgySsjrDGVDxjNllFD6tAFHupYiNnaFsiHPo5QxMhnKqZrPKKftFH/Qu0E8pCV8ShErEqDsqHMBRUxNhSO9RRHT60PZUdsSiviiKpRjtZ4RpP2UfDe8aw3IavIjRbwBZUupayli3qlwpNWUEHw+HsqOas+hiLV1oJyrxSzakbnu43tP90HQeesp4gIoe3qHIjb1gBNVKqaEvBugbCntTxRR2gLKwU5bQFsyD63+uFc6xNxYQAmllaDs6RqKKBoAJ+ocpITlraFsyXN9BUVcAeVgRtNvg7Sn8JH1z5+ZGW9AgOcxkxKm+aDsKT1ICebjfjjQ/WEKMKd5oeyp3QqKeBXK0ZrPKKd9/fRIt5w0A5FW7X2KGOyBsqf4XIqYUB0O9IVJASUPQdlUzY8oYj6Us7X+a5A2VvLj89fmJCKyGn1FCYdbQ9mU70GKmN8MzpOxihL2dYSyKe+IACUchHK4FrNobwdy37itmQ8R1G41JSysA2VTRtcKStjaEc7TYRslbEyDsqurdlPEyVAOd9oC2lzowMqPh7TyI1IuLaOEMZlQdpWzjhICPeE8/QooYQqUbbX8mSLOgXI445QJAdpduLRozdu9K6f6DZywuNsoIXyLD8quqn5AEbfEwXEeLaaEgVC2lTTNpITboRzvpDHFdITiL+7r0qx6Ak5M6ihK2N4NyrYS7gtTwjMpcBrfJEoINYayrydLKeFNKOc7eUw5HeLwqokPX312bZyA6l9SQm4TKPu6dD8lfJ4Np6k+kxK2JELZ12UFlJAL5QK13iynY4QLV0x78ZZOJ3lxfOqsoYQ3K0HZV+tFlLCoBpym9U+U8L4fyr5qbaOE9VlQLlB9ZDmdJFSw8acZz/RunIBjl1NGAcX3GVD2VesTSiiuD6e5eCsl3OWFsi/vfErY1gLKDdKHH6LDmIEjB3d8/fA1Z1TPSEnw4qidSwnbe0PZmGdUmBI6wWmu30cBoTOh7Ox5Sth3OZQrpN2/06Qzla2a9Mx1nVvWr5GeYOCP3UkJi06DsrOb8ilhIBzG+yglLGsIZWdXUMKRh6DcIa7fRjpYYMusD0c/csflPTq2qJWB3zOWEr6sBGVnXddTwjg4TNrLlPBRdSg7q0UJFW9AuUTcxavoePu2LZv3xcTXHh8ypNeF5zZrUC8F/+NrCqh4HcrW6vxICV/DYWpNpoTHkqHsLG47JUxLg3IJT9d5dImygwd3bN28cunP82bPfmP03/3prn7/kEcBB/sjKpo2P+eafv2uOqt5cy/sLa158x79+vW7rHXzeogG36cmBeyHwzSZQwHF13qg7Mw7kRK+PwXKLTzNvqig6wQr/i5QWvwPJgXsaQsrGf6UrM6PfLBk78GDh4r/pujgwb0L3r+3Q3ZKnAF7Mfxp1bo/9NGmgoMHDxcXFx8pOli4bdbrNzVMT/LCUs+UUUBFDUSVN86f/HeV0n+RVfkXzbtf+Df9Rvzimem/yN207+8Wjv/LfgrY3h3K1jx3UcKqc6Dco+aYEqrjsCUD1vFWP/Puz/NN/q+dk+888yQD9pFYr8tDs4P8X6FlY65smgEL9SqkgGBbRImRVKNJu05XDnnwnV9MnL/0b1YeYHTMPg3K1oxulLDlYigXyR5VRHXs5sIyKa0GTdzC37Tj4/6t4mEPVc8d/lUhf0vFypd61/PCKs3zKCB0GaKiZuebR0766SBt4oOqUPZ2aiEF7O8P5SbJD+dTHbMXYRFf++cXlPJ3lSx4okMCoi/tigkbwvw9Zt60wad4YI20HRQQGgLrVTr34amrS2kjf46DsreT51JA+X1QrpI2YCvVsboN1mj48rpS/qHidW+1QLSdP21XiH8kfODnBzJhjS8pIPwyrJZ02183F5u0k0N3Qdlc1Q8pYQSUu8SdtyREdWzawwLemg9ureBRCe55oIoP0eNv8X5hmEeldEHvZAMWeJICzHdhKX/t+zaXhGkzWy+BsrmUJyjhrWwol6n/aSnVsSiNg7z0XvMqeNRCC67KRJR46t63nUev5P0O8ZB3PSUshYW8pw3bQBtacQaU3fUNUsCkmlBuU+W1AqpjsNIHcac8U8BjUvhifURF3NmfBnhM1gyoBHEtKGFVBixT5YYFtKXvq0HZXY99FDD7VCjXqXzPFqqjN9ULYb6un5bxGFV82hFRkH7LEh6rvGfqQlo6JWxsDIt42447QFsyP/dB2V3bpRSwpDWU+6T0XmFSHa0XvZAVf/nPQR6z0NJr42C17Cf2mDxmRz5vDWGJGyhgRydYI+nm5eW0p8BLULbXeBYFbD4HyoV8zb6soDpKNxsQlXRbQZjHwdzRLwmWMk5+u4zHI/R9ay9ExU+ngLw+sIKR/FSxSZs6cjeU7VWdQAGll0C5UsabhVRHpz1EpQ8u5XEqejQdVmowkcdr04VeSIp7iQIO3QsLeE4dT/sq7AVle4l/poSrDShXynxkS5jqKBSeCkkpww7zuJU/nAbr1J7K47f5Qh8EeYdQQOmTkOdpOaOC9pXXHMr+hpVRwD0JUO6UftWCENUfW1YPglLv3M0TcGBgHKxSZ1yAx8/8qSMEGT0oIPQXiPO0mF5OG9uRBmV//fIo4Pk0KJeKbzmV6o/9tQbkeK/bZfIEmJuuj4M1sl8q4YkIfN0aglqVU8BEiGv2dYB2tgbKAS7YSAETs6HcysgYuT9M9Qfeqwwx3h6bTZ4Qc9NFHlih0qOHeWJC0xoaENN4AwV8dRKEVVscoq19AuUA7VZQwJQqUO6V0GdBOdXvezIFYpos5gmb19SAPN91+3jC/pwGMQ1+poBvToasGl/Q5l6FcoC6P1BAbg0oF/OdOf4w1e+6Jx5Skt5jBLyRCnmnreaJO3QtxNT8jAK+awBRVV8poc3dB+UA2d9QwOo6UK5W6+F9VL/naoi5qZgRUDII4uInMhLWtoSUrDcpYElbSEocUkC7uxLKCT6lgNV1oNwt9ZLFVL8t/0JIabrYZCSsqw9p1xYxEkLj4yEk9VkKWHEWJLVdSdvrBOUEb1Qw8nadAuVy3iYTiql+y9auEJL8RoARUfGWH7JyFpmMiL39PJDhu4MCVp4DQTU/D9P2akI5wROljLxwEyjXSx22geo3LGgJGZ5eWxkhu67yQFLSc6WMkNmNIeQGCth1BQQ9QvsLJUM5waAiCmgCFQO6f3mE6ld93xQyqo9npIQmVoOks1cwUooGx0PGFUcYefnXQk7dvbS/XYlQTtB3PwV0gooBRoOndlD9mr+eAhGenvmMmJ2XeSAn7akAIya3AWScv4ORt/8GiPG/SAdYkgDlBD32UcANULHAyLj4xxDV/5pYDSLSJzBywu9UhZzm6xk5pf3jIOL8HYy84L0Q02ULHWBuApQTtNxFATdAxQZv9aeLTar/Nr4yRJwVYAQVtYeYhKfDjKDvsyGi5XwKeAhSkt4N0gHe9kM5QZOdFPAQVKzwXrmklOq//MkHEW8zol6Jh5RqGxlR50JEi3kU8JgPQs5ZRSd4Iw7KCTI2U8BrUDHD0/SVPSbVf3gKItJ3M6I2VoOUHoystyGi4VcU8EYGZCQ/HaATPOqDcoQNFPAaVAzJ6reM6t+FHoOIXgFG1mWQ8i4ja3dlSKg2iQLGZUNG0x/oCAO9UI6wgQLegool/hbvllP9y8HbIGJymJH1IYTU3MHIKr0WEqpNooBx2ZBxcQkdYaAXyhGmUcB3ULEl7bJFAap/KrgZEhqtYYTtTIOM64sZWaG3DQio+gEFjMuGiNTn6AwDvFCOMJECFkHFmhrPbKT6PwU3Q8LVeYywwvMgY1yQEbY4CwISX6OAcdkQUfN7OsM5BpQjTKSARVCxp/vMg1R/l38jJDxbxggrewwiKv3ISNvSDRJGUcC4bIhoeZjO0AbKGSZSwCKo2GPUvXd1mOpvtlwEARmfMNLMvyZBQod1jLTDwyBhFAV8WgcibqdDtIFyhmcoYBFULEpu8145Fbm2KwQ0m8eIW3gyJPTLY6SFX4OEURSQmwMRn9Ih2kA5w1AKWAQVk4yUHhsDVGu7QkDH5Yy4tWdBwt1FjLiPsyHgWZORl5sDCb4AnaG4JZQzDKWARVAxyqj97KYAY93arhBwdT4jbvtlEOB5nZH3VX0IGFLEyMvNgYR2dIh1OVDOMJQCFkHFrPjOfylgjFvbFQIGFjPiioZAQKUJjLylHSBg4AFGXm4OJPSmQ6zLgXKGoRSwASqGZV09q4IxbW1XCLiPkRd4EgJqfsrI29IDAgYeYOTl5kDC7XSIdTlQzjCUAgJQscxoOGQ9Y9narhBwHwWMhoCanzLy9vSBgIEHGHm5OZDwKB1iXQ6UMwylBKjY5q/70r4wY9baroi8jFcpYDQEtFrAyNvTBwIGHmDk5eZAwlt0iHU5UM4wlBKgYl7zv+aFGaPWdEbkZY2hgNEQ0GYRI29PHwgYeICRl5sDCR/RIdblQDnDUEqAUmk3zjjM2LTqbERe1hgKGA0BbRYx8vb0gYCBBxh5uTmQsIQOsS4HyhmGUgKUgveUO+YwJq3tisjLGkMBoyGgzSJG3p4+EDDwACMvNwcSVtEh1uVAOcNQSoBSf+NvNHQDY9Daroi8hCcpYDQENPqGkbenDwQMPMDIy82BhFV0iHU5UM4wlBKg1N/5Gz2zLcBYs7YrBNxPAaMhoOZnjLw9fSDgtkJGXm4OJKyiQ6zPgXKGoZQApf6p3rPrKxhb1naFgHtMRlz5SAioPpWRt/F8CHgyyMjLzYGEVXSIohZQzjCUEqDU/2e0H7chyFiytisEDDjMiNs3AAJS3mPkLWgJAaMoIDcHEmbTKdpAOcNQCiiBUv+mUvc/72IMWdsVAnpsZsRtuxQSnipnxH1VDwJGUUBuDiS8S6doA+UMQylgDZT6D5nt3jrEmLG2KwSctZwRt7I1JNxdxIibmAoBoyggNwcSnqdTtIFyhqEUsAhK/ZeU1uPzKxgb8m+EgJO/ZMT9WBMSem5jpAX/bEDAKArIzYGEQXSKNlDOMIICFkGp/3XqqHWljAUFN0OA/60wIyw0ASIaLmWk5d8ICaMoIDcHEprTKdpAOcNEClgEpX6Fccao+cV0v4KbIeHuIkZY8Z0Q4Z8WZoStaw0JoyhgximQkF5Bh2gD5QwTKWARlPpVSS0Hz6HrFdwMCV23McL2t4WMkeWMLPOHFAiIf4UC3q8GEavoEB2hnGEiBSyCUr/B3+j2+RV0t4KbIaHyckbYpkTIuOAwIyv4GiRUnkAB47Ih4nU6xPUeKEeYSAGLoNRviqty5TdFQbpY4GFIMF4IMbJGQYh/AyPrSGdIqPYhBYzLhojLTTrDIC+UI6ymgIlQ6nd1eWfdEZOu9RREnFXCiAo0g5RnGVkrIaLedAoYmwURDfLoDI/4oBxhAwW8BqV+n7/N8JkH6FYvxkNCwhJG1MJkSGldyoh6DCJazKOA5xIhIus9OsPYOCgnSN1MAa9BqT/iO+XaD/PoTu9mQ8QwRtQ9cZCSNpuRdLgFRLRaSAEPQYb3ulI6wng/lBM02kEBr0GpP2bU7PzCDpMuNKEqRORsYQStPt2AFF+/ACNoQipEdN1EAQ9BSKvFdIQfEqCc4LSdFDAYSh0NI6l2//XFQbrNF/UgIvlpkxETfiQJchrMZuTs72JAxPk7KeAhCEn9c5hOsCQBygnO3EMBN0CpoxXfbdzSfXSX75tCxplbGDFrOkGQf0gpI8WcVBMyehUy8irugZSua+gE6xOhnKDvfgq4AUodg5wBH68J0EUWtISMjD+VM0JKX6wESU2/DTNCdvf1QsYNFJB/LaSkjQ/SCZKhnKDvfgq4HEodk8pd7p9RRNfYcA6EtF/KyDCXtIEo/x0FjIzAW5Uh5AYKyL8WYi7JoxMkQznBXYcp4AwodYzi657z+ga6xPZuEJLwUBEjouS+OMjKnhFmRGw6G0KSHqGAdedCTPIkOkFLKCd4spQCmkCpY5dc+8qp+8rCdL6Dl0BKZq7JSJiXCGnt9jESyof7ICRtFAWsOAtyGhygA3SBcoIpJiOvOAdKHZ+qN3+6+kCYTneTB1La72YE5LWFvEfKGAFzEiGl2ocU8POZEPRwBe3vRigHSJhOAavrQKnjFX/a7e8tOUJnezQJYu4+zBNWNDQO8rInB3nCNrSBmJNnUcDs+hBUYzbt7ykoB6j7AwUsrg2lTkBqu4FjVgXpYK9lQEz2uAqeoOCblWEBT9sfeaIK+vshptFKCvjmZAiKu2QjbW8ilAO0XkoB06tBqRPizW7Rd0I+HWtyVYjxtMjliQlNb2LACv5rd/DEHHoyA3JaFlPAp2mQlPzgQdrdcigH6LqWAiZXhlInypta88IX1x8OmHSglfUhx9vm+zBPgPlzRw+sEd9/F09E+fiaENSOEiYaEJX+fpA2t80LZX9X76aAF9KgVEQYpz8wfdXeEJ1mb2NIOnepyeO37AxY56FCHr/gO1UgyHs7BYTGQVi1b2hzeS2g7O+2gxTwWDKUipS4U699/cvNATpLG4jquY7H7edusFD8yEM8XsEpVSDJ9yQFHBkOaS0W0d72nwdlf4+FKOCeeCgVQb66Fw55Z1kxHaS3AVGXzONxWnCeB1ZKe2Qrj0/F+JMhyv8RBRTeBnFdVtPWim6Esr2klynhagNKRZa3arOuA99ZQ6cY5oEo31nf8XiEvuvsh7XSbtnB43FozCkGRCX8SAF5l0Ocv+ci2lnpCCjbq/0JBVRcBqUiz4hLrXz6kKk7DpeHaHtveCHL2/zzUh6z0k9yvLBafJ+1IR4rM/+RTAOyEndTwPZzIM/X/scw7Sv4FpTtNfuBArZ3hlJyTr1j4uINeaW0tW98kFbpwR08RrtHJCIaGkw+xGMTWtoD4rIpYUMjWOH0L0O0ry/9UHbXfRcFrGgLpURlt7/u8fdzV+6jbeXFQd4V88p5DIp/uMaH6EgfuTHEY7Dvo+aQ15USVmXBEtXeL6RtLTgFyu76lFLArBwoJS6p0Tl9739r1qYgbekkyPO2eG5rmEfJ3DayaRyiJaXnhEM8WoG5t1YzIO8uSlgKi2Tdu5F2tb4rlM3F300Jk0+CUpbwVmnQuutD7/+YH6bd9IAV0rtNDPHofHh2GqLIU/PGxTw6Bx/LiYcV3qUAczKsknzuXwO0p/wboWwu/RVKGJsBpawTn5pZteGVw99dXHC4pDxo0h6GwxKetE4zS0L8A6HCry9KNxBdcVVvW1Fm8g9U7BzbLBGWMDZQgPkmLONJv3VPkHYUGGlA2Vu1qZQw0gOloqHxhff9OXfRqk27DpYy2r6AVeLPnbDqEH/HoXXvdYyDHWT3/3pLGX9bKH/RU3VglZN3U0BoAKxU+/UN5bSht9Oh7K3hRgoovRtKRU+lJuf0GfLEXyZPW7h8T36A0bIpEZbxtxj22dpy/qry1Z/cfwZsI63bszN2hvhrzIOL/nJjbVjnvP0UEOoBS/nbjV5eQdv5sgGUvbU8QgF510GpaPNkntT6rD5XDhr6yCtvffHlqk35IVprZ2NYyFOt252v/bCf/yV/9ksDO1f2wE68J1/64Fvz9/E/VWz69Inr2yTCSvcWU0BFA1gsseNDMw/QZlafDWVrRm9K2HQhlLKN+Iwqdeq3aN2h27nnXn7vvfc+NX78+I+X/8s2Cim4BNbyZuZ0vPT20Z8v/z+fvHJnrw4N02FD/ipNOlx11zszlv/DgglP3XJ+65OTYLH3ghRQEQ/LJdQ7/4nlPD7hoiMUcOAyKFvzjKKE5e2hlB154uPjE1NTUytl/0uVmjVr/kwBJY/DekZccqXs/1Mp2e+BfXn9qenZ/5CVlhhnwHKJX1HCGkSDJzG7xZBPdhwuKasIBk0yFPxFoOwXpUd+cbjo4N/kL/zmF6Of+sWtl/5Ny1ZfUEB4kA/KznzfUsJ3daGUk0ymgPCHHig7O3UxJXyFKDq5660jX331m3nzJr76i/v7/+Ky03/R0I9fV+lVSngpHcrOkksowPzYD6Wc5DFKmFUFys4u3UYJo+A09wYpYNbJUHbWhhICr0ApR7mMEladBWVn9xymhDvgNP0LKWDXaVB2dgclFA2GUo5yOiUU9IeysdQxJiV0h9Oct44CQpd6oGxsAiXs6wulHKXuOgoIP2lA2VfjWZQQagSnaT6fEv4UB2Vf3rWUsK0ZlHKU6t9QwpSToOzr/O2UsLgGnKbaDEqYnQBlX2fsoYR16VDKUTLepISf20LZlvfmICVMzoLjvBWmgKLKUPY14CAlfAelnCXhHko4fBmUbaWNoohRKXCcp0opoRuUfb0coISXoJSzGNdQxIOJUHZV+yuK6O+D41y/jxIeh7KtzC9NSrgbSjlM5x2UMKUalF01z6OEou5wnnO2U8IcA8quOq2hiHZQymFaLaaEbY2gbMpzNUWsbQvnqbOOEnbXhbIpY3ARJYQqQymHqTeNIs41oOwp7jWKmFYPDjSPEgqvgLKpSm9SxA4o5TQpL1PESA+UPSUuo4ixWXCgd00KKP8TlE01zqWIj6GU0xj3l1HCfB+UPeWUU8RIHxzonhAFmF9lQdnT+bsp4gEo5Th9d1NCsC6UPd1NEfuuhxOdEaSE1R2hbMk/OEwJZnco5Tgtf6KIAVC2FPc9RazqBEcqooTih7xQdlRlAkUUNoRSjpM1kyKm+aDsqPFeivi2Hhzpe4qYWAXKjhpuooi5J0Ep5xkTpIQdp0DZ0c2HKCE8IR6O9DxF/NQGyoaM3hUUMSYDSjnP7QcpobAflB19EKKE0ifhTH0poqQvlA1536WMe+KhlPN03k0JoXcNKPtp/BNF5F0OZ2ocpojR6VD2E7+dIkovM6CU81RfRxHzToGynxvzKWJjEzhTjUUUsaQBlP10ooxlZ0ApJ/qSInb1hbKd+BdDFDHfD2dKH0cRRzoZULYzhjKmngylnOhxiih/wg9lNw2/ogjzXThUwr2U8XQclN1krqCMFxKhlBNdTBmf1YGym557KCI0CA5lXHyEIlYlQtnNZQUUUTQQSjlSZpgidl1gQNlL0iNhiqhoAqdqu5YiQq2gbMZ4PUARazpDKWdaTxnPpkLZS/35lLEdjlX7E8p4Dcpm6v5AGd/UhFLONI4yfqoLZStGzwBlvA/HSnw6TBGbqkDZy2XbKCL0XhyUcqbLKaO0lwFlJ/4xFHIznOumAxRx8CooW0kdHaSIQ/dAKYfKyaOMd71QdpK9jzLKm8G5zvyZIire9kPZSYt5lLGrM5RyqGozKWN/ZSg76UshP9WAc2V+RhlLW0LZiK9fMWWsrwalHCr5MQoZAGUjcTMp5M9pcLBnSiniwJ1eKPuo8gGFTIFSTuW5vJQypvmg7KNpHmUErvLCwa7Mo4wPq0HZR6s9FNIfSjnWGcspY3cLKPu4r5gyNrWHkzXaQBlrzoayDc/9FGI2gFKOVfNDyih+BMo2smaEKeOv9eFk/m9NigjcFQ9lF3HLKGS9D0o5lmekSRHmrOpQdtF7O2WYz6fA0R4MU8bsulB20T5EIW9AKQfru5sy8m40oOwh7bUgZRy8Gc7WJkgZZZd5oOzBM45CwudDKQdrsYhCxleGsocOKyhkxdlwtoR9FPJZPJQ9NNhAIbvqQykHS55iUsamzlC2kDisnEKmV4bDTaeQ4hwoe3jgCIV8XAVKOdmDRygj+GQqlB3UyaWQ4pEeOFx/SnkSyhZqzzIp5P4EKOVkXXZTyPIGUDbguSRAIbsuhNM1PEIhm6tB2YBxQx6FHOxpQCknS5hPKTd6oKIv6UtK+SkdTpf9OYUU3wdlA1XGU0puYyjlbI9Syk9JUNHXsoxCwq/C8eLvohDzq2yoqDPO30Yh4T8lQSlnO9OkkEAnqOgbTSnBC+F8nfMoZOcVUFGX+lSIQgpuhFIOF7+DUj6Airq6GyllbzKcr8FMCgm+mQEVbQ3WUMriVlDK6V6glJ1toKLMGFlKKR/DBRKeMilkbSeoKPMMDlOIOTkOSjnd+RUUUv5yPFR01Z1PMX3hBr13UMrTqVDRlbGWUg4OglKOV2cNpazsABVVcXcVUsq+OnCDRnMoZWNrAyqqBlDM1lOhlOOlv0Eppc+mQkVTo68pZnIW3CB+TAWlPBMHFU3VFlDMl3FQyvG811VQyrIzoaIobsARihnkhysMPEAp+2pDRdPthyhmKJRygTNWUEpwZApU9NT9lmLWtYM7nLKOYp4zoKKn7myTUkJ1oZQLVP6LSSlbW0BFjXcA5YyvBpeYZFLK3hyoqPHdVUQxP0IpVxhYRDEPe6CiJW05xRQP9cIlrgxSSukTXqhoqfs55dwJpVyh/TKK2ZQNFS0XUc7Kc+AWGQWUYs5vAhUl3r4FFLOjGZRyheTxQYoZDBUlCV9TTHhKJlzjA4o5NMwHFR3VplDOhCwo5Q79D1DM+npQUWHccJBiCm834Brdw5RizmkOFRWem8opJtzfB6Xcofoqiil/OR4qGurOp5x1OXCPmsso5+lUqGjIWEM5P7eGUm7xOuWsPgcqChKHFVKM+RFcJOUZytl4lgEVBUMoJ/xWFSjlFmeaFFP+ahaU9VotoJzglXART488ynnXD2W9Bmspp2CAB0q5RcIOytnawwNltZRHyyhnbyW4SYOZlHPodCjrPV5COYtbQSn3GEk54UnVoKzWYgcFvQtXSXgyTDlfeqGsds4Kk2JC78ZBKfc4vZhyynoZUNZKHEtB5V3gLt3WUk7RtR4oa6W9EqScvEuglItU/ZyCFlSCstZZZRQ0pyrcpdrUMMWY39WBspSn+wYKWpAKpVzEPyhIQf2hLJX6MQUFh8bDZQYfpJz9t3uhrFR5PAWZD0EpV+m4kYKW1oGyUt/9FLS+gwGXabiecszZTaEsZPQqoqCSOlDKVSq9alJO+UteKOvU/86kHPONTLiN59Uw5VQ8mQZlnSprKekLD5Ryl8t3UtDW3h4oqySNKqegvVfBfc4qp6C8bgaUVeKeo6Tg+VDKZWp9ZVJO6JO6UBbxXrCekmafAhf6mZJmZUJZpVMeJf1cC0q5zfAjFHRocCKUNWp8GKKgkqe8cKFBlBQYAmWRqpODlDQ8CUq5TZMtlLSsKZQlvDcUU9LWDnCjBtsoaV1jKEv4bsmnpM2dDSjlNt43KCn8Fz+UFWruoiTzr3Fwo0qvU1JgbDKUFU7LNSlpfDUo5T6tyymqB5QF4t+kqOCFcKeu+ylpz40+KHmpT1NUwY1Qyo3mUdTCWlDyLiqkqI0JcKeTp1JUbmMocUbPPZRkflMXSrnRQIoqeSIRSlq9L0MUdT9cyndHESWVjEiFklZzLkUdGeGDUm7UcAUlmRsughKWOqKIorY1hls1+5Gitnb3QAl7MUhRW06FUq6U8qRJSeHpjaBEGT23m5RkPp8Kt/I9W0pJ5k9pUKKM3nsp63UvlHKnTjsoKvB8OpQgo8kcytrWEe7VYi1ljY6HknTqIsoqbwKlXCr7zTBF7e9tQMlJfomywm9mw8XeCFNU4SVeKDmZL5ZS1jdQyrX67qasZSdByelTTFm7rvLAxc44QlGh2c2hxMT13UVZFb2hlGtV+yJMWW8mQEmpu5jCvjoJbuabRVmlozOgpNT5gcJm14ZSrmVcW0BZBdcZUDKSxwcpq/AOD1ztwjBl5V0bByUjfmyQsspuioNS7pUxn8KWtTWgJPjvOkBhi6rB3arOobB1bQ0oCZ5bKW3OaVDKza4zKSv0wUlQArxn/URhoQfhcv5bAhQ2MQNKQrutFHbk/ngo5WYpGyis8P4UqMir/0mIwgpqw+2aL6KwwDAoAQ2+CFLY/KZQyt0epLTd5xpQkeb/cymlvQLXS3ykjMJ2XgYVcRnPFVNYydNxUMrdGq6ltG3VoCLM6FtKaXmN4X6tFlKYuaCVARVZvusKKW1LSyjlcknDQ5Q2Iwsqojxnb6e00MhkxIBHiyksOLmuARVJRru1lGY+B6Vcr91aSit+Mh0qkpp8G6a01WcgFjRcRmmHn8qAiqTsmRR3sC6Ucr205wOUtusGP1TkVH21hNICz6YiJjwSorS8fl6oyEl5jvLeh1IxoMsaSjN/7uSBipSkwfspbuU5iA1V91DclhyoiPEPLaS4/A5QKgb43whQWmhmHagIMTrlUVzgFT9ixHOUN7cSVIR4LtlgUpr5bCqUigUtN1De2BSoyGi4lvLWno5YkbOL4gJ/yYSKCO/ZiyhvxRlQKja8YFLe4FSoSKj9V8oLv4iYkfJsiOIKR6RDRYDRZAbllT2dCqViQ+3tlJd/QxzUiav1RjnlFZyCmGF0XEt5OwYlQ524lLcqKG9FRygVKx6hvPCaS6FOWOrwg7TAy4ghlV4IUt7G8zxQJ+yeYsoreykRSsWKhmspLzy/rQF1YhIG7TcpL68xYojRZhHlmdtqQ50gz4C9tMCWVlAqZiTcVU4LzG5uQJ0I7xV5tED5/YmIKY8W0wIL6kOdkPiL19MC5nNQKoY0n08rfJoNdSI6rqMV5p6G2NLwJ5PyAhPqQp0AX7dltMLuulAqhiQNK6IVnkuBOn4NfqAViu5NRIwZFKQFjjyfDXXcjFa5tMRDUCqmNJhDKxQO9UMdr4YfVdAKufURayqtpBX2PVQJ6nilzw3RCotOgVIxxTPkIC1g7rkjAer4ZI8J0AoH7vAg5vQP0Qr7rvRBHZ9KE8O0Qmn/OCgVWzJm0hIHBidBHQej5isBWsH8PAGxJ3NymFYouTIe6nhkjK+gFcJT60KpWNM9QEts7euBOnaVXwnQEiXnIgZ5L9xOS+y9Jgnq2FV54gAtsetKKBVz/J/RGpsugTpmKS8EaI0v/IhFlceEaAVzc18v1LHKeHIfLRF4rwqUij0d8mmNVZdAHSP/PUW0RlEHxCSj22pawvy5sxfq2PieOUBr7OoKpWJQ6rMmLRFe3t2AOhaJQ/eatET46WTEJv9zpbREaHk7D9Sx8I4ooTXM5+OgVCxqvoAWmdvRB3X0Kt1fSGuYc09DrKqzmBbZ3t4DdfSSBhXRInsrQ6mYFH/PIVrku44G1NFKuu8ALbJvoB8x6/YgLbKykxfqaKX2306LlA2GUjGqwSyTFpl7OtRR8t9VSIuEPquD2JUymxYJLzzPC3V0kvpvplVm1IJSMcpzeR6tMqct1FHxD82jVXZf6kEMu6CIFgku7OKFOhregdtplbw+PigVq+LHm7RIeNklHqg/ljB0r0mLhN+ORyyrNNqkRULL23mg/phvRBGtEn4tA0rFrsp7aZlNV8RD/QEj+4FCWmZHNmJbi8W0zPYO8VB/JOOZElrFnN8aSsWywWW0zPorPFC/r8pLR2iZskGIcf47CmmZtdckQf2+Kk8eoGWK7o2DUrGs1oz/1x6cAERV4H8A/703bxgOuQUlPEDFVUjTPBI1U3PNLY/MK/K+OqxMc9vdLq1M1zu11M3WzYw2V9O8Kjc1LTSVSINSFFAREBDkUGCGYWbe77/u8e/wCGTmHTPfz4eVkzmE4KZCl1lZObtuI0/XZIudlSKfGe9LcDPBc4tYOZ82JgCPJg3NZeWkT/IiuLHQpRWsnJxBBvJ49+WyYuSsMd4ENxa4oYSVU9mLADxcg/lWVoyc95QPwQ0IMX83s3KsiwIJjC/bWDHyhSdNBDcgBH1Qw8qRlxsIwNM132ln5VQsjiC4LrHrDlaQfU8sAZFvEivppSCC65I6HXSwgo5GEgAMymEFWZc3Jbient+xknJGEFx1Ty4rqOrP0QTXYeq3z84KKnjYSABgXCazgqzvtSK4hnFYMivJvsSH4Crfl82soIr324kEvyQO/o6VZF0TTgBA1OQUK8m6rSvBL0gJpxyspKxIgn8TYnaykiy7OwkEvzD1NCvqWLxIAPAvD1awkmzHHzAS/JT/jEIHK8n+CMF/GRLyWEm2rC4iwU8IDWYVsKLKZkoEAFcFLLayogpmBhD8qMU6VlbNigCC//FaaGZFFUwJIPh/hth1lawoeYs3AcB/xH3hYEVZZkcQ/Jch/p+ssMPtCH4UtV9mRV2c3VQg+A+x16c1rKzMWAKA/zKOzmFlmd++00Bwle9DKQ5W1sXHTAQ/8bsKVlbZujtEgqu8hiSzwiqnEAD8v6DVFlaWZX9/IwFR4IzTdlaWbWMEwU9JS1lh5qTuBP/SYEYGK+1vYQQAP2rxLSvMfn6sF4H/Xy7LrLDTXQWCn4n+hhXmyBohkccTIt4olVlh33QTCAB+4v4qVtyyCJE8m+mOA6y4Kw8R/IJ4Xz4r7fLS5gbybFK3z1hxF6dIBAA/k8iKs27ubiJPFjI+XWal2d4muEbgvEpWmm1HXwN5suCx6ay46rUNCQB+rkMqK86WPKEBeSyh1aILrLz9LQiu1f5LBysudZIXea6YhaWsvKO3EwD8gtfEUlZe3upA8lTdv6hg5eU8KBFcyzgin5WXvzCCPJQYv6OSlVc5hADgGiFvWFl51V91NZAHEqRxZx2svIqX/AiuxzS7hpVn3tlRJE9keuycjZXnmGckALhWxMYaVsGFZ28TydNI7d6tYhXUrA8huIEdDlZB4bRG5HGMUWtZDfYd4QQA19PlW1bD5fe6i+RZAoZ/YWMVyMmdCW6kbQqrwfK3DgbyLMEPJ9lYDak9RQKA6xpqZlUkj29AniRuUQ6romIkwQ0ZR2SzGmxJ44LJgwhxy/JYFYVP+hIAXJ+0kNVx4a1Y8hg+I74wszqWehPcmP+cClaDfGFtjEAe46FkM6vCsiaUAOBGmm6XWRXVKcN9ySMIkcsLHKyOr5oT3Mxtm2ysiurTAyXyCELksgJWSUpLAoAbu/MbmVWyNdZE7i9oYDqrRM7sKxLcVNvDMquj+q9tvcj9+Q9MsrFKCmIJAG7CMDqP1XJiagS5OePti0pYLfmP+xD8it8Vs0rsRydHCOTepNvn57Nayh4jALipwHkVrJbS9X1N5MaE8CkHLKyWiqVhBL/qFSurpeTDvuTWGj26j1VjeSOQAODmInbJrBZb+qLG5L7itxSyahzbmxD8uoi/s3p+mB1BbsvYe9NFmVWzrZVAAPAroktYPeajD0kCuSMxbG6OndVTGEVQC0LXo6yeqoND/cgtCX4LC22sntS+IgHArxp0iVVUvblnA3I7QsT4NFbTxbsJamfIWZnVY9nSwY/cjhj2UDqrKXccAUAt+D1fzmo69/rtErkX/99+UMFqKnnam6B2jLPKWE25L95hIvcScN+GclaT9WUTAUBtNH3fyqr6YkYUuRHTXYuyWFXmN8MJaiv0rw5Wk+XgzNsEciO93sxgdW0MJQCoFbHzUVaVXPb5lAByE0LU/FQLq8rxeRuC2mv+PaurZPdIb3IXrV5Ns7G69txOAFBLhsG5rC5H2f4ekkD6JwZOP2VmlWV0Ewnq4O5zrC5H8Wf3SgLpnxj8THqVzOpK6y0SANTa8BJWm3VzryCB9E1qMildZrUVDSCoE+OoXFZb5cZ7QkjnDI0nnWS1ydkJEgFAHcyuYNXlvvHbBqRnLSZ+bmbVVTxPUEc+TxWx6srW9GtIOiZFj9pUzaorn2UkAKiL8DU2Vl/miv6hpFdNp+yoYPWZVzYkqKuwJRWsOjn77UENSK+iZ24vZvXJywMJAOpEiNliY/XZT28c7Es6JDR+dHexzOqzbWwhENRZk40OVp/t7Id9SZcaP7m/nLVgT2MCgDoSO38tswbYinf2kATSFzFw+slyB2uA/M/WIsEtaJbKWmDPT4z3FUhfxOCpRy7LrAHywVgCgLrrkcbaYP0koZmJ9KNB3MwMmTVBPtyR4NbEZDhYE6x7hzU3km4I/jFPp7M22I/fIxIA3ILhF1kjzF8809Wb9CGs39wM1oqsPgS3SBqUyVrxxeT2PqQLQtiAeScdrA1y+mADAcAtea6UtcKaMq+vP2meGDVh3VnWjMIxBLfM/6lc1oqqrxb09SPtazZhQ7adtaJokh8BwK0JXV7DmlGdvmmEP2lbuzlJhXbWjJJZPgS3Luj1y6wZ1vQPR/mTpomt/rS3kLXD8bwvAcAtEpq8bWXtsF/64bmWkkDaJBo7v5NdxRpSPS+AoD4ClthYO+wlh/8QIQmkTaLxjrUZFTJrh2OlHwHArYtItLKmVGxNaOFHmiM1bPfHFCtrinllCEH9+H5sZU2p2vpAlK9AWiOEd5yeYmdNMb8fSgBQH222yKwxh2f3byaRlvh3GLsunzXGsTGKoL5u22hmbbF8PXtANGmKb/uRidmsMZYPoggA6idmH2uNI3fr7AEhpBXNhy3/+gprzvZWBPUmxH5iZ63J2f5s32DSCCFq6OKkStaamt0dCADqKz6NtceS8cmrPUykPv9By/aft7H2pHYkcAIp/ksHa05l+q4Xu5IGhAxdnZRtY82RkzqJBAD1ZfhtmszaI1cVHH4qQhJJNYLBv9/q74uqZdYe+bu+BgJnMHRMkVl75Mq8vdOjjSKpRjCYeq9JK7ayFl1qJRAAOEHvYw7Wpuoj8+6JCjSQ8owNYwb9JY81ynaoJ4GzdDrLWnXs5buaBYikPK+w1sPePc8aJWf2IgBwCuO4LNauo0vH92wqkJIatB0wbf0J1iz5UG8C5xmYzppVdWDRuPhIAylICGw7YHpiVg1rlSP1ASMBgHMYEwpZw6pOfjR3dGd/UoQY3vept/ZesLOGnbibwIm8Hs5kDbOm/WNOwp2+pIyQ3k+/vfeCg7VLTh1iIgBwFumpatY0R/6xz5aNjCIX828/6S/70stl1rTCYQRO1eCpfNY0a963O19/sKmBXMvQZeqK3SfLWdsyHzARADhP4MtVrHXVl84nzRsaZZREgZxNMEjG+Gc2puWV1bDW5Y8xETiX36xLrHGyuTh736IRTY0GUSBnE0TJr8uTiScvlFll1jjreIkAwJmkhCwH64FcsOuVYe2jG/qJ5BzG4MgWHUct3XOFdcGRMVIicLrHilkfzifO6BfXPLwBOYkpqHHMncMW7qtifSiaRADgZMZxWawbV75599VJ9/dqE+lL9eHbrH3vEU+9tTvVznohZ4w2ErjAswWsG6UHP3zt4fvvahsuUX34RrTrP3zmyi0ZFawbOU/4EAA4mzGhgHXl4qk9/1j54tj7usU0ojryiurQP2HK3JVbkjLNrCt5o4wEruD7bB7rie3i8b3vL/7j+N/FR4dSHXlH39E74YlXVn74ZZ6ZdSVnWgABgPNJEy6y7lgLMlIP7fv4r3OnjewZFxcp0s1IcXHdHkqYtWDDzq9STl8odrDuFI6WCFwj8Nl81h1LYWZq0p6P18x9fNQDHdt60035/yau26hRM+Zu3pWUcvJCmZ11p+iJAAIAV/CeUMA6ZTOXX8rPzc3OyDi6KfHdZ37pj+8kJm47npGZm5tfXHLFYmedKhhjInAVv1nFrFM15vJLRXk5WRkZOxITE+c/8wuzEv/lRMaZnNz8S5eumGXWKeskHwIA15ASshwMWuXIGCkRuFCvcwyaJWeOJwBwGeO4LAaNkr952EjgUgPTGTTKkfqARADgOsaEAgZtOnY3gYt5DUtj0CQ5dYiJAMCVpAkXGbQotQ+By/kMO8mgRZkPmAgAXMt7WJrMoDXyd30NBK7nNfiEzKA18qVeRgIAl+t1yMagLdb9PQiU0fwbB4O21CS1IgBQQs+dMoOW2D9qR6CU9p+ZGbTEsruTQACgiJhPGDTEuq0VgWKEmEQzg3aYP+ggEgAopO3aGgatsL7VmkBBQuu1lQxa4Xg/igBAMUKTt60M2lC6MFIgUJIQvKSGQRscK0MJAJQU+nIhgwbI2TO8CBS3oIhBA+Si5/0IAJRl+n0Rg/pODfciUJ73o2cdDGqzp0/yJQBQmtcT6QxqOziEQBX+CccdDOqSjw/2IwBQntfArxlUZftnT4lAHaaeXzkYVHXwHgMBgBqkdp/YGNRj297WQKAWoeXHDgb1yHtiRQIAlQQvv8yglsuLvQnU5L+4VGZQh1y+vDEBgHq8Z+cxqCP3NW8CdYXMyJIZVJE9K5AAQE2+U39gUIE9eaI3gdr8Rn4nM6ggLcFIAKAun/6HHAxKq955j4lAfYa7DzAob09viQBAbYa4zxwMyqp5p5mBQAvEmG0OBmVZN94uEgBogN/SEgYFOS7MJNCM0DkXHAwKyn05lABAG3yn/WBjUIr1yCAjgXb4jPnGwaCY1HEmAgCtMN2708KgjMp/dJcINOXu7VYGZdh29CUA0BCx9SI7gxJq5keLBBrTemkJgxLKVsaIBACaEjCxiMHl5Ipx/gSaI4Q8elZmcLmCxwIFAgCNEeMPWBhcq+qLriKBJnXYUcXgWpaUWAIALfrN6lIGF5Jzl0YTaFXEigIGVypc05IAQJsaTstmcJ0jowMItCvoiTQGl7GnPhlKAKBV0v1JDC5i/bCrRKBlPv0+qWZwDceOnr4EANplaL2sjMEVCl+KFAi0zRD+vIXBFSrnhYsEANr2wBErg7NVf9mHQA/6HKlkcLbqo0OMBACa12JdHoNzFayNINAFocXCHJnBqS6uvZ0AQA+CJqfYGZzHnvxoIIFeBCQkORic6JspDQkA9MH7rvWVDM5SsaG7iUA/DO2WVzM4S+XfukkEAHohhDxSIjM4g1yUECoS6ErIo+dkBmeQM6eECQQAehK3s1xmqC9H0d8jCfSn7fpimaHeyrbEEgDoTfislBqG+rEcGN2AQI/8H0u2MdSP9dhMbwIA/ZHi3yhlqI9Li9obCHSqy1t5DPVRsCZeIgDQpaAxSQy37ssHgwh0SwgZfqCG4VbJRx8OFwkAdMrYekERw60pXRwjEuiZFPGCRWa4JZXLI40EAHrWfcdlhrqr+KQ3gf79ZnupzFBXcvm+vgYCAJ3zfuGYlaFurN/OCSJwB8FPHq5mqBvH4d83JgDQPyl+TQFDHTjOr+hiIHAPhk5LLjHUReGqzkYCAHcghg/91MFQW7aN/UMI3EfQ4K1WhtqyfDo8mADAXRgaPXleZqgNOf2RhiKBOxEjxn4vM9SGXDC9qUQA4E4a/flMDcOvqUmfE07gfoL+kGlh+DXWvCVhBADuxhj/bj7DzeWtu8tI4JY6vpllY7gZR9579xoJANyQ/9idVxhuzLzrkQYE7sp/8IZihhszbx0VTgDgngwtH0+2MVxfzZFpLUUC9yVGjjzAcCPJk6MJANyXqcljOTLDteTsqZEmAvcmNZuZLTNcS77wQisjAYB7859/qkpm+Cm5Kv11PwJP0Oi545UMP2c5uzCaAMD9GdrNT7Yy/Kj66OtxBgIPEf1KcgXDjyxpKzoRAHgGY+f5Zxj+5+RrdxoJPIeh4wuHqhn+Q06b39OHAMBj+N07/7SD4V/yl93jQ+BZfNrP+IHhqosLuvoTAHgSoUGbOWUyezrZurpTgEDgcbxbvVYms6eTy97v4U8A4HnCpqdcltlzyVXpa1oReKqWf06rZE9WdXZhNAGAh2r6+8+L2VNVHHg9zkDgwaLn7C9hT1VxeP6dBAAerPmU7aXsiUr2zmxtJPBsYvS0zUXsiSxf/qGdkQDAoxmix3x4hT1N1Y7RbQwEYGw6eEM5e5qa/ZNuNxEAeDxjwx47ZZk9iLytRyOJAK4SQ3tsKJXZg1TvGdbMSAAAV4mt/vxdicyeQL5y+p1OBgL4iaiXTpbL7AnkirOrYwkA4Cdum/rJGSu7O3v+53+KNRLAL0TO2H6mht1e8Z45cQYCAPi5sEELDlnYnVlT3xrThACuJ2zg3CNWdmtnNkyMlggA4FoN2o/fWs5u68snugYLBHAD3h0mbitld2U79lKfxgQAcANS+N1/K5LZ/ciVHw9s4kUANyOFd1lcIrP7kat2DGjqKxAAwM0ETT5cWM3upKY47dkoAqgN76m788zsTuyFR16IEgkA4Nd5D3lj/zmZ3YNccPCvo4MIoLZ8+i74PMfO7sFRnLJ+iD8BANSSFDVkxaErrH/mtBVj2pgIoE4ihy/ZXyqz7jmOrZvayUgAAHXh337E4gyZ9Uw+886Yrv4EUHd+sb9bcor1LSdxcudwkQAA6kr0j07YVS6zTlkOTIoONhDALQpoNey9Upl1yv710+1DJQIAuFUhCZszi22sL/by7M+mNSGA+vIdk5h50cr6Iped2z0jmgAA6qvlmLX7z1lZLxy5Xyc+3YUAnMLQdMSbn58zs144ilM2PRFnJAAAZ5Cihry47bSVtc+e/dmCkXG+BOBEkQ/+6cPv7KwDZfsWT+xkJAAA5zFE9ZiyOpu17dwHU3vHmAjA2Yy3dZm4/qSNtcyR99EfBrb1JQAAZzMGter/epKZtcmWtfqhmIZGAnANKSSqzwv7qlib5NNrBrQM9xYIAMBVfPvP33+mqIa1Q75yIXX9uGYE4Hq+vV4+eO6SlbXDfjnv9ObJMRIBALicMWbkqs+/v+Rg9cmXMw9ufK5fCAEoJm7Cik+PF7EWlJ/c896sPo0JAEApYkSvya+993W+nVV0+fjHC6fd38ZAAAoL7TZh3nv7sh2sIvN3W5c+3ifSSAAACpMa3dFvwtwtZ62sgvLk9dMHdonyJgB1SI3a9h61YEuahZUnlx78y6yhXZv7EACASgx+4S26jF3yLSvp1D/mDIhtGupFAOoS/MOb3znx3WOVrBx7zkd/uq91k2CTQAAA6vPrPHrhByezLlyqcrCL1Fy5mHP669WPxfsSgLZ4x415bXNyVt6lSju7hmwtL8o+dWDFs/FhBACgNV7N+419NfHTo99frGRnshSdSdm7ddVzQ7uFCgSgVVG9x85e9+mh9LxyOzuRuTAr9cBHb05/uH0QAQBolxjSvtf46XPefPezgyfzarheqnK/3b/57fm/nzCwU6QXAehASNt+o5548Y33tu9PP2/leqk5n7Z309pXnx17f/doLwIA0Af/sJh23e8dOumVlZt2fH/irIXroORU2o5Na157acTgvp1jmwZLBKAzfo2i43r0GTrpxeUbtx05ccLGdVB5ImXXpqWvzHpkaJ+72jQJFgkAQIcMfoFhjZpHtWgT237khMeXrHp7V/J/HOf/kQuTrzr091WrVv5xwoQxnWNbRzdvFBbs50sA+mbwDQxr1DQqKja2w5AJkxevWrXzaPK/najk/6o6mfxvH6xatWr6hAmP9IxtE9WscViAn0kg+J//A1qPa/mE/w4iAAAAJXRFWHRkYXRlOmNyZWF0ZQAyMDIxLTAxLTMxVDE1OjQwOjE1KzAwOjAwn89GoQAAACV0RVh0ZGF0ZTptb2RpZnkAMjAyMS0wMS0zMVQxNTo0MDoxNSswMDowMO6S/h0AAAAASUVORK5CYII=;" vertex="1" parent="1">
          <mxGeometry x="240" y="40" width="40" height="40" as="geometry" />
        </mxCell>
        <mxCell id="aLhHGZbvKz11yxVPuM4n-17" value="" style="edgeStyle=orthogonalEdgeStyle;rounded=0;orthogonalLoop=1;jettySize=auto;html=1;" edge="1" parent="1" source="aLhHGZbvKz11yxVPuM4n-16" target="aLhHGZbvKz11yxVPuM4n-15">
          <mxGeometry relative="1" as="geometry" />
        </mxCell>
        <mxCell id="aLhHGZbvKz11yxVPuM4n-16" value="Users" style="sketch=0;outlineConnect=0;fontColor=#232F3E;gradientColor=none;fillColor=#232F3D;strokeColor=none;dashed=0;verticalLabelPosition=bottom;verticalAlign=top;align=center;html=1;fontSize=12;fontStyle=0;aspect=fixed;pointerEvents=1;shape=mxgraph.aws4.users;" vertex="1" parent="1">
          <mxGeometry x="40" y="360" width="40" height="40" as="geometry" />
        </mxCell>
        <mxCell id="aLhHGZbvKz11yxVPuM4n-36" value="Stripe" style="shape=image;verticalLabelPosition=bottom;labelBackgroundColor=default;verticalAlign=top;aspect=fixed;imageAspect=0;image=data:image/png,iVBORw0KGgoAAAANSUhEUgAAAOEAAADhCAMAAAAJbSJIAAAAkFBMVEVjW/////9hWf9fV/9xa/9eVv9dVP9WTf9YT/9aUf9XTv9US/9cU/9nX//GxP9TSf/f3v/o5/+hnf/Pzf/39v+Tjv+bl/96c/+lof+Xkv9+eP/KyP/w8P/6+v+5tv9rZP/V0//Cv/+Lhv+uq/9xav+Dff+0sf/i4f/y8f+9uv/s6/+NiP+Ggf+qp//Z1/+fm/+q/ZwLAAAFq0lEQVR4nO2d63bqLBBA4xAChCTeY7zfbW2tvv/bfdray2fVEIPHoWv2On/Ony72ggwwDOh5BEEQBEEQBEEQBEEQBEEQBEEQBEEQBEEQBEEQBEEQBEHcBwBgPODB/h/njO3/++gW2QNYIEXIYn/ZTneNrJF2Xzc9Pw5CIRVnrotCIDXbvPVrg2HlhOGg1h81lqwaRs5qQqTHafJyqnZCa7vaeFpx5ywh0PH8Kcfui/q0G4nIJUlQqrs11TtSm4914IgkqGDVKuj3IZmxkD+69QYEanWL3geTNnt0+/MAnd7Uf19gj6xRXPT7c8xQd0v6ITcEPS0tiNoQZK28IGZDBnULgogNgQ9sCOI1BGWlBxEbahvfIGbDcGRJEKthMLMliNQQonIrNfyGcmpNEKchjO0J4jQUzT9uCL5FQZSGMvnjhhDaFMRoGDT+uqGwtV7DagixVUGEhkH5xAVyQ2U1kmI01Ib7wu2o3fPHC9/vzHarpPbsjqHRXNHKtDicpR1gjEcq1LqzW9d+HUkhNISOgWCdqd/tZlwJthmdHt+gM+QGgWYgL7UamNK82//ZlegMg7d8w/bV4xbgMmpP8Bqqda7g8GIXfgI8hKyO1TB/sngSBn8HAt2boDSU/VzDmonhHiYWCUbD/N3vi6Hh4VwgTjwHDSuxeaPhzLTyYAxGaWWqH93KMhgtSzfq0c0sgTJKds8EusFnTJCZGFbW2oUii7Mww3z+oFt1r+7pHfMt/ksq8QVKE6rmRxat9cKZsqcfyEm+2jdPmSdcG62GoeabbSpDpyRvOZaZpBCir+765rZ8aXOmlSuSvH2L4T7uTDvakdFaIJqeUE+VExNImYOL4WgcOuAo8oq5r9Ic52Y5Hg5bljGsVBIP/VgV03KKlblEvjAHVWqc7nmeadzdyOIz+fliJAp3N3KT5P51Bj35aIurRCWjzYEG7nxO1CuvOMKtyBflS2iRZ+VYsa3iWda4FUHvSiu+4Q43XhSX7sYN7klj342vF0/ozRiiO7g4heu3crP/BPeneEDxeSnHGfJx6h2KosOsxEL18rE/IiAQm9svse3wd+IBphejG9Mbg+qjG28IKPl62+QxcyULtw+sIWTGN7q/mYSPbngB9l9kPC98JQpducJ1INK9ggWM12uMMMKkSIuM1qmLx+Jcd8yvZbzgX9ecg4mFsSP69OIFQG8Md8lLd+aLE7gwqL/ZkwaPbunNgJ6bGK6iRze0BNWpgWGCKZhCwQEFwmC52kSUzIDFvFrM0eTtky2idRv4ldZOFHFkBvlx05rUf8H77cNBo8AjSBDkGxrVFf8jjvcrW3OQhnMYcIM+xDVKjyS+WTGQSX3KBFOk+XFHtpYqmb/xMTn37yM1PDRtpvLOc7VBlmqNaD78dc+51Z+J8EqBXtXkoawM0art7E3ubeZLedaSC6OXwDBlai7dVX9uZn5VyCj4fOgSDm9EVpdmGY0C5f135+pt/Hp/3l0uPKaE1nzc6SaG+cUWpnyiyXsDw2Gr1SqS6cc0WVh+UeEIpkBzH8MFos/wLoZ1RKvS+xi+odrh38MQV8r7DoaYFqXeXQx9RAsa7x6GTVRx5h6GmFZsB6wbrhBtnN6xbfiCrk7BtmEHV5jxrBvusI1R24YYaxOtGjYRClo13KIs2LdomKAUtGi4wpS6+IE1w1dki7UvLBnWYkyJi/8BYxvvzzZwfoIfgGiXfVcw8VBt6n/D9XhVomK26TtwyRIi3ZnedqEkWQh0K9HzMCV889/OOVLPPHRbiWtAJFQ39/ePvqi9xQ4+IgFcirg92ubF15ckjYV7ekeAq7DqLRuj5tPz6WHF8Lk+WaedUCtn9T4BxpUUEsad3rLdyLIs7c56fgxKSBU4ElqM+Hjrkgd7/tpP5hEEQRAEQRAEQRAEQRAEQRAEQRAEQRAEQRAEQRAEQRAEOv4DDpRUCKklyhsAAAAASUVORK5CYII=;" vertex="1" parent="1">
          <mxGeometry x="760" y="760" width="40" height="40" as="geometry" />
        </mxCell>
        <mxCell id="aLhHGZbvKz11yxVPuM4n-37" style="edgeStyle=orthogonalEdgeStyle;rounded=0;orthogonalLoop=1;jettySize=auto;html=1;entryX=0.5;entryY=0;entryDx=0;entryDy=0;" edge="1" parent="1" source="aLhHGZbvKz11yxVPuM4n-26" target="aLhHGZbvKz11yxVPuM4n-36">
          <mxGeometry relative="1" as="geometry" />
        </mxCell>
        <mxCell id="aLhHGZbvKz11yxVPuM4n-25" value="Amazon S3" style="sketch=0;points=[[0,0,0],[0.25,0,0],[0.5,0,0],[0.75,0,0],[1,0,0],[0,1,0],[0.25,1,0],[0.5,1,0],[0.75,1,0],[1,1,0],[0,0.25,0],[0,0.5,0],[0,0.75,0],[1,0.25,0],[1,0.5,0],[1,0.75,0]];outlineConnect=0;fontColor=#232F3E;fillColor=#7AA116;strokeColor=#ffffff;dashed=0;verticalLabelPosition=bottom;verticalAlign=top;align=center;html=1;fontSize=12;fontStyle=0;aspect=fixed;shape=mxgraph.aws4.resourceIcon;resIcon=mxgraph.aws4.s3;" vertex="1" parent="1">
          <mxGeometry x="840" y="520" width="40" height="40" as="geometry" />
        </mxCell>
        <mxCell id="aLhHGZbvKz11yxVPuM4n-81" style="edgeStyle=orthogonalEdgeStyle;rounded=0;orthogonalLoop=1;jettySize=auto;html=1;entryX=0;entryY=0.5;entryDx=0;entryDy=0;entryPerimeter=0;" edge="1" parent="1" source="aLhHGZbvKz11yxVPuM4n-57" target="aLhHGZbvKz11yxVPuM4n-25">
          <mxGeometry relative="1" as="geometry" />
        </mxCell>
        <mxCell id="aLhHGZbvKz11yxVPuM4n-84" style="edgeStyle=orthogonalEdgeStyle;rounded=0;orthogonalLoop=1;jettySize=auto;html=1;entryX=1;entryY=0.5;entryDx=0;entryDy=0;entryPerimeter=0;" edge="1" parent="1" source="aLhHGZbvKz11yxVPuM4n-26" target="aLhHGZbvKz11yxVPuM4n-25">
          <mxGeometry relative="1" as="geometry" />
        </mxCell>
      </root>
    </mxGraphModel>
  </diagram>
</mxfile>
